<svg id="Layer_1" data-name="Layer 1" xmlns="http://www.w3.org/2000/svg" xmlns:xlink="http://www.w3.org/1999/xlink" viewBox="0 0 742.06 460.5"><defs><style>.cls-1,.cls-2{fill:none;}.cls-2{clip-rule:evenodd;}.cls-3{clip-path:url(#clip-path);}.cls-4{fill:url(#linear-gradient);}.cls-5{clip-path:url(#clip-path-2);}.cls-6{fill:url(#linear-gradient-2);}.cls-7{clip-path:url(#clip-path-3);}.cls-8{fill:url(#linear-gradient-3);}.cls-9{fill:#6d6e71;fill-rule:evenodd;}.cls-10{clip-path:url(#clip-path-4);}.cls-11{fill:url(#linear-gradient-4);}</style><clipPath id="clip-path" transform="translate(-49.73 -68.43)"><path class="cls-1" d="M259.14,317.31v50.28l-.12,5.8c0,4.15,1,7.31,3.16,9.43s5.25,3.16,9.43,3.16a35.82,35.82,0,0,0,17.05-4.1,27.92,27.92,0,0,0,12-11.92,35.88,35.88,0,0,0,4.18-17.36,38.42,38.42,0,0,0-5.09-19.74,27.51,27.51,0,0,0-14-12.19c-5.92-2.33-14.8-3.43-26.56-3.36m0-9q16.39,0,24.19-3.67a28,28,0,0,0,12-10.42c2.76-4.46,4.14-10.18,4.14-17.12s-1.38-12.6-4.1-17.05a26,26,0,0,0-11.72-10.11c-5.09-2.33-13.26-3.43-24.51-3.35Zm42.07,3.16q22.32,5.15,31.33,12.59a33.46,33.46,0,0,1,12.95,27.26q0,17.7-14.21,29.25-17.46,14-50.75,14H200.85v-4.27c7.26,0,12.16-.67,14.76-2A11.64,11.64,0,0,0,221,383c1.06-2.17,1.58-7.46,1.58-15.94V265.3c0-8.48-.52-13.81-1.58-16a11.29,11.29,0,0,0-5.49-5.25c-2.6-1.34-7.49-2-14.68-2v-4.3H276c18,0,30.71,1.62,38.17,4.81a39.56,39.56,0,0,1,17.68,14.33,35.33,35.33,0,0,1,6.47,20.28,28.88,28.88,0,0,1-8.21,20.21Q321.92,306.21,301.21,311.44Z"/></clipPath><linearGradient id="linear-gradient" x1="0.15" y1="594.85" x2="0.97" y2="594.85" gradientTransform="translate(140889.1 158.1) rotate(90) scale(191.04 236.47)" gradientUnits="userSpaceOnUse"><stop offset="0" stop-color="#003d68"/><stop offset="1" stop-color="#000002"/></linearGradient><clipPath id="clip-path-2" transform="translate(-49.73 -68.43)"><path class="cls-2" d="M681.61,246.2v68.67h6.59c10.69,0,18.7-.95,24-2.92a24,24,0,0,0,12.55-10.66q4.56-7.69,4.57-20c0-12-2.79-20.76-8.4-26.48s-14.56-8.57-27-8.57Zm-135.12-2.36v-.32q-16.92,2.55-26.37,21-8.89,17.55-8.9,50.52,0,39.18,13.75,57.89a32.42,32.42,0,0,0,7.32,7.33H502.8a73.82,73.82,0,0,1-14.5-13.76q-17.78-22.14-17.82-52.46,0-34.08,23.18-56.81c14.51-14.21,32.1-20.54,52.83-20.62l113.08.18h35.95c19,0,32.84,1.34,41.63,3.94s16.36,8.39,21.92,15.44A39.05,39.05,0,0,1,767.4,281q0,17.34-12.51,28.69-8,7.16-22.3,10.73l37.69,53.08c4.93,6.87,8.45,11.13,10.5,12.83a19.52,19.52,0,0,0,11,3.94v4.27H742.42l-50.51-71.47h-10.3v44q0,12.72,1.54,16a11.52,11.52,0,0,0,5.48,5.29c2.64,1.3,7.54,2,14.72,2v4.27H623.08v-4.27c7.26,0,12.16-.67,14.76-2a11.93,11.93,0,0,0,5.45-5.25c1-2.17,1.54-7.46,1.54-15.94V265.3c0-8.48-.52-13.81-1.54-16a11.39,11.39,0,0,0-5.53-5.25C636.65,243.49,555.25,243.84,546.49,243.84Z"/></clipPath><linearGradient id="linear-gradient-2" x1="0.22" y1="594.8" x2="0.9" y2="594.8" gradientTransform="translate(236046.32 157.22) rotate(90) scale(181.99 395.87)" gradientUnits="userSpaceOnUse"><stop offset="0" stop-color="#00aeef"/><stop offset="1" stop-color="#005e97"/></linearGradient><clipPath id="clip-path-3" transform="translate(-49.73 -68.43)"><path class="cls-2" d="M398.11,287.36c-22.21,49.82-21.17,46.49-34.69,77.82-2.17,5.1-3.23,9.28-3.23,12.59q0,6.63,5.32,9.71c2.06,1.27,7.19,2.17,15.35,2.8v4.27H328.73v-4.27a23.3,23.3,0,0,0,13.86-7Q348,377.58,356,359.62l56.08-125.1h2.21L470.8,363.09q8.11,18.3,13.3,23l.39.34c19.5,0,72.63,4.27,86.78-6,6.6-4.79,11.74-12.52,15.44-23.11S592.25,333,592.25,316q0-30.37-5.66-45.4c-3.77-10.05-8.55-17.14-14.4-21.3H600.7a74.58,74.58,0,0,1,9.43,7.91Q632.95,279.9,633,314q0,29.1-17,51.22-22.1,28.71-62,29.33v0H419.38v-4.27h3.12c6.08,0,10.38-.87,12.83-2.56a6.19,6.19,0,0,0,2.56-5.33,13.88,13.88,0,0,0-.71-4.26c-.16-.71-1.3-3.59-3.47-8.68-17.2-40.35-11.06-25.28-35.6-82.09"/></clipPath><linearGradient id="linear-gradient-3" x1="0.16" y1="594.47" x2="0.96" y2="594.47" gradientTransform="translate(373612.56 155.24) rotate(90) scale(197.52 627.75)" xlink:href="#linear-gradient"/><clipPath id="clip-path-4" transform="translate(-49.73 -68.43)"><path class="cls-2" d="M414.91,160.09c69.57,0,133.84,10.62,185.92,28.59-44.91-11.61-96.49-18.23-151.37-18.23-173.64,0-314.4,66.13-314.4,147.71,0,48.89,50.58,92.23,128.49,119.11-97.18-25.12-163-73.69-163-129.48,0-81.57,140.76-147.7,314.4-147.7"/></clipPath><linearGradient id="linear-gradient-4" x1="0.28" y1="594.57" x2="0.78" y2="594.57" gradientTransform="matrix(0, 511.15, -840.63, 0, 500165.62, 45.95)" gradientUnits="userSpaceOnUse"><stop offset="0" stop-color="#00aeef"/><stop offset="1" stop-color="#003d68"/></linearGradient></defs><g class="cls-3"><rect class="cls-4" x="151.13" y="169.33" width="144.64" height="156.79"/></g><g class="cls-5"><rect class="cls-6" x="420.75" y="168.24" width="321.31" height="157.88"/></g><g class="cls-7"><rect class="cls-8" x="279.01" y="166.09" width="304.23" height="160.03"/></g><path class="cls-9" d="M383.24,351.33a13.32,13.32,0,0,1,12.26-11.85v11.85ZM395.5,366H383.17V353.16H395.5Zm14.17-12.79V366H397.33V353.16Zm-12.34-13.68a13.31,13.31,0,0,1,12.27,11.85H397.33Z" transform="translate(-49.73 -68.43)"/><g class="cls-10"><rect class="cls-11" x="79.05" y="115.87" width="543.23" height="365.62" transform="translate(-99.27 2.2) rotate(-10.75)"/></g></svg>