<svg id="Layer_1" data-name="Layer 1" xmlns="http://www.w3.org/2000/svg" viewBox="0 0 398.9 69.47"><defs><style>.cls-1{fill:#98002e;}.cls-2{fill:none;stroke:#98002e;stroke-width:2.06px;}.cls-3{fill:#444d3e;}.cls-4{fill:#455560;}</style></defs><path class="cls-1" d="M171,29.14h2.18V50.89H171Z" transform="translate(-4.84 -3.22)"/><path class="cls-1" d="M177.85,50.89V29.14h.47L192.8,45.81V29.14h2.14V50.89h-.49L180.1,34.42V50.89Z" transform="translate(-4.84 -3.22)"/><path class="cls-1" d="M199.93,29.14h2.18V48.79h8.36v2.1H199.93Z" transform="translate(-4.84 -3.22)"/><path class="cls-1" d="M222.5,29.14l10.14,21.75H230.3l-3.42-7.16h-9.37l-3.39,7.16h-2.43L222,29.14Zm-.27,4.62-3.73,7.87h7.44Z" transform="translate(-4.84 -3.22)"/><path class="cls-1" d="M235.73,50.89V29.14h.47l14.48,16.67V29.14h2.14V50.89h-.49L238,34.42V50.89Z" transform="translate(-4.84 -3.22)"/><path class="cls-1" d="M257.81,50.89V29.14h4.51a23.13,23.13,0,0,1,7.08.78,9.51,9.51,0,0,1,5,3.85,11.66,11.66,0,0,1,1.78,6.52A11.45,11.45,0,0,1,274.72,46a9.06,9.06,0,0,1-3.67,3.67,13.78,13.78,0,0,1-6.32,1.18Zm2.08-2.06h2.52a23.18,23.18,0,0,0,6.25-.56,7.22,7.22,0,0,0,3.86-2.87,8.79,8.79,0,0,0,1.41-5.07A9.28,9.28,0,0,0,272.4,35a7.64,7.64,0,0,0-4.24-3.06,25.82,25.82,0,0,0-6.73-.62h-1.54Z" transform="translate(-4.84 -3.22)"/><path class="cls-1" d="M286.46,29.14h2.37L296,45.94l7.32-16.8h2.37l-9.46,21.75h-.48Z" transform="translate(-4.84 -3.22)"/><path class="cls-1" d="M314.27,29.14l10.14,21.75h-2.35l-3.42-7.16h-9.37l-3.39,7.16h-2.42l10.28-21.75ZM314,33.76l-3.72,7.87h7.43Z" transform="translate(-4.84 -3.22)"/><path class="cls-1" d="M327.48,29.14h2.17V48.79H338v2.1H327.48Z" transform="translate(-4.84 -3.22)"/><path class="cls-1" d="M341.16,29.14h2.18V48.79h8.36v2.1H341.16Z" transform="translate(-4.84 -3.22)"/><path class="cls-1" d="M354.86,29.14h12.46v2.13H357v6.82h10.21v2.13H357v8.54h10.21v2.13H354.86Z" transform="translate(-4.84 -3.22)"/><path class="cls-1" d="M369.06,29.14h2.5l5.57,9,5.48-9h2.51L378.23,40.5V50.89h-2.15V40.5Z" transform="translate(-4.84 -3.22)"/><path class="cls-1" d="M386.15,46.84,388,45.73c1.31,2.4,2.81,3.59,4.51,3.59a4.33,4.33,0,0,0,2.06-.51,3.59,3.59,0,0,0,2-3.18,3.73,3.73,0,0,0-.74-2.15A18,18,0,0,0,392.06,40a19.59,19.59,0,0,1-3.39-3,5.47,5.47,0,0,1-1.15-3.33,5.07,5.07,0,0,1,.68-2.58,4.8,4.8,0,0,1,1.92-1.84,5.47,5.47,0,0,1,2.68-.68,5.69,5.69,0,0,1,2.87.77,9.73,9.73,0,0,1,2.84,2.8l-1.78,1.34a8.44,8.44,0,0,0-2.09-2.14,3.56,3.56,0,0,0-1.89-.52,3,3,0,0,0-2.15.8,2.64,2.64,0,0,0-.83,2,3.44,3.44,0,0,0,.29,1.37,5.2,5.2,0,0,0,1.08,1.45c.29.28,1.23,1,2.81,2.17a16,16,0,0,1,3.88,3.71,6,6,0,0,1,1.05,3.27,5.53,5.53,0,0,1-1.8,4.11,6,6,0,0,1-4.37,1.75,6.43,6.43,0,0,1-3.59-1.06A9.48,9.48,0,0,1,386.15,46.84Z" transform="translate(-4.84 -3.22)"/><path class="cls-1" d="M173.22,56.27l4,8.62h-.93L175,62.05h-3.71l-1.35,2.84h-1L173,56.27Zm-.11,1.83-1.48,3.12h3Z" transform="translate(-4.84 -3.22)"/><path class="cls-1" d="M181,63.28l.73-.43c.52.94,1.12,1.42,1.79,1.42a1.81,1.81,0,0,0,.82-.2,1.54,1.54,0,0,0,.58-.55,1.39,1.39,0,0,0,.19-.72,1.45,1.45,0,0,0-.29-.85,7.19,7.19,0,0,0-1.47-1.38A7.36,7.36,0,0,1,182,59.39a2.14,2.14,0,0,1-.45-1.31,2,2,0,0,1,.27-1,2,2,0,0,1,.75-.73,2.25,2.25,0,0,1,2.21,0,3.86,3.86,0,0,1,1.12,1.11l-.7.53a3.51,3.51,0,0,0-.83-.85,1.42,1.42,0,0,0-.75-.21,1.18,1.18,0,0,0-.85.32,1,1,0,0,0-.33.78,1.5,1.5,0,0,0,.11.55,2.12,2.12,0,0,0,.43.57c.12.11.49.4,1.12.86a6.37,6.37,0,0,1,1.53,1.47,2.35,2.35,0,0,1,.42,1.3,2.21,2.21,0,0,1-.72,1.63,2.38,2.38,0,0,1-1.73.69,2.54,2.54,0,0,1-1.42-.42A3.81,3.81,0,0,1,181,63.28Z" transform="translate(-4.84 -3.22)"/><path class="cls-1" d="M190.26,63.28l.73-.43c.52.94,1.11,1.42,1.79,1.42a1.73,1.73,0,0,0,.81-.2,1.4,1.4,0,0,0,.58-.55,1.31,1.31,0,0,0,.2-.72,1.53,1.53,0,0,0-.29-.85,7,7,0,0,0-1.48-1.38,7.18,7.18,0,0,1-1.34-1.18,2.15,2.15,0,0,1-.46-1.31,2,2,0,0,1,.27-1,2,2,0,0,1,.76-.73,2.23,2.23,0,0,1,2.2,0,3.88,3.88,0,0,1,1.13,1.11l-.71.53a3.33,3.33,0,0,0-.83-.85,1.36,1.36,0,0,0-.74-.21,1.22,1.22,0,0,0-.86.32,1,1,0,0,0-.33.78,1.33,1.33,0,0,0,.12.55,2.12,2.12,0,0,0,.43.57,14,14,0,0,0,1.11.86,6.26,6.26,0,0,1,1.54,1.47,2.42,2.42,0,0,1,.41,1.3,2.2,2.2,0,0,1-.71,1.63,2.38,2.38,0,0,1-1.73.69,2.52,2.52,0,0,1-1.42-.42A3.81,3.81,0,0,1,190.26,63.28Z" transform="translate(-4.84 -3.22)"/><path class="cls-1" d="M204.53,56.05a4.48,4.48,0,0,1,3.28,1.31,4.54,4.54,0,0,1-3.21,7.75,4.4,4.4,0,0,1-3.24-1.32A4.3,4.3,0,0,1,200,60.62a4.48,4.48,0,0,1,4.49-4.57Zm0,.84a3.62,3.62,0,0,0-1.82.5,3.56,3.56,0,0,0-1.33,1.34,3.77,3.77,0,0,0-.48,1.89,3.62,3.62,0,0,0,3.63,3.65,3.64,3.64,0,0,0,1.86-.49,3.54,3.54,0,0,0,1.33-1.33,3.73,3.73,0,0,0,.48-1.88,3.57,3.57,0,0,0-1.83-3.18A3.66,3.66,0,0,0,204.57,56.89Z" transform="translate(-4.84 -3.22)"/><path class="cls-1" d="M222.18,57.87l-.68.52a3.6,3.6,0,0,0-1.35-1.11,4,4,0,0,0-1.73-.38,3.84,3.84,0,0,0-1.91.5,3.48,3.48,0,0,0-1.36,1.33,3.7,3.7,0,0,0-.48,1.88,3.54,3.54,0,0,0,1.08,2.63,3.75,3.75,0,0,0,2.72,1.05,3.82,3.82,0,0,0,3-1.42l.68.52a4.28,4.28,0,0,1-1.61,1.27,5,5,0,0,1-2.15.45,4.49,4.49,0,0,1-3.57-1.51,4.54,4.54,0,0,1-1.09-3.07,4.27,4.27,0,0,1,1.32-3.18,4.57,4.57,0,0,1,3.33-1.3,4.88,4.88,0,0,1,2.18.48A4.23,4.23,0,0,1,222.18,57.87Z" transform="translate(-4.84 -3.22)"/><path class="cls-1" d="M227.09,56.27H228v8.62h-.86Z" transform="translate(-4.84 -3.22)"/><path class="cls-1" d="M236.75,56.27l4,8.62h-.93l-1.35-2.84h-3.71l-1.35,2.84h-1l4.07-8.62Zm-.11,1.83-1.48,3.12h3Z" transform="translate(-4.84 -3.22)"/><path class="cls-1" d="M243.57,57.11v-.84h4.72v.84h-1.92v7.78h-.88V57.11Z" transform="translate(-4.84 -3.22)"/><path class="cls-1" d="M252.71,56.27h.87v8.62h-.87Z" transform="translate(-4.84 -3.22)"/><path class="cls-1" d="M263,56.05a4.47,4.47,0,0,1,3.27,1.31,4.34,4.34,0,0,1,1.32,3.22,4.55,4.55,0,0,1-7.76,3.21,4.3,4.3,0,0,1-1.32-3.17,4.56,4.56,0,0,1,.6-2.3,4.46,4.46,0,0,1,1.64-1.67A4.41,4.41,0,0,1,263,56.05Zm0,.84a3.7,3.7,0,0,0-3.15,1.84,3.77,3.77,0,0,0-.48,1.89A3.64,3.64,0,0,0,263,64.27a3.64,3.64,0,0,0,1.86-.49,3.47,3.47,0,0,0,1.33-1.33,3.73,3.73,0,0,0,.48-1.88,3.62,3.62,0,0,0-.48-1.85,3.56,3.56,0,0,0-1.34-1.33A3.7,3.7,0,0,0,263,56.89Z" transform="translate(-4.84 -3.22)"/><path class="cls-1" d="M272.59,64.89V56.27h.18l5.74,6.61V56.27h.85v8.62h-.19l-5.69-6.53v6.53Z" transform="translate(-4.84 -3.22)"/><path class="cls-1" d="M295.48,56.05a4.48,4.48,0,0,1,3.28,1.31,4.54,4.54,0,0,1-3.21,7.75,4.4,4.4,0,0,1-3.23-1.32A4.3,4.3,0,0,1,291,60.62a4.56,4.56,0,0,1,.6-2.3,4.46,4.46,0,0,1,1.64-1.67A4.4,4.4,0,0,1,295.48,56.05Zm0,.84a3.55,3.55,0,0,0-1.81.5,3.59,3.59,0,0,0-1.34,1.34,3.77,3.77,0,0,0-.48,1.89,3.62,3.62,0,0,0,3.63,3.65,3.64,3.64,0,0,0,1.86-.49,3.47,3.47,0,0,0,1.33-1.33,3.73,3.73,0,0,0,.48-1.88,3.59,3.59,0,0,0-1.82-3.18A3.7,3.7,0,0,0,295.52,56.89Z" transform="translate(-4.84 -3.22)"/><path class="cls-1" d="M305.11,56.27h4.32v.84H306v2.71h3.46v.84H306v4.23h-.86Z" transform="translate(-4.84 -3.22)"/><path class="cls-1" d="M320.9,56.27h1.71a10.21,10.21,0,0,1,1.95.12,2.27,2.27,0,0,1,1.25.75,2.16,2.16,0,0,1,.48,1.42A2.3,2.3,0,0,1,326,59.8a2,2,0,0,1-.95.81,4.51,4.51,0,0,1-1.7.28l3.1,4h-1.07l-3.09-4h-.49v4h-.86Zm.86.84V60l1.48,0a3.67,3.67,0,0,0,1.28-.17,1.39,1.39,0,0,0,.65-.52,1.5,1.5,0,0,0,.23-.81,1.39,1.39,0,0,0-.24-.79,1.35,1.35,0,0,0-.61-.5,3.78,3.78,0,0,0-1.27-.16Z" transform="translate(-4.84 -3.22)"/><path class="cls-1" d="M331.44,56.27h4.94v.84H332.3v2.71h4v.84h-4v3.39h4v.84h-4.9Z" transform="translate(-4.84 -3.22)"/><path class="cls-1" d="M344.69,56.27l4,8.62h-.93l-1.36-2.84h-3.71l-1.34,2.84h-1l4.08-8.62Zm-.11,1.83-1.48,3.12h2.95Z" transform="translate(-4.84 -3.22)"/><path class="cls-1" d="M353.34,56.27h.87v7.79h3.31v.83h-4.18Z" transform="translate(-4.84 -3.22)"/><path class="cls-1" d="M360.78,57.11v-.84h4.72v.84h-1.92v7.78h-.88V57.11Z" transform="translate(-4.84 -3.22)"/><path class="cls-1" d="M374.15,56.05a4.48,4.48,0,0,1,3.28,1.31,4.54,4.54,0,0,1-3.21,7.75A4.4,4.4,0,0,1,371,63.79a4.3,4.3,0,0,1-1.32-3.17,4.58,4.58,0,0,1,2.24-4A4.43,4.43,0,0,1,374.15,56.05Zm0,.84a3.62,3.62,0,0,0-1.82.5A3.56,3.56,0,0,0,371,58.73a3.67,3.67,0,0,0-.49,1.89,3.64,3.64,0,0,0,3.64,3.65,3.58,3.58,0,0,0,1.85-.49,3.49,3.49,0,0,0,1.34-1.33,3.73,3.73,0,0,0,.48-1.88A3.57,3.57,0,0,0,376,57.39,3.66,3.66,0,0,0,374.19,56.89Z" transform="translate(-4.84 -3.22)"/><path class="cls-1" d="M383.82,56.27h1.72a10.09,10.09,0,0,1,1.94.12,2.23,2.23,0,0,1,1.25.75,2.16,2.16,0,0,1,.48,1.42,2.3,2.3,0,0,1-.33,1.24,2,2,0,0,1-.95.81,4.45,4.45,0,0,1-1.69.28l3.09,4h-1.06l-3.1-4h-.49v4h-.86Zm.86.84V60l1.49,0a3.61,3.61,0,0,0,1.27-.17,1.34,1.34,0,0,0,.65-.52,1.5,1.5,0,0,0,.23-.81,1.46,1.46,0,0,0-.23-.79,1.37,1.37,0,0,0-.62-.5,3.74,3.74,0,0,0-1.27-.16Z" transform="translate(-4.84 -3.22)"/><path class="cls-1" d="M393.47,63.28l.73-.43c.51.94,1.11,1.42,1.79,1.42a1.73,1.73,0,0,0,.81-.2,1.47,1.47,0,0,0,.58-.55,1.39,1.39,0,0,0,.2-.72,1.53,1.53,0,0,0-.29-.85,7,7,0,0,0-1.48-1.38,6.85,6.85,0,0,1-1.34-1.18,2.09,2.09,0,0,1-.46-1.31,2,2,0,0,1,.27-1,1.91,1.91,0,0,1,.76-.73,2.23,2.23,0,0,1,2.2,0,3.88,3.88,0,0,1,1.13,1.11l-.71.53a3.33,3.33,0,0,0-.83-.85,1.38,1.38,0,0,0-.74-.21,1.2,1.2,0,0,0-.86.32,1,1,0,0,0-.33.78,1.33,1.33,0,0,0,.12.55,2.12,2.12,0,0,0,.43.57,14,14,0,0,0,1.11.86,6.26,6.26,0,0,1,1.54,1.47,2.42,2.42,0,0,1,.41,1.3,2.24,2.24,0,0,1-.71,1.63,2.38,2.38,0,0,1-1.73.69,2.55,2.55,0,0,1-1.43-.42A3.89,3.89,0,0,1,393.47,63.28Z" transform="translate(-4.84 -3.22)"/><line class="cls-2" x1="157.06" y1="16.62" x2="157.06" y2="68.93"/><path class="cls-3" d="M18.5,14.38H4.93V3.22H18.5Z" transform="translate(-4.84 -3.22)"/><path class="cls-1" d="M403.74,58a1.87,1.87,0,0,1-1,1.67,1.86,1.86,0,0,1-.95.26,1.92,1.92,0,0,1-1-.26,1.88,1.88,0,0,1-.7-.7,1.92,1.92,0,0,1,1.66-2.88,1.87,1.87,0,0,1,1.65,1A1.81,1.81,0,0,1,403.74,58Zm-.26,0a1.72,1.72,0,0,0-.22-.83,1.62,1.62,0,0,0-.61-.61,1.55,1.55,0,0,0-.82-.22,1.64,1.64,0,0,0-.83.22,1.6,1.6,0,0,0-.6.61,1.65,1.65,0,0,0-.23.83,1.62,1.62,0,0,0,.23.83,1.57,1.57,0,0,0,.6.6,1.65,1.65,0,0,0,.83.23,1.59,1.59,0,0,0,.82-.23,1.67,1.67,0,0,0,.61-.6A1.75,1.75,0,0,0,403.48,58ZM401,56.86H402a1.27,1.27,0,0,1,.46.06.58.58,0,0,1,.23.21.68.68,0,0,1,.09.35.65.65,0,0,1-.06.29.57.57,0,0,1-.21.19.5.5,0,0,1,.2.17.9.9,0,0,1,0,.34v.24a.48.48,0,0,0,.08.3l0,.06h-.39a2.32,2.32,0,0,1-.05-.33l0-.27a.36.36,0,0,0-.05-.21.22.22,0,0,0-.1-.09.85.85,0,0,0-.28,0h-.55v.93H401Zm.35.31v.66h.54a.62.62,0,0,0,.33-.06.28.28,0,0,0,.13-.27.33.33,0,0,0-.09-.25.58.58,0,0,0-.35-.08Z" transform="translate(-4.84 -3.22)"/><path class="cls-4" d="M18.66,14.46H5.09V3.31H18.66ZM5.09,22.08H18.66V71.36H5.09Z" transform="translate(-4.84 -3.22)"/><path class="cls-4" d="M50.91,71.36H35.81L18.9,22.08H33.14L43.55,55.73h.19L54.16,22.08H67.63Z" transform="translate(-4.84 -3.22)"/><path class="cls-4" d="M118.56,22.08h13.9v9.15h.19a17.47,17.47,0,0,1,15.77-10.48,10,10,0,0,1,3,.48V33.81a24.49,24.49,0,0,0-4.87-.48c-9.94,0-13.38,7.15-13.38,15.82V71.36H118.56Z" transform="translate(-4.84 -3.22)"/><path class="cls-4" d="M112.83,60.4V34.76c0-11.82-11.85-14-21.69-14-11.09,0-21.46,3.81-22.22,16.49H81.49c.47-5.34,3.82-7.44,9-7.44,4.78,0,8.79.86,8.79,6.68,0,5.52-7.74,5.24-16.05,6.48s-15.82,3.81-15.82,15c0,10.1,6.45,14.77,15.82,14.77,6,0,12.32-1.62,16.62-6.1a20.29,20.29,0,0,0,1,4.77h13.76C113.31,69.36,112.83,64.88,112.83,60.4ZM99.2,53.27v8.27H80.64V53.27H78.51l11.41-6.34,7.18,4V49.83h2.06v2.23l2.17,1.21Z" transform="translate(-4.84 -3.22)"/><path class="cls-4" d="M18.41,14.46H4.84V3.31H18.41Z" transform="translate(-4.84 -3.22)"/></svg>