<svg xmlns="http://www.w3.org/2000/svg" xmlns:xlink="http://www.w3.org/1999/xlink" viewBox="0 0 1627.09 1627.09"><defs><style>.cls-1,.cls-5{fill:url(#linear-gradient);}.cls-1{clip-rule:evenodd;}.cls-2{isolation:isolate;}.cls-3{fill:#fff;stroke:#59b2d5;stroke-width:1.06px;}.cls-11,.cls-13,.cls-4,.cls-5{fill-rule:evenodd;}.cls-4{fill:url(#linear-gradient-2);}.cls-6{clip-path:url(#clip-path);}.cls-7{fill:#00264c;}.cls-8{fill:url(#linear-gradient-4);}.cls-9{fill:url(#linear-gradient-5);}.cls-10{fill:url(#linear-gradient-6);}.cls-11{fill:url(#linear-gradient-7);}.cls-12{mix-blend-mode:multiply;}.cls-13{fill:url(#linear-gradient-8);}.cls-14{fill:url(#radial-gradient);}.cls-15{fill:url(#radial-gradient-2);}.cls-16{fill:#005799;}</style><linearGradient id="linear-gradient" x1="827" y1="1250.83" x2="827" y2="372" gradientUnits="userSpaceOnUse"><stop offset="0" stop-color="#00bff3"/><stop offset="0.04" stop-color="#07c1f3"/><stop offset="0.1" stop-color="#1cc6f4"/><stop offset="0.17" stop-color="#3ecff6"/><stop offset="0.25" stop-color="#6ddaf8"/><stop offset="0.34" stop-color="#aaeafb"/><stop offset="0.43" stop-color="#f2fcfe"/><stop offset="0.45" stop-color="#fff"/><stop offset="0.53" stop-color="#c8e8f6"/><stop offset="0.62" stop-color="#8ccfec"/><stop offset="0.72" stop-color="#5abae3"/><stop offset="0.8" stop-color="#3ad"/><stop offset="0.88" stop-color="#179fd8"/><stop offset="0.95" stop-color="#0697d5"/><stop offset="1" stop-color="#0095d4"/></linearGradient><linearGradient id="linear-gradient-2" x1="826.99" y1="1419.93" x2="826.99" y2="171.02" xlink:href="#linear-gradient"/><clipPath id="clip-path" transform="translate(-13.44 -19.47)"><path class="cls-1" d="M1397.83,833c0,315.28-255.58,570.85-570.84,570.85S256.16,1148.29,256.16,833,511.73,262.18,827,262.18,1397.83,517.77,1397.83,833Z"/></clipPath><linearGradient id="linear-gradient-4" x1="1874.02" y1="1009.14" x2="1874.02" y2="461.69" gradientTransform="matrix(-1, 0, 0, 1, 2554.75, 0)" gradientUnits="userSpaceOnUse"><stop offset="0" stop-color="#00addc"/><stop offset="1" stop-color="#006590"/></linearGradient><linearGradient id="linear-gradient-5" x1="1812.79" y1="693.62" x2="1812.79" y2="296.55" gradientTransform="matrix(-1, 0, 0, 1, 2554.75, 0)" gradientUnits="userSpaceOnUse"><stop offset="0" stop-color="#9ddcf9"/><stop offset="1" stop-color="#006590"/></linearGradient><linearGradient id="linear-gradient-6" x1="1666.46" y1="593.4" x2="1666.46" y2="296.67" gradientTransform="matrix(-1, 0, 0, 1, 2541.31, -19.47)" xlink:href="#linear-gradient-5"/><linearGradient id="linear-gradient-7" x1="945.6" y1="642.01" x2="945.6" y2="867.06" gradientUnits="userSpaceOnUse"><stop offset="0" stop-color="#54b948"/><stop offset="0.05" stop-color="#4eb449"/><stop offset="0.31" stop-color="#2c9a4e"/><stop offset="0.57" stop-color="#148752"/><stop offset="0.8" stop-color="#057c54"/><stop offset="1" stop-color="#007855"/></linearGradient><linearGradient id="linear-gradient-8" x1="251.53" y1="949.12" x2="1639.67" y2="949.12" gradientUnits="userSpaceOnUse"><stop offset="0" stop-color="#fff"/><stop offset="1" stop-color="#0095d4"/></linearGradient><radialGradient id="radial-gradient" cx="1552.74" cy="862.17" r="39.18" gradientUnits="userSpaceOnUse"><stop offset="0" stop-color="#00aeef"/><stop offset="0.06" stop-color="#00a5e5"/><stop offset="0.34" stop-color="#0082bf"/><stop offset="0.6" stop-color="#0068a3"/><stop offset="0.83" stop-color="#005992"/><stop offset="1" stop-color="#00538c"/></radialGradient><radialGradient id="radial-gradient-2" cx="106.34" cy="862.17" r="39.18" xlink:href="#radial-gradient"/></defs><g class="cls-2"><g id="Layer_1" data-name="Layer 1"><circle class="cls-3" cx="826.99" cy="833.01" r="813.02" transform="translate(-360.25 809.28) rotate(-45)"/><path class="cls-4" d="M1462,833c0,350.74-284.34,635.06-635,635.06S191.93,1183.75,191.93,833,476.25,198,827,198,1462,482.3,1462,833Z" transform="translate(-13.44 -19.47)"/><path class="cls-5" d="M1397.83,833c0,315.28-255.58,570.85-570.84,570.85S256.16,1148.29,256.16,833,511.73,262.18,827,262.18,1397.83,517.77,1397.83,833Z" transform="translate(-13.44 -19.47)"/><g class="cls-6"><polygon class="cls-7" points="1252.78 806.16 953.03 463.75 677.22 463.75 932.36 805.64 1252.78 806.16"/><path class="cls-8" d="M991.61,825.05,801.2,695.74,489.47,808.5,369.84,846.74,691.13,483.16Z" transform="translate(-13.44 -19.47)"/><path class="cls-9" d="M1010.37,844.9,858.24,713,597.5,741.07,473.55,821.75,731.49,527.14Z" transform="translate(-13.44 -19.47)"/><polygon class="cls-10" points="853.04 491.64 896.66 540.15 896.66 424.42 853.04 424.42 853.04 491.64"/><rect class="cls-7" x="891.7" y="424.42" width="38.25" height="159.14"/><path class="cls-11" d="M1085.07,851.82H251.53c33.49-31.62,56-42.24,76.31-55.8,16.75-11.17,24.79-21.43,33.27-24.23,32.49-10.73,66.83-17,94.92-29.78,16.15-7.35,27.65-17.26,43-24.17,26.94-12.09,58.57-21.33,96.56-37.26,5.56-1.36,30.59,7.92,39.28,11.21,24.21-7.44,42.88-25.41,55.49-25.41,5.74,0,6.73,3.16,15,6.78,17-13,30.93-20.22,54-13,30,9.34,82.83,50.8,113.5,59.56,3.35-.24,6.62-.56,9.84-.93m0,0c28.11-3.19,51.5-10.22,81.37-10.24,43.57-.06,85.83-22.29,98.85-16.72,34.93,15,104.62,51.9,137.51,74.41,3.6,2.47,5.36,7.25,9.31,9.3,41.6,21.73,124.73,43.92,129.54,48.39,28.82-3,44,27.2,74.37,27.17,27.53,0,93.46-38.91,121.75-38.34,22.79.48,31.19,14.39,54.2,13.06,13.6-2.59,31.64,13,50,26h-554.6" transform="translate(-13.44 -19.47)"/><g class="cls-12"><path class="cls-13" d="M1639.67,851.86c-18.4,13-36.44,28.6-50,26-23-1.3-31.41,12.62-54.2,13.07-28.29.58-94.22-38.31-121.75-38.33-30.34,0-45.55,30.16-74.37,27.16-4.81,4.49-87.94,26.67-129.54,48.4-4,2-5.71,6.83-9.31,9.29C1167.57,960,1097.88,996.9,1063,1011.89c-13,5.57-55.28-16.69-98.85-16.72-33.29,0-58.52-8.76-91.21-11.17-30.67,8.75-83.52,50.21-113.5,59.56-23,7.15-37,0-54-13-8.31,3.61-9.3,6.77-15,6.77-12.61,0-31.28-18-55.49-25.4-8.69,3.29-33.72,12.55-39.28,11.19-38-15.92-69.62-25.15-96.56-37.26-15.37-6.89-26.87-16.83-43-24.14-28.09-12.78-62.43-19.07-94.92-29.79-8.48-2.8-16.52-13.06-33.27-24.22-20.35-13.57-42.82-24.19-76.31-55.81Z" transform="translate(-13.44 -19.47)"/></g></g><path class="cls-14" d="M1590.12,852.44,1567,871.73l8.89,31.34-23.16-19.35-23.21,19.35,8.89-31.34-23.07-19.29h28.5l8.89-31.17,8.84,31.17Z" transform="translate(-13.44 -19.47)"/><path class="cls-15" d="M143.73,852.44l-23.11,19.29,8.88,31.34-23.15-19.35L83.13,903.07,92,871.73,69,852.44h28.5l8.89-31.17,8.83,31.17Z" transform="translate(-13.44 -19.47)"/><path class="cls-16" d="M154,732,61.2,714.59,65.43,692l73.3,13.78,6.75-35.93L165,673.55Z" transform="translate(-13.44 -19.47)"/><path class="cls-16" d="M231.85,503.17,212,501.32l-16.55,32.59,13.4,14.59-11.24,22.12-66.29-78.09,10-19.74,102,7.77Zm-73.22-8.74,23.47,25.38,10.76-21.17Z" transform="translate(-13.44 -19.47)"/><path class="cls-16" d="M352.31,345.7l-55.66-5-.19.19,31.28,30.24-15.48,16L244.33,321.5l15.49-16,27.62,26.71.28-.3-4.17-51,19.84-20.53,3,59.49L373,324.31Z" transform="translate(-13.44 -19.47)"/><path class="cls-16" d="M466.43,255.47,420,173.19,475.35,142l9.43,16.74-36.14,20.38,8.78,15.58,34.17-19.26,9,15.91L466.4,210.61,476,227.7l38.25-21.57,9.56,17Z" transform="translate(-13.44 -19.47)"/><path class="cls-16" d="M772.45,153.3a50.43,50.43,0,0,1-20.62,6.49,54.93,54.93,0,0,1-20.49-1.38,46.54,46.54,0,0,1-29.43-22.94,51.53,51.53,0,0,1-6.06-19.73,51.82,51.82,0,0,1,1.66-20.85,45.79,45.79,0,0,1,9.1-16.77,48.11,48.11,0,0,1,15.1-11.66,57.72,57.72,0,0,1,19.65-5.65,57,57,0,0,1,19.94,1.37A37.76,37.76,0,0,1,778,70.74l-13.7,17.08a19.1,19.1,0,0,0-9.07-5.58,28,28,0,0,0-10.84-1,26.93,26.93,0,0,0-10.7,3.39,26,26,0,0,0-7.9,7,28,28,0,0,0-4.57,9.7,32.47,32.47,0,0,0-.73,11.69,33.51,33.51,0,0,0,3.27,11.46,27.42,27.42,0,0,0,6.51,8.48,24.89,24.89,0,0,0,9.06,5,26.67,26.67,0,0,0,11,.95,25.25,25.25,0,0,0,11.51-3.95,23,23,0,0,0,7.34-7.79l17.42,13.13A45.2,45.2,0,0,1,772.45,153.3Z" transform="translate(-13.44 -19.47)"/><path class="cls-16" d="M1009.84,126.63a52.81,52.81,0,0,1-7.52,19.44,46.73,46.73,0,0,1-13.45,13.66,47.64,47.64,0,0,1-17.93,7.07,57.24,57.24,0,0,1-20.86-.19,56.35,56.35,0,0,1-19.48-7.26,48,48,0,0,1-14.15-13,46.54,46.54,0,0,1-7.68-17.55,52.55,52.55,0,0,1-.09-20.85,51.85,51.85,0,0,1,7.53-19.44,44.48,44.48,0,0,1,13.37-13.33,47.8,47.8,0,0,1,17.81-6.76,62.4,62.4,0,0,1,40.34,7.45A47.72,47.72,0,0,1,1002,88.55a44.92,44.92,0,0,1,7.74,17.24A52.09,52.09,0,0,1,1009.84,126.63Zm-24-4.43a32.87,32.87,0,0,0,.12-11.65,27.65,27.65,0,0,0-3.79-10,25.56,25.56,0,0,0-7.31-7.46,27.32,27.32,0,0,0-10.42-4.17,26.35,26.35,0,0,0-20.65,4.54,26.12,26.12,0,0,0-7.1,8,35.36,35.36,0,0,0-4.16,22.91,27.91,27.91,0,0,0,3.76,10.13,25.21,25.21,0,0,0,7.23,7.51A28.37,28.37,0,0,0,965,146a26.11,26.11,0,0,0,9.5-4.42,27.57,27.57,0,0,0,7.2-8.1A34.15,34.15,0,0,0,985.83,122.2Z" transform="translate(-13.44 -19.47)"/><path class="cls-16" d="M1194.07,235.68a33.89,33.89,0,0,1-13,6.62,37.85,37.85,0,0,1-15,.71,51.62,51.62,0,0,1-29.47-16,36.46,36.46,0,0,1-7.4-12.91,33.8,33.8,0,0,1-1.3-14.38,41.14,41.14,0,0,1,5-15L1161,133l19.92,10.85-27.23,50a27,27,0,0,0-2.63,6.92,19.06,19.06,0,0,0-.27,6.92,14.46,14.46,0,0,0,2.74,6.43A21.88,21.88,0,0,0,1168,222a15.05,15.05,0,0,0,6.93-1.17,17,17,0,0,0,5.66-4,27.54,27.54,0,0,0,4.32-6l27.23-50,20.05,10.89L1204,223.4A40.84,40.84,0,0,1,1194.07,235.68Z" transform="translate(-13.44 -19.47)"/><path class="cls-16" d="M1329.24,374.26,1347.41,304l-.28-.28L1303,347l-15.35-16,68.09-65.48,18,18.76-18.17,70,.29.29,44.06-43.11,15.35,16-68.09,65.47Z" transform="translate(-13.44 -19.47)"/><path class="cls-16" d="M1504.89,500.29l-66.82,34L1427.72,514l66.81-34-12.11-23.78,17.36-8.83,34.58,67.87L1517,524.07Z" transform="translate(-13.44 -19.47)"/><path class="cls-16" d="M1535.76,706.7l-39.3,7.57-4.32-22.39,39.31-7.58,46.73-45.15,5.23,27.12-30.51,26.39L1591,705.84l5,26.2Z" transform="translate(-13.44 -19.47)"/><path class="cls-16" d="M183.55,1038.34l4,12.32-80.54,64.68-5.35-16.27,18.57-14.36L108.87,1050l-23.41-.32-5.23-15.93Zm-50.89,36.78L166,1050.51l-41.5-.24Z" transform="translate(-13.44 -19.47)"/><path class="cls-16" d="M204.24,1143.67a18.83,18.83,0,0,0,2.55-8.6,18,18,0,0,0-1.52-8.93,19.27,19.27,0,0,0-2.89-4.43,14.91,14.91,0,0,0-4.11-3.33,12.49,12.49,0,0,0-5.2-1.46,12.64,12.64,0,0,0-6.09,1.33,12.08,12.08,0,0,0-4.57,3.44,11.93,11.93,0,0,0-2.22,4.65,21.49,21.49,0,0,0-.46,5.78c.09,2.15.27,4.46.53,7,.22,2.87.38,5.89.44,9.05a31.57,31.57,0,0,1-1.21,9.35,24.34,24.34,0,0,1-4.68,8.74,27.23,27.23,0,0,1-9.79,7.12,34.38,34.38,0,0,1-13.38,3.47,27.48,27.48,0,0,1-11.54-2,27,27,0,0,1-9.32-6.42,35.63,35.63,0,0,1-6.7-9.86,39.24,39.24,0,0,1-3.63-16,31.3,31.3,0,0,1,3.94-16l14.92,4.86a22.37,22.37,0,0,0-3.58,10.77,21,21,0,0,0,1.69,10.44,20.31,20.31,0,0,0,3,4.53,13.34,13.34,0,0,0,4.37,3.41,13.67,13.67,0,0,0,5.53,1.37,14.53,14.53,0,0,0,6.58-1.56,11.94,11.94,0,0,0,5.11-4.09,14.81,14.81,0,0,0,2.21-5.62,28.48,28.48,0,0,0,.3-7c-.19-2.54-.37-5.21-.56-8a68.69,68.69,0,0,1-.25-8.29,25.11,25.11,0,0,1,1.7-8.33,24.18,24.18,0,0,1,4.91-7.73,29.55,29.55,0,0,1,9.54-6.54,28,28,0,0,1,12.65-2.94,26,26,0,0,1,10.95,2.65,29.17,29.17,0,0,1,8.87,6.75,37.64,37.64,0,0,1,6.29,9.47,35.41,35.41,0,0,1,3.15,12.9,31.31,31.31,0,0,1-2.21,13.69Z" transform="translate(-13.44 -19.47)"/><path class="cls-16" d="M241.18,1208.8a18.82,18.82,0,0,0,1.61-8.83,17.92,17.92,0,0,0-2.49-8.72,18.44,18.44,0,0,0-3.34-4.08,15,15,0,0,0-4.45-2.88,12.37,12.37,0,0,0-5.33-.88,12.61,12.61,0,0,0-5.9,2,12.2,12.2,0,0,0-4.18,3.91,11.87,11.87,0,0,0-1.7,4.86,20.87,20.87,0,0,0,.17,5.8c.32,2.12.74,4.42,1.28,6.88.53,2.83,1,5.8,1.42,8.94a31.75,31.75,0,0,1-.21,9.43,24.46,24.46,0,0,1-3.7,9.2,27.31,27.31,0,0,1-9,8.13,33.84,33.84,0,0,1-12.92,4.89,27.67,27.67,0,0,1-11.69-.7,27.34,27.34,0,0,1-9.95-5.39,36,36,0,0,1-7.74-9.07,39.3,39.3,0,0,1-5.33-15.55,31.36,31.36,0,0,1,2.18-16.33l15.36,3.22a22.42,22.42,0,0,0-2.39,11.1,21,21,0,0,0,2.81,10.19,19.9,19.9,0,0,0,3.42,4.19,13.52,13.52,0,0,0,10.36,3.67,14.32,14.32,0,0,0,6.38-2.26,12,12,0,0,0,4.63-4.61,14.93,14.93,0,0,0,1.59-5.82,28.32,28.32,0,0,0-.46-7c-.45-2.5-.92-5.14-1.42-7.9a70.71,70.71,0,0,1-1.14-8.2,25.36,25.36,0,0,1,.78-8.47,24.81,24.81,0,0,1,4.06-8.22,29.74,29.74,0,0,1,8.78-7.54,28.29,28.29,0,0,1,12.24-4.29,26.38,26.38,0,0,1,11.19,1.45,29.81,29.81,0,0,1,9.54,5.76,37.77,37.77,0,0,1,7.28,8.74,35.33,35.33,0,0,1,4.51,12.48,31.09,31.09,0,0,1-.71,13.86Z" transform="translate(-13.44 -19.47)"/><path class="cls-16" d="M233.74,1249.8a61.53,61.53,0,0,1,18.48-10.47,46.85,46.85,0,0,1,18.3-2.62,41.18,41.18,0,0,1,16.81,4.82,45.07,45.07,0,0,1,14.05,11.84,46,46,0,0,1,8.6,16.42,41.55,41.55,0,0,1,1.11,17.55,46.39,46.39,0,0,1-6.5,17.34,65.72,65.72,0,0,1-32.51,26,48.75,48.75,0,0,1-18.49,2.71,43,43,0,0,1-17.22-4.66,43.72,43.72,0,0,1-14.31-11.85,43.19,43.19,0,0,1-8.34-16.41,42.18,42.18,0,0,1-.71-17.71,48.61,48.61,0,0,1,6.7-17.41A60.46,60.46,0,0,1,233.74,1249.8Zm10.19,12.72a46.65,46.65,0,0,0-9.84,10.55,34.49,34.49,0,0,0-5.08,11.69,27.63,27.63,0,0,0-.07,11.8,25.54,25.54,0,0,0,5.24,10.81,25.94,25.94,0,0,0,9.45,7.52,27.41,27.41,0,0,0,11.57,2.54,34.41,34.41,0,0,0,12.51-2.4,46.76,46.76,0,0,0,12.45-7.31,44.92,44.92,0,0,0,9.56-10.33,35.13,35.13,0,0,0,5.06-11.61,27.82,27.82,0,0,0,.15-11.84,25.93,25.93,0,0,0-5.32-11,25.3,25.3,0,0,0-9.53-7.52,27.68,27.68,0,0,0-11.55-2.4,35.44,35.44,0,0,0-12.43,2.4A45.33,45.33,0,0,0,243.93,1262.52Z" transform="translate(-13.44 -19.47)"/><path class="cls-16" d="M369.46,1361a19.67,19.67,0,0,0-1.14-11.47,25.69,25.69,0,0,0-16.53-15,28.36,28.36,0,0,0-11.86-.84,35,35,0,0,0-12,4.1,44.85,44.85,0,0,0-11.05,8.73,49.15,49.15,0,0,0-8.45,12,34.16,34.16,0,0,0-3.5,12.16,25.66,25.66,0,0,0,8.35,21.44,23.47,23.47,0,0,0,10.87,6,24.79,24.79,0,0,0,11.71-.15l2.13,15.3a40.2,40.2,0,0,1-18.53-.26,38.72,38.72,0,0,1-16.83-9.7A43.3,43.3,0,0,1,292,1388a41.63,41.63,0,0,1-3.16-17.4,48.65,48.65,0,0,1,4.27-18.1,61.28,61.28,0,0,1,11.73-17.37,59.27,59.27,0,0,1,16.92-12.88,47.14,47.14,0,0,1,17.91-5,42.14,42.14,0,0,1,17.45,2.52,45.26,45.26,0,0,1,15.61,9.78,43.1,43.1,0,0,1,5.56,6.43,38.22,38.22,0,0,1,4.28,7.77,39.71,39.71,0,0,1,2.42,8.54,26.32,26.32,0,0,1-.06,8.94Z" transform="translate(-13.44 -19.47)"/><path class="cls-16" d="M406.08,1361.16l11.83,9.2-59.35,76.37-11.83-9.2Z" transform="translate(-13.44 -19.47)"/><path class="cls-16" d="M458.72,1399l10.93,7-21.34,101.08-14.45-9.2,5.27-22.88-30.81-19.61L390,1470l-14.15-9Zm-16.08,60.69,10.19-40.15-32.27,26.11Z" transform="translate(-13.44 -19.47)"/><path class="cls-16" d="M514.21,1448.39l-23.14-11.45,6.67-13.47,59.7,29.54-6.67,13.47L527.64,1455l-36.24,73.21L478,1521.6Z" transform="translate(-13.44 -19.47)"/><path class="cls-16" d="M571.82,1458.25l13.93,5.52-35.61,89.93-13.93-5.53Z" transform="translate(-13.44 -19.47)"/><path class="cls-16" d="M590.2,1518a61.14,61.14,0,0,1,8.88-19.29,46.71,46.71,0,0,1,13.32-12.82,41.11,41.11,0,0,1,16.46-5.92,45.1,45.1,0,0,1,18.31,1.41,45.78,45.78,0,0,1,16.58,8.29,41.53,41.53,0,0,1,11.16,13.59,46.24,46.24,0,0,1,4.85,17.87,61.2,61.2,0,0,1-2.35,21.11,60.49,60.49,0,0,1-8.81,19,48.48,48.48,0,0,1-13.43,13,42.66,42.66,0,0,1-16.68,6.29,44,44,0,0,1-18.54-1.26,43.28,43.28,0,0,1-16.36-8.45,42.11,42.11,0,0,1-10.93-14,49.3,49.3,0,0,1-4.74-18A60.65,60.65,0,0,1,590.2,1518Zm15.7,4.37a46.39,46.39,0,0,0-1.82,14.3,34.47,34.47,0,0,0,2.71,12.46,27.7,27.7,0,0,0,6.83,9.62,27.16,27.16,0,0,0,22.63,6.29,27.42,27.42,0,0,0,10.88-4.69,34.43,34.43,0,0,0,8.75-9.27,46.78,46.78,0,0,0,5.83-13.2,45,45,0,0,0,1.73-14,35,35,0,0,0-2.68-12.36,27.65,27.65,0,0,0-6.81-9.7,25.77,25.77,0,0,0-10.72-5.81,25.26,25.26,0,0,0-12.13-.54,27.86,27.86,0,0,0-10.79,4.8,35.14,35.14,0,0,0-8.67,9.21A45,45,0,0,0,605.9,1522.4Z" transform="translate(-13.44 -19.47)"/><path class="cls-16" d="M707.78,1498.83l19.71,2.43,30,76.65.24,0,8.86-71.86,14.88,1.83-11.84,96-18.89-2.33-30.52-79.06-.24,0-9.14,74.16-14.87-1.83Z" transform="translate(-13.44 -19.47)"/><path class="cls-16" d="M838.79,1557.82a61.3,61.3,0,0,1,1.71-21.17,46.75,46.75,0,0,1,8.1-16.61A41.15,41.15,0,0,1,862,1508.82a45.13,45.13,0,0,1,17.67-5,45.93,45.93,0,0,1,18.43,2.09,41.72,41.72,0,0,1,15.16,8.93A46.33,46.33,0,0,1,924,1530a61.11,61.11,0,0,1,5,20.64,60.06,60.06,0,0,1-1.73,20.9,48.46,48.46,0,0,1-8.14,16.83A42.57,42.57,0,0,1,905.64,1600a45.53,45.53,0,0,1-36.1,2.9,42.23,42.23,0,0,1-15.06-9.35,49.15,49.15,0,0,1-10.65-15.32A60.31,60.31,0,0,1,838.79,1557.82Zm16.25-1.3a46.56,46.56,0,0,0,3.21,14.08,34.57,34.57,0,0,0,6.83,10.74,27.59,27.59,0,0,0,9.72,6.7,25.71,25.71,0,0,0,11.89,1.72,26,26,0,0,0,11.53-3.6,27.36,27.36,0,0,0,8.59-8.15,34.41,34.41,0,0,0,5-11.71,46.6,46.6,0,0,0,.93-14.39,45.11,45.11,0,0,0-3.18-13.73,35.46,35.46,0,0,0-6.77-10.7,27.64,27.64,0,0,0-9.72-6.76A25.82,25.82,0,0,0,881,1519a25.51,25.51,0,0,0-11.58,3.66,28,28,0,0,0-8.47,8.22,35.32,35.32,0,0,0-5,11.64A45,45,0,0,0,855,1556.52Z" transform="translate(-13.44 -19.47)"/><path class="cls-16" d="M943.17,1498.67l53.15-11.36,3.14,14.69-38.5,8.23,5.54,25.92,36.29-7.76,3,14.17-36.29,7.75,8.51,39.81-14.67,3.13Z" transform="translate(-13.44 -19.47)"/><path class="cls-16" d="M1048.25,1471.58l27.24-10.68a46.37,46.37,0,0,1,11.26-2.87,27.9,27.9,0,0,1,11,.76,23.75,23.75,0,0,1,9.62,5.47,29.45,29.45,0,0,1,7.17,11.12q3.85,9.81,1.45,17.86a25.42,25.42,0,0,1-9.87,13.47l36.6,31.73-16.84,6.61-33.12-31-10.19,4,15,38.15-14,5.48Zm40.56,28.85a37.36,37.36,0,0,0,5.78-2.85,16.31,16.31,0,0,0,4.62-4,12,12,0,0,0,2.37-5.54,13.91,13.91,0,0,0-1.07-7.28,11.57,11.57,0,0,0-8.93-7.8,14.88,14.88,0,0,0-5.79.07,32.38,32.38,0,0,0-5.68,1.64l-12.63,4.95,9.93,25.3Z" transform="translate(-13.44 -19.47)"/><path class="cls-16" d="M1121.19,1441.52l49.25-26.2,7.06,13.26-36,19.17,11.54,21.7,34.13-18.16,6.81,12.79-34.13,18.16,12.84,24.13,37.9-20.18,7.19,13.5-51.14,27.22Z" transform="translate(-13.44 -19.47)"/><path class="cls-16" d="M1209.91,1389.47l10.62-7.44,85.25,58.34-14,9.83-19.14-13.61-29.89,21,6.48,22.49-13.73,9.62Zm49.95,38-33.22-24.75,11.8,39.79Z" transform="translate(-13.44 -19.47)"/><path class="cls-16" d="M1259.33,1352.39l11.21-10,54,60.88,26.78-23.77,10.16,11.45-38,33.72Z" transform="translate(-13.44 -19.47)"/><path class="cls-16" d="M1323.22,1313.11l-17.73,18.76-10.92-10.31,45.75-48.42,10.93,10.32-17.74,18.76,59.37,56.11-10.29,10.9Z" transform="translate(-13.44 -19.47)"/><path class="cls-16" d="M1383.55,1297.41a61.29,61.29,0,0,1-14.91-15.13,47,47,0,0,1-7.29-17,41.38,41.38,0,0,1,.29-17.51,47.9,47.9,0,0,1,21.41-29.2,41.6,41.6,0,0,1,16.66-5.64,46.54,46.54,0,0,1,18.42,1.78,61.42,61.42,0,0,1,18.92,9.66,60.28,60.28,0,0,1,14.69,15,48.58,48.58,0,0,1,7.42,17.16,42.6,42.6,0,0,1,0,17.81,43.7,43.7,0,0,1-7.73,16.91,43.17,43.17,0,0,1-13.68,12.31,42.14,42.14,0,0,1-16.92,5.3,49.2,49.2,0,0,1-18.56-1.94A60.92,60.92,0,0,1,1383.55,1297.41Zm9.63-13.15a46.62,46.62,0,0,0,12.75,6.76,34.3,34.3,0,0,0,12.61,1.86,27.76,27.76,0,0,0,11.42-3A25.73,25.73,0,0,0,1439,1282a26.12,26.12,0,0,0,4.81-11.07,27.46,27.46,0,0,0-.56-11.84,34.37,34.37,0,0,0-5.58-11.46,46.6,46.6,0,0,0-10.27-10.12A45.27,45.27,0,0,0,1415,1231a35.28,35.28,0,0,0-12.51-1.87,27.8,27.8,0,0,0-11.48,2.94,25.83,25.83,0,0,0-9.23,8,25.52,25.52,0,0,0-4.8,11.16,28,28,0,0,0,.69,11.79,35.09,35.09,0,0,0,5.56,11.37A44.81,44.81,0,0,0,1393.18,1284.26Z" transform="translate(-13.44 -19.47)"/><path class="cls-16" d="M1407,1180.06l14-25.71a46.25,46.25,0,0,1,6.77-9.45,27.83,27.83,0,0,1,8.88-6.48,23.56,23.56,0,0,1,10.89-2,29.09,29.09,0,0,1,12.65,3.9c6.16,3.36,10.36,7.59,12.59,12.74a25.24,25.24,0,0,1,1.13,16.64l48.43.75-8.64,15.88-45.32-2.43-5.23,9.61,36,19.58-7.16,13.16Zm49.62-4a38.48,38.48,0,0,0,2.59-5.91,16.8,16.8,0,0,0,1-6,12,12,0,0,0-1.76-5.76,13.79,13.79,0,0,0-5.51-4.89,11.57,11.57,0,0,0-11.85-.22,15,15,0,0,0-4.38,3.78,34,34,0,0,0-3.3,4.91l-6.48,11.91,23.89,13Z" transform="translate(-13.44 -19.47)"/><path class="cls-16" d="M1478.39,1077.73a18.67,18.67,0,0,0-8,4,18,18,0,0,0-5.52,7.19,18.73,18.73,0,0,0-1.27,5.13,15.37,15.37,0,0,0,.35,5.29,12.29,12.29,0,0,0,2.48,4.79,12.58,12.58,0,0,0,5.12,3.56,12.29,12.29,0,0,0,5.63,1,11.75,11.75,0,0,0,4.9-1.53,21.06,21.06,0,0,0,4.57-3.6c1.5-1.53,3.08-3.25,4.74-5.14,1.94-2.11,4.05-4.28,6.32-6.48a31.67,31.67,0,0,1,7.69-5.46,24.08,24.08,0,0,1,9.57-2.53,26.93,26.93,0,0,1,11.89,2.33,34.16,34.16,0,0,1,11.65,7.43,27.85,27.85,0,0,1,6.42,9.81,27.07,27.07,0,0,1,1.62,11.19,35.9,35.9,0,0,1-2.66,11.63,39.06,39.06,0,0,1-9.28,13.56,31.33,31.33,0,0,1-14.39,8l-6.59-14.24a22.49,22.49,0,0,0,10.32-4.72,20.7,20.7,0,0,0,6.49-8.34,20.35,20.35,0,0,0,1.33-5.24,13.48,13.48,0,0,0-3.26-10.5,14.29,14.29,0,0,0-5.62-3.77,12,12,0,0,0-6.46-1,14.82,14.82,0,0,0-5.62,2.2,28.11,28.11,0,0,0-5.3,4.53l-5.48,5.86a69.18,69.18,0,0,1-5.91,5.81,25.14,25.14,0,0,1-7.26,4.43,24.49,24.49,0,0,1-9,1.66,29.58,29.58,0,0,1-11.28-2.53,28,28,0,0,1-10.76-7.27,26.11,26.11,0,0,1-5.52-9.82,29.66,29.66,0,0,1-1.09-11.1,38.21,38.21,0,0,1,2.65-11.06,35.73,35.73,0,0,1,7.32-11.09,31.52,31.52,0,0,1,11.54-7.7Z" transform="translate(-13.44 -19.47)"/><path class="cls-16" d="M1512.66,998.69a33.43,33.43,0,0,1,11,5.35,31.26,31.26,0,0,1,7.75,8.2,26.8,26.8,0,0,1,3.9,10,23.74,23.74,0,0,1-.58,10.78,24,24,0,0,1-5.19,9.53,27.46,27.46,0,0,1-8.62,6.58,30.53,30.53,0,0,1-10.92,2.95,33,33,0,0,1-12.15-1.23,33.74,33.74,0,0,1-11-5.36,31.35,31.35,0,0,1-7.87-8.3,28.05,28.05,0,0,1-4-10.15,23.62,23.62,0,0,1,.53-10.86,23.25,23.25,0,0,1,5.25-9.45,27.55,27.55,0,0,1,8.71-6.44,32.42,32.42,0,0,1,11-2.86A34.38,34.38,0,0,1,1512.66,998.69Zm-1.17,4.13a28.79,28.79,0,0,0-10.34-1.09,28,28,0,0,0-9.42,2.38,22.94,22.94,0,0,0-7.41,5.39,19.45,19.45,0,0,0-4.4,8,19.82,19.82,0,0,0-.47,9.14,23.42,23.42,0,0,0,3.45,8.58,27.41,27.41,0,0,0,6.73,7,29.16,29.16,0,0,0,9.38,4.52,28.74,28.74,0,0,0,10.21,1,26.23,26.23,0,0,0,9.36-2.48,23.72,23.72,0,0,0,7.39-5.5,19.93,19.93,0,0,0,4.41-8,19.71,19.71,0,0,0,.45-9.08,23.46,23.46,0,0,0-3.42-8.45,26.86,26.86,0,0,0-6.68-7A28.73,28.73,0,0,0,1511.49,1002.82Zm11.78,21L1509,1026l-1,3.31,12.62,3.59-2.31,8.12-34.17-9.7,3.65-12.82a19.4,19.4,0,0,1,1.76-4.2,12.22,12.22,0,0,1,2.89-3.45,9.52,9.52,0,0,1,4.16-1.9,11.5,11.5,0,0,1,5.44.37,10.53,10.53,0,0,1,5.38,3.32,9.59,9.59,0,0,1,2.26,5.28l16.21-3.55Zm-23.45-5.92a2.82,2.82,0,0,0-2.88.6,5.33,5.33,0,0,0-1.55,2.47l-1.24,4.35,7.11,2,1.22-4.35a4.21,4.21,0,0,0-.25-3.1A3.6,3.6,0,0,0,1499.82,1017.92Z" transform="translate(-13.44 -19.47)"/></g></g></svg>