<svg xmlns="http://www.w3.org/2000/svg" viewBox="0 0 513.2 493.06"><defs><style>.cls-1{fill:#7efffa;}.cls-2{fill:#f97f3e;}.cls-3{fill:#0002fb;}.cls-4{fill:#fbfe01;}.cls-5{fill:#fefefe;}.cls-6{fill:#794401;}.cls-7{fill:#007e00;}.cls-8{fill:none;stroke:#000;stroke-width:10px;}</style></defs><g id="sky"><path class="cls-1" d="M103.44,315.17H433.06s25-54-4.84-130.73h0s-54.75-105-167.6-98.71c0,0-83.43,4.85-128.87,66.67,0,0-45.07,50.28-36.13,127,0,0,1.49,21.24,7.82,35.76" transform="translate(-9.26 -8.11)"/></g><g id="sun"><circle class="cls-2" cx="221.26" cy="326.24" r="70.53"/><path class="cls-2" d="M321.33,338A90.33,90.33,0,1,1,231,247.67,90.33,90.33,0,0,1,321.33,338Zm-90.16-83.67a81.17,81.17,0,1,0,81.16,81.17A81.17,81.17,0,0,0,231.17,254.33Z" transform="translate(-9.26 -8.11)"/></g><g id="water"><path class="cls-3" d="M103.07,312.57H435.3S419.66,361.73,394,380c0,0-66.3-41.72-178.78-41.35,0,0-40.6,2.24-92.74,18.25C122.44,356.88,104.93,326.35,103.07,312.57Z" transform="translate(-9.26 -8.11)"/></g><g id="reflection"><path class="cls-4" d="M142.55,312.56H315.74c6.42,0,15.95,6.34,15.9,13.36,0,3.39-2.9,5.88-3,9.21-.13,5.28,4.81,8.05,8.59,10.68,4.41,3.07,7.89,8.09,6.81,13.68,0,0-93.86-37.24-184-12.66-1.17.32-3.28-5.8-3.43-6.43a15.15,15.15,0,0,1,0-7.33c.57-2.21,2.37-4.43,2.18-6.77a7.44,7.44,0,0,0-3.32-5.48c-3.24-2.25-7.09-3.33-10.29-5.66C144.5,314.67,143.35,312.57,142.55,312.56Z" transform="translate(-9.26 -8.11)"/></g><g id="sand"><path class="cls-5" d="M121,352.42s73.75-25.33,150.84-14.16c0,0,62.2,6.71,129.62,37.62h0s-46.93,56.61-133.34,59.22C268.07,435.1,170.49,434.36,121,352.42Z" transform="translate(-9.26 -8.11)"/></g><g id="trees"><path class="cls-6" d="M210.34,360.6s20.11,3.36,57-39.1c0,0,41.35-39.86,56.24-92l-9.68,4.1s-9.31,29.42-40.23,67.78C273.65,301.38,243.11,336,210.34,360.6Z" transform="translate(-9.26 -8.11)"/><path class="cls-6" d="M215.55,347.94s21.23-1.86,43.95-70c0,0,9.68-32.4,15.64-77.47L264,210.51s-.75,29.79-19.74,85.29A305.32,305.32,0,0,1,215.55,347.94Z" transform="translate(-9.26 -8.11)"/></g><g id="leaves"><path class="cls-7" d="M285.57,264.14s1.12-32.78,40.23-37.62c0,0,16.38,27.94-19.74,60.71,0,0,51.77-1.49,51.77-54.38,0,0,.74-26.07-27.56-29.79,1.29-6.34-.2-13.64-3.14-19.29-5-9.6-14.77-15.15-24.91-17.94-15.68-4.31-32.27.23-45.06,10.08-18.66,14.36-21,38.92-17.4,60.67,0,0,8.57-49.17,64.06-39.85C303.82,196.73,262.85,221.31,285.57,264.14Z" transform="translate(-9.26 -8.11)"/><path class="cls-7" d="M210,226.89s-5.21-24.95,21.61-39.48c0,0,13.78-4.84,20.85-14.89,0,0,11.55-11.18,26.08-11.92,0,0-8.2-26.07,29.42-35,0,0-19-17.51-48.79,9.31-4.59,4.13-6.88-.76-9.41-4a48.57,48.57,0,0,0-7.69-7.68,52.8,52.8,0,0,0-34.93-11.76c-1.66,0-3.31.17-5,.36,0,0,26.45,10.8,26.07,32,0,0-38.73-12.67-57.35,9.68,0,0,28.3-9.68,48,13C218.9,166.56,182.77,184.06,210,226.89Z" transform="translate(-9.26 -8.11)"/><path class="cls-7" d="M300.1,138.25c2.81-.29,8.8,6,10.54,7.6a54.39,54.39,0,0,1,8.75,10.62,35.11,35.11,0,0,1,3.92,7.48c.72,2.25.55,4.77,1.47,7a29.22,29.22,0,0,0,6.6,9,14.14,14.14,0,0,1,2.56,2.89c2.28,3.9.95,8.88,3.47,12.63s6.36,5.52,10.36,7.21c0,0,14.15,6,26.07,39.48,0,0,8.2,21.6-10,45.43,0,0,34.64-3.72,34.64-52.14,0,0,.37-12.66-14.16-33.52,0,0,17.88-7.45,36.13,14.53,0,0-2.61-35.76-50.28-35.76,0,0-6.33-13.41,22.35-24.21,0,0-14.16-10.05-41.35,9.69C351.12,166.19,332.88,134.9,300.1,138.25Z" transform="translate(-9.26 -8.11)"/></g><g id="Layer_2" data-name="Layer 2"><circle class="cls-8" cx="259.24" cy="252.39" r="176.5"/></g><g id="Layer_10" data-name="Layer 10"><path d="M28.69,157.15c-1,5.61-1.48,8.47,8.61,11.47l45.39,13.46-.44,1.47L23.71,207.49l-.05.17,33.65,10c8.88,2.64,11.32,1.39,13.45-4.83l1.64.48-6,20.28-1.64-.48c1.52-6.69.76-8.89-8.56-11.65l-38-11.29c-5.36,2.26-6.21,3.51-7.23,7l-1.64-.48,4.38-14.76,51.3-20.73,0-.18-28.81-8.54c-9.93-2.95-11.33-.74-13.51,5L21,176.94l6-20.28Z" transform="translate(-9.26 -8.11)"/><path d="M95.21,131.21c1.89,2.24,9.51,13.15,2.64,24.15-5.29,8.47-15.18,10.36-26,3.59-14.12-8.82-12.86-21.2-9-27.3,4.48-7.18,11.83-10.12,22.36-4.71L70.32,150.68c14.08,7.52,21.07,3.29,24.22-1.74,4.24-6.8,1.1-13.32-.63-16.84Zm-17.37,2c-4-1.76-9.59-4.19-13.36,1.84-2.62,4.2-2.42,8.46,3.54,13.88Z" transform="translate(-9.26 -8.11)"/><path d="M124.48,64l.93,1c-1,1.76-.66,2.72.65,6.07l12.32,31.18c1.36,3.54,1.72,4.44,1.19,4.93s-1.08.16-4.22-1.33L114.82,96l7.48,22.64c.81,2.69,1.16,3.72.77,4.09s-1.4.09-4.42-1.27L88.7,107.36c-4.28-1.91-5.6-2.27-7.36-.86l-.93-1L92.2,94.41l.92,1c-1.38,1.55-2.64,3.23-.91,5.07,2.16,2.29,13.87,7,24.78,12.5l-6.33-18.65c-9.4-5.11-10.55-4.89-13.54-2.69l-.93-1,13.29-12.53.93,1c-1.85,2.37-3.3,4.1-1.51,6,1.11,1.18,2.18,1.53,5.57,3.16l18.45,9.08-7.81-20.1A17.56,17.56,0,0,0,122.27,72c-1.48-1.57-3-.6-4.92.56l-.92-1Z" transform="translate(-9.26 -8.11)"/><path d="M148.74,61.56c-1.65-3.2-2.59-4.44-5.39-3a23.81,23.81,0,0,0-2.2,1.24l-.66-1.28q4.83-4.77,9.42-10l.56-.09,3,5.84.25.08c.52-3.1,2.18-8.92,8.34-12.09,7.12-3.67,16.58-.24,22.07,10.4,4.74,9.2,4.82,23.33-6.3,29.06-3.2,1.64-5.89,1.92-9.85.72l3.82,9.39c2.64,5.12,3,4.51,8.78,1.54l.74,1.44-19.36,10-.7-1.36c5.08-3.12,4.53-5,2.76-8.41Zm17,16.46c.95,1.84,6.48,3.34,10.88,1.07,2.64-1.36,9.06-6.58,1.89-20.51-1-1.84-8-14.59-17.78-9.56-2.88,1.48-6.21,6-5.12,9.32Z" transform="translate(-9.26 -8.11)"/><path d="M234.67,40.22c2.14,8.65-1,22.31-14.26,25.59-11.27,2.78-21.35-4.27-24.27-16.07C193.49,39,198.3,27.7,210,24.81,221.45,22,231.54,27.55,234.67,40.22Zm-7.23,4.48c-2.68-10.84-9.49-19.26-17.53-17.27-5.5,1.36-9.19,7.09-6.94,16.18,1.6,6.46,7.58,22,18.06,19.45C225.49,62,230.52,57.19,227.44,44.7Z" transform="translate(-9.26 -8.11)"/><path d="M249.6,29.6c-.26-5.3-2-5.31-3.41-5.24a13.5,13.5,0,0,0-3,.5l-.07-1.44c4.34-1.65,8.76-3.48,13.08-5.49l.45.16.39,8h.18c3.92-6.58,6.89-8.53,10.3-8.69A4.49,4.49,0,0,1,272.57,22c.11,2.25-1.07,4-3.23,4.12-3.14.15-4.19-2.95-6.35-2.85s-5.9,4.79-5.76,7.67l1,20.22c.3,6.21,3.37,6.42,8,6.38l.07,1.35-21.58,1-.06-1.35c4.9-1.13,6.32-1.47,6.08-6.51Z" transform="translate(-9.26 -8.11)"/><path d="M302.38,23.46l-9.05-.86-2.44,25.62c-.26,2.78-.77,8.07,3.8,8.5,2.87.28,4.67-1.54,5.77-2.61l1.07,1.09c-2.52,3.65-7,6.21-11.14,5.81-4.57-.43-8-3.2-7.15-12.16l2.57-27-4.75-.45a.77.77,0,0,1-.3-.66c.1-1.08,2.13-1.43,4.28-3.21,3.74-3.17,5.27-5,9-9.45.63.06.59.51.52,1.23l-1,10.39,9.05.87Z" transform="translate(-9.26 -8.11)"/><path d="M353.71,11.82l22.83,10.65c7.1,3.31,20.84,11.12,14.94,23.76-4.23,9.05-12.24,7.5-16.33,6.68l-.07.16c6.41,4.78,11.1,11.74,7.11,20.31-1.45,3.09-8.33,13.59-26.44,5.14L328.51,65.81l.73-1.55c6.92,3,8.55,2.1,11.25-3.69l16.9-36.21c2.82-6,2.13-7.55-4.4-11ZM347.63,67c-1.41,3-.09,4,4.64,6.24,5.38,2.51,15.59,6.38,20.69-4.55,3.12-6.69.38-11.24-3.25-14.53-2.39-2.11-4.81-3.73-12.64-7.39Zm10.92-23.41,7.79,3.54c2.28,1.06,12.06,5.43,16.59-4.27s-3.23-15.22-9-17.92c-1.71-.8-2.89-1.25-3.7-1.63-1.64-.76-2.33.3-2.9,1.53Z" transform="translate(-9.26 -8.11)"/><path d="M421,106.26c-2.47,1.57-14.31,7.65-24.28-.63-7.68-6.38-8.23-16.43-.07-26.26,10.64-12.81,22.73-9.9,28.27-5.31,6.51,5.41,8.44,13.09,1.67,22.79L405,79c-9.34,13-6.09,20.45-1.52,24.24,6.16,5.12,13.05,2.88,16.77,1.64Zm.36-17.49c2.28-3.72,5.44-8.93,0-13.48-3.81-3.16-8.06-3.53-14.23,1.64Z" transform="translate(-9.26 -8.11)"/><path d="M442.27,148.52c-5.81-.21-7.62-2.33-8.51-3.46s-3.3-4.28,1.49-8.67c-4.4-.75-10.18-2.24-13.27-6.11s-3.33-9.54,1.38-13.3c7-5.6,14.31-1.38,28,6.5l4.29-3.41c5.07-4,3.21-8,1.53-10.08-1.85-2.32-5.25-4-7.43-2.25-1,.84-1.83,2-2.46,2.54a4.07,4.07,0,0,1-5.55-.76,3.93,3.93,0,0,1,.68-5.49c2.82-2.25,10.45-2.92,16.95,5.25,8.36,10.49,1.32,16.1-2.91,19.46l-13.73,10.93c-2,1.63-4.08,3.25-2.45,5.29a6,6,0,0,0,3.86,2.11Zm7.36-23.69c-12-7.83-16.55-5.46-18.94-3.56l-.14.11c-3.31,2.64-3.87,6.42-1.79,9a14.61,14.61,0,0,0,4.74,3.36c2.79,1.34,3.81.88,5.92-.8Z" transform="translate(-9.26 -8.11)"/><path d="M469.09,179.74c-11.35.27-17.43-3.22-20.7-9.74s-2.34-17.66,10.37-24.05c13.19-6.63,24.55-.65,28.92,8a20.26,20.26,0,0,1,1.79,9.78,8.68,8.68,0,0,1-3.89,6.29c-1.85.93-4,.41-5.4-1.92-1.21-2,.19-4.43,1.72-5.8l1.52-1.38c2.09-1.85,3.34-3,1.2-7.24-1.5-3-7.71-9.12-19.53-3.18-9.25,4.65-12.57,13.27-9.18,20,2.91,5.79,7.87,7,13.34,7.7Z" transform="translate(-9.26 -8.11)"/><path d="M470.15,232.52,465.52,214l1.31-.33c1.5,4.17,2.36,5.72,9.08,4l17.29-4.33c5.85-1.46,8.77-4.23,7.57-9-.63-2.53-2.8-5.61-7.88-8.14l-21,5.27c-6.73,1.68-6.75,3.45-6.11,7.83l-1.31.33-4.72-18.86,1.31-.33c1.79,4.57,2.62,5.29,9,3.69l41.12-10.28c2.62-.66,4.46-1.12,3.5-5a9.61,9.61,0,0,0-.5-1.64l1.39-.35c2.12,3.65,4.41,7.62,6.94,11.44l-.15.5-26.37,6.6.05.17c5.13,2,9,5.55,10.3,10.78,2.69,10.74-7.68,13.43-11.17,14.3l-17.38,4.35c-6.37,1.59-6.59,2.58-6.28,7.14Z" transform="translate(-9.26 -8.11)"/><path d="M43.39,251.67a8.7,8.7,0,1,1-8.7-8.7A8.71,8.71,0,0,1,43.39,251.67Z" transform="translate(-9.26 -8.11)"/><path d="M493.68,251.67A8.7,8.7,0,1,1,485,243,8.71,8.71,0,0,1,493.68,251.67Z" transform="translate(-9.26 -8.11)"/></g><g id="Layer_10_copy" data-name="Layer 10 copy"><path d="M39,330.53l-3.44-15.62,1.19-.26c.5,2.26,1,4.27,3.32,3.76a14.94,14.94,0,0,0,3.67-2l5.45-3.83L45.63,296.5l-7.93-1.21a7.35,7.35,0,0,0-2.49,0c-2.62.58-2,3.46-1.7,4.75l-1.19.26L29.65,288.2l1.19-.26a4.2,4.2,0,0,0,2.06,2.82c1.87,1.06,6.85,2,9.86,2.52l33.48,6,.27,1.22L44.38,323.56c-4.13,3-4.63,4-4.22,6.71Zm12.56-19.4,15.62-10.89L48.42,297Z" transform="translate(-9.26 -8.11)"/><path d="M67.09,346.21c5.56-3.7,5.76-6.81,4.75-9.38-1.28-3.21-4.08-3.51-5.63-2.9A5.05,5.05,0,0,0,63,338.12l-1.31,7.81c-.65,3.56-1.5,6.26-5.07,7.68-5.17,2.05-9.55-1.68-11-5.41-1-2.62-.9-5.58-1.61-7.19a1.35,1.35,0,0,0-1.23-1l-.3-.75,9.28-3.69.37.93c-2.87,2-7.61,5.12-5.34,10.83.79,2,2.83,4.35,6.22,3,1.9-.75,2.86-2.49,3.19-4.78l.62-4.16c.65-4.44,1.57-8.52,6-10.27,3.33-1.32,8.25-.37,10.5,5.28,1,2.57.55,4.85.94,5.84a1.37,1.37,0,0,0,1,.73l.25.64-8,3.47Z" transform="translate(-9.26 -8.11)"/><path d="M79.26,370.34c5.08-4.32,4.91-7.44,3.59-9.87-1.64-3-4.46-3-5.92-2.2a5,5,0,0,0-2.71,4.53l-.36,7.91c-.22,3.62-.75,6.4-4.12,8.23-4.89,2.66-9.68-.52-11.6-4.05-1.34-2.48-1.56-5.43-2.46-6.94a1.33,1.33,0,0,0-1.33-.85l-.39-.72,8.77-4.76.48.88c-2.62,2.28-6.94,6-4,11.39,1,1.87,3.33,4,6.53,2.23,1.8-1,2.55-2.81,2.6-5.12l.12-4.21c.11-4.48.55-8.65,4.71-10.9,3.15-1.71,8.14-1.36,11,4,1.31,2.42,1.12,4.74,1.63,5.68a1.33,1.33,0,0,0,1.12.6l.33.61-7.58,4.4Z" transform="translate(-9.26 -8.11)"/><path d="M96,404.42c-5.12,3.73-14.89,5.44-20.51-2.26-4.78-6.54-2.79-15,4.18-20.08,6.36-4.64,15-4.6,20,2.18S103.44,398.94,96,404.42ZM91.12,401c6.4-4.68,10.14-11.37,6.74-16-2.33-3.19-7-4-12.43-.09-3.82,2.79-12.47,10.9-8,17C79.29,404.39,83.73,406.35,91.12,401Z" transform="translate(-9.26 -8.11)"/><path d="M113.42,430.29c-7.59,2.67-12.4,1.67-16-2S92.26,417,99.5,410c7.52-7.32,16.4-5.81,21.13-1a13.88,13.88,0,0,1,3.22,6.15,6.13,6.13,0,0,1-1.33,5.05,2.79,2.79,0,0,1-4-.1c-1.23-1.08-.78-3,0-4.26l.75-1.25c1-1.7,1.63-2.72-.69-5.11-1.62-1.66-7.07-4.41-13.8,2.15-5.27,5.14-5.74,11.63-2.06,15.4,3.15,3.24,6.74,3,10.57,2.23Z" transform="translate(-9.26 -8.11)"/><path d="M113.39,441.38c3.13,2.31,4.2,2.69,7.36-1.18l9.39-11.49c2.38-2.92,1.5-3.73.72-4.36a15.88,15.88,0,0,0-2.1-1.39l.61-.74c3.21,1.22,6.46,2.3,9.75,3.42l.07.31-14.36,17.59c-2.68,3.27-3.12,4.31.07,7.25l-.61.74-11.51-9.41Zm32.47-28.65a3.22,3.22,0,0,1,.47,4.59,3.2,3.2,0,1,1-5-4.05A3.24,3.24,0,0,1,145.86,412.73Z" transform="translate(-9.26 -8.11)"/><path d="M154.12,468.54c-3.91,1.21-5.58.22-6.43-.33s-3.13-2.08-.91-6.13c-3.09.52-7.27.88-10.17-1a6.45,6.45,0,0,1-2-9.19c3.46-5.38,9.22-4.27,20-2.19l2.11-3.29c2.49-3.88.38-6.06-1.2-7.08-1.74-1.11-4.37-1.43-5.44.24-.52.81-.77,1.78-1.08,2.27a2.87,2.87,0,0,1-3.87.79,2.79,2.79,0,0,1-.75-3.83c1.39-2.15,6.32-4.38,12.44-.45,7.87,5,4.42,10.43,2.34,13.66l-6.73,10.5c-1,1.56-2,3.12-.47,4.1a4.14,4.14,0,0,0,3,.51ZM153.81,451c-9.7-2.42-12.21.22-13.39,2.05l-.07.11c-1.62,2.53-1.16,5.18.79,6.43a10,10,0,0,0,3.9,1.13c2.15.25,2.73-.3,3.76-1.91Z" transform="translate(-9.26 -8.11)"/><path d="M183.48,456l-5.69-2.78-8,16.44c-.87,1.78-2.53,5.17.34,6.57a4.88,4.88,0,0,0,4.42-.33l.43,1c-2.56,1.81-6.14,2.42-8.73,1.15-2.88-1.41-4.43-4.09-1.62-9.84l8.46-17.3-3-1.46a.53.53,0,0,1,0-.51c.34-.69,1.75-.43,3.6-1.09a47,47,0,0,0,8.28-4.07c.39.19.25.48,0,.94l-3.26,6.67,5.69,2.78Z" transform="translate(-9.26 -8.11)"/><path d="M179,482.07c3.71,1.19,4.84,1.21,6.6-3.46l5.22-13.89c1.33-3.54.24-4-.7-4.37a15.17,15.17,0,0,0-2.44-.64l.34-.9c3.43.13,6.85.12,10.34.13l.16.27-8,21.25c-1.49,4-1.57,5.08,2.39,6.85l-.34.89L178.61,483Zm21.62-37.52a3.21,3.21,0,0,1,1.9,4.2,3.2,3.2,0,1,1-6-2.25A3.24,3.24,0,0,1,200.57,444.55Z" transform="translate(-9.26 -8.11)"/><path d="M230.76,483.32c-1.47,6.16-7.81,13.78-17.09,11.57-7.87-1.88-11.83-9.6-9.82-18,1.83-7.66,8.45-13.24,16.63-11.29C228.47,467.51,232.91,474.29,230.76,483.32Zm-5.92.49c1.84-7.72.35-15.24-5.26-16.58-3.85-.92-8,1.51-9.52,8-1.1,4.61-2.44,16.39,4.89,18.14C218.06,494.09,222.71,492.71,224.84,483.81Z" transform="translate(-9.26 -8.11)"/><path d="M241,477.58c.33-4-.86-4.17-1.86-4.25a5,5,0,0,0-1.83.1l.09-1.08c2.88-.6,5.89-1.32,8.86-2.17l.42.16-.4,5c3.3-2.69,5.85-4.73,9.54-4.43,2.88.23,7.18,2.31,6.55,10.15l-1.18,14.6c-.24,3,.43,4,3.48,4.52l-.08.95-13-1,.08-1c2.33,0,4-.19,4.37-5l1.08-13.33c.31-3.88-.63-6.27-4.32-6.57-1.88-.15-3.92,1-6.48,3.14l-1.45,17.92c-.17,2.1.63,3.19,3.86,3.64l-.07,1-13.26-1.07.08-.95c3,0,4-.71,4.26-4.47Z" transform="translate(-9.26 -8.11)"/><path d="M318.07,481.17c1,6.26-1.92,15.73-11.34,17.25-8,1.28-14.6-4.33-16-12.86-1.25-7.77,2.72-15.47,11-16.8C309.9,467.46,316.6,472,318.07,481.17Zm-5.28,2.73c-1.26-7.83-5.52-14.21-11.22-13.29-3.9.62-6.78,4.45-5.73,11,.75,4.68,4.05,16.07,11.48,14.88C310.48,496,314.24,492.93,312.79,483.9Z" transform="translate(-9.26 -8.11)"/><path d="M338,462.63l-7.33,2.2,5.78,19.24c1.12,3.74,1.66,5.31,7.22,3.77l.28.92-15.62,4.69-.28-.92c3.91-1.37,4.77-2.23,3.35-6.95l-5.78-19.24-4.92,1.48-.59-2,4.93-1.48c-1-3.43-4.29-14.27,6.53-17.52,3.36-1,6.5-.15,7.13,1.93a2.6,2.6,0,0,1-1.81,3.35c-2.53.76-4.21-3.75-7-2.9-3.31,1-2.65,4.27-2,6.54l2.13,7.11,7.39-2.22Z" transform="translate(-9.26 -8.11)"/><path d="M406.86,457.61l-8.71,5.13-22.86-9.39-3,1.89,6.4,10.86c2.17,3.69,3.33,4.42,7.78,2.09l.62,1.05-15,8.82-.62-1.05c4.22-2.85,3.75-4.14,1.32-8.27l-14.07-23.86c-2.41-4.08-3.51-4.1-7.52-2.25l-.62-1.05,14.92-8.79c4.81-2.84,14.41-6.94,19.41,1.55,4.35,7.38-1.89,12.85-4.32,15L400,456.74a6.9,6.9,0,0,0,6.23-.18Zm-35.74-4.41c4.51-2.73,12.55-7.62,7.91-15.5-4.32-7.33-11.5-3.32-13.72-2-2.86,1.68-3.12,2.36-2.18,3.95Z" transform="translate(-9.26 -8.11)"/><path d="M425,429.16c.8,1.93,3.6,10.93-3.32,16.73-5.34,4.48-12.36,3.52-18.2-3.44-7.6-9.06-4.15-17.05-.31-20.28,4.52-3.79,10.07-4.1,16,1.88l-14.95,12.53c7.85,8.2,13.43,6.94,16.6,4.28,4.28-3.59,3.55-8.65,3.14-11.4ZM413,426.59c-2.31-2.07-5.55-4.95-9.34-1.77-2.65,2.22-3.41,5.12-.56,10.08Z" transform="translate(-9.26 -8.11)"/><path d="M452.84,410.32c.54,4.06-.72,5.54-1.39,6.28s-2.58,2.74-6.2-.13c0,3.14-.35,7.32-2.67,9.87a6.44,6.44,0,0,1-9.39.45c-4.74-4.31-2.67-9.81,1.18-20.13L431.48,404c-3.4-3.1-5.91-1.39-7.18,0-1.39,1.54-2.14,4.07-.67,5.41.71.64,1.63,1.06,2.05,1.45a2.84,2.84,0,0,1,.14,3.93,2.78,2.78,0,0,1-3.9.11c-1.89-1.73-3.27-7,1.63-12.35,6.29-6.91,11-2.61,13.86,0l9.23,8.39c1.37,1.25,2.74,2.5,4,1.15a4.19,4.19,0,0,0,1-2.9Zm-17.34-2.63c-4,9.16-1.82,12.08-.21,13.55l.1.08c2.22,2,4.91,2,6.47.3a10.08,10.08,0,0,0,1.77-3.65c.6-2.09.16-2.74-1.26-4Z" transform="translate(-9.26 -8.11)"/><path d="M457.76,406.21c2-3.15,1.95-4.55-.9-6.61l-24.74-17.87c-2.33-1.68-3.38-2-4.82,0-.47.66-.75,1.15-1.14,1.8l-.83-.6c1.27-3.18,2.49-6.4,3.56-9.73l.25-.13,31,22.36c3,2.17,4,1.61,6.33-1.23l.78.56-8.67,12Z" transform="translate(-9.26 -8.11)"/><path d="M455.87,362.11l-3.23,5.45,15.75,9.32c1.7,1,4.95,2.93,6.58.18a4.91,4.91,0,0,0,0-4.43l1-.35c1.61,2.7,1.92,6.31.45,8.79-1.63,2.76-4.42,4.09-9.93.83L450,372.1l-1.7,2.86a.54.54,0,0,1-.51,0c-.66-.39-.29-1.78-.79-3.68a47.6,47.6,0,0,0-3.41-8.57c.23-.38.5-.22.94,0l6.39,3.78,3.23-5.45Z" transform="translate(-9.26 -8.11)"/><path d="M480.82,337.33c5.8,2.55,12.17,10.16,8.33,18.88-3.27,7.41-11.57,9.92-19.48,6.44-7.2-3.17-11.51-10.69-8.12-18.38C464.86,336.75,472.33,333.59,480.82,337.33Zm-.57,5.92c-7.26-3.2-14.93-3.08-17.26,2.2-1.59,3.61.06,8.11,6.15,10.79,4.33,1.91,15.69,5.34,18.72-1.55C489.15,351.76,488.62,346.93,480.25,343.25Z" transform="translate(-9.26 -8.11)"/><path d="M477.23,326c-3.62-1.08-4,.05-4.3,1a8.83,8.83,0,0,0-.36,2.12l-1-.3c-.1-3.23-.31-6.57-.66-9.88l.21-.26,5.45,1.62,0-.12c-3.51-4.12-4.13-6.53-3.46-8.82a3.17,3.17,0,0,1,4.28-2.26c1.53.45,2.45,1.64,2,3.09-.63,2.1-2.95,2.06-3.38,3.51s1.85,5,3.82,5.58l13.8,4.1c4.23,1.25,5.08-.72,6.11-3.75l.92.27-4.28,14.44-.92-.28c.37-3.49.47-4.5-3-5.52Z" transform="translate(-9.26 -8.11)"/><path d="M487.1,289.66c-6.67.21-8.49,2.75-9,5.47-.61,3.39,1.62,5.13,3.25,5.42a5,5,0,0,0,4.95-1.86l5.22-5.94c2.43-2.69,4.58-4.54,8.36-3.86,5.48,1,7.23,6.45,6.52,10.4-.49,2.78-2.17,5.22-2.41,7a1.35,1.35,0,0,0,.51,1.5l-.14.8-9.83-1.76.18-1c3.47-.15,9.16-.34,10.24-6.39.38-2.1-.11-5.19-3.7-5.83-2-.36-3.75.61-5.24,2.38l-2.72,3.21c-2.88,3.44-5.82,6.41-10.48,5.58-3.53-.63-7.21-4-6.14-10,.49-2.71,2.09-4.4,2.28-5.45a1.36,1.36,0,0,0-.51-1.18l.12-.68,8.67,1.3Z" transform="translate(-9.26 -8.11)"/></g></svg>