<svg id="Layer_1" data-name="Layer 1" xmlns="http://www.w3.org/2000/svg" viewBox="0 0 217.07 66.25"><defs><style>.cls-1{fill:#1c76bc;}.cls-2{fill:#f69322;}</style></defs><path class="cls-1" d="M97.79,28a5.21,5.21,0,0,1,5.3,5.52,5.3,5.3,0,1,1-10.6,0A5.21,5.21,0,0,1,97.79,28Zm0,1.18c-2.4,0-3.92,1.84-3.92,4.34s1.52,4.35,3.92,4.35,3.93-1.86,3.93-4.35S100.18,29.17,97.79,29.17Z" transform="translate(-9.62 -6.15)"/><path class="cls-1" d="M108.64,34.6h-2.13v4.25h-1.33V28.16h4.3a3.11,3.11,0,0,1,3.34,3.22,3,3,0,0,1-2.77,3.11l2.89,4.36h-1.57Zm.67-5.25h-2.8v4.08h2.8a2,2,0,1,0,0-4.08Z" transform="translate(-9.62 -6.15)"/><path class="cls-1" d="M121.65,36.48h-5.41l-.95,2.37h-1.47l4.29-10.69h1.65l4.31,10.69H122.6Zm-5-1.19h4.63L119,29.35Z" transform="translate(-9.62 -6.15)"/><path class="cls-1" d="M126.8,30.23v8.62h-1.33V28.16h1.36L133,36.61V28.16h1.33V38.85H133Z" transform="translate(-9.62 -6.15)"/><path class="cls-1" d="M141.88,28A5.1,5.1,0,0,1,146,30l-1.06.66a3.92,3.92,0,0,0-3.09-1.48,4.11,4.11,0,0,0-4.12,4.34,4.13,4.13,0,0,0,4.12,4.36,4.22,4.22,0,0,0,2.87-1.15V34.54h-3.67V33.35h5v3.86a5.57,5.57,0,0,1-4.2,1.85,5.37,5.37,0,0,1-5.5-5.55A5.35,5.35,0,0,1,141.88,28Z" transform="translate(-9.62 -6.15)"/><path class="cls-1" d="M148.24,28.16h7v1.19h-5.67v3.44h5.56V34h-5.56v3.68h5.67v1.19h-7Z" transform="translate(-9.62 -6.15)"/><path class="cls-1" d="M161.06,33.51A5.33,5.33,0,0,1,166.51,28a4.8,4.8,0,0,1,4.1,2.11l-1.12.63a3.62,3.62,0,0,0-3-1.56,4.1,4.1,0,0,0-4.07,4.34,4.11,4.11,0,0,0,4.07,4.35,3.6,3.6,0,0,0,3-1.56l1.14.63A4.88,4.88,0,0,1,166.51,39,5.33,5.33,0,0,1,161.06,33.51Z" transform="translate(-9.62 -6.15)"/><path class="cls-1" d="M177.2,28a5.21,5.21,0,0,1,5.3,5.52,5.3,5.3,0,1,1-10.6,0A5.21,5.21,0,0,1,177.2,28Zm0,1.18c-2.4,0-3.92,1.84-3.92,4.34s1.52,4.35,3.92,4.35,3.93-1.86,3.93-4.35S179.59,29.17,177.2,29.17Z" transform="translate(-9.62 -6.15)"/><path class="cls-1" d="M184.59,28.16h1.33v6.51c0,1.95,1.06,3.19,3,3.19s3-1.24,3-3.19V28.16h1.33v6.52c0,2.66-1.46,4.36-4.36,4.36s-4.36-1.71-4.36-4.34Z" transform="translate(-9.62 -6.15)"/><path class="cls-1" d="M197.14,30.23v8.62h-1.33V28.16h1.36l6.15,8.45V28.16h1.33V38.85h-1.28Z" transform="translate(-9.62 -6.15)"/><path class="cls-1" d="M209.8,29.35h-3.38V28.16h8.11v1.19h-3.4v9.5H209.8Z" transform="translate(-9.62 -6.15)"/><path class="cls-1" d="M219.4,34.33l-4.22-6.17h1.56l3.32,5,3.31-5h1.56l-4.2,6.17v4.52H219.4Z" transform="translate(-9.62 -6.15)"/><path class="cls-1" d="M100.12,54.23H97.4v6.24H93.7V43.08h8.14a6.42,6.42,0,0,1,3.1.71,5,5,0,0,1,2,2,5.87,5.87,0,0,1,.71,2.89,5.24,5.24,0,0,1-1.11,3.47,4.83,4.83,0,0,1-2.7,1.69l3.91,6.63h-4.25Zm3-7.46a2.55,2.55,0,0,0-1.86-.72H97.4v5.21h3.89a2.55,2.55,0,0,0,1.86-.72,2.74,2.74,0,0,0,0-3.77Z" transform="translate(-9.62 -6.15)"/><path class="cls-1" d="M110.47,43.08h12.3v3h-8.6v4h8.42v3h-8.42v4.48h8.6v3h-12.3Z" transform="translate(-9.62 -6.15)"/><path class="cls-1" d="M136.75,57.47H129l-1.1,3h-4.06l6.72-17.39h4.64l6.7,17.39h-4Zm-6.87-3h5.85l-2.87-8Z" transform="translate(-9.62 -6.15)"/><path class="cls-1" d="M143.5,43.08h3.7V57.49h7.36v3H143.5Z" transform="translate(-9.62 -6.15)"/><path class="cls-1" d="M158.55,46.05h-5.09v-3h13.87v3h-5.06V60.47h-3.72Z" transform="translate(-9.62 -6.15)"/><path class="cls-1" d="M169.42,47.16A8.47,8.47,0,0,1,172.66,44,10,10,0,0,1,182,44a8.47,8.47,0,0,1,3.24,3.21,9.69,9.69,0,0,1,0,9.27A8.33,8.33,0,0,1,182,59.64a9.91,9.91,0,0,1-9.34,0,8.33,8.33,0,0,1-3.24-3.21,9.77,9.77,0,0,1,0-9.27ZM182,48.71a5.17,5.17,0,0,0-1.86-2.16,5,5,0,0,0-2.78-.79,4.91,4.91,0,0,0-2.77.79,5.15,5.15,0,0,0-1.85,2.16,7.21,7.21,0,0,0-.65,3.09,7.13,7.13,0,0,0,.65,3.08,5.24,5.24,0,0,0,1.85,2.17,5,5,0,0,0,2.77.78,5,5,0,0,0,2.78-.78A5.26,5.26,0,0,0,182,54.88a7.13,7.13,0,0,0,.65-3.08A7.21,7.21,0,0,0,182,48.71Z" transform="translate(-9.62 -6.15)"/><path class="cls-1" d="M195.44,54.23h-2.71v6.24H189V43.08h8.13a6.39,6.39,0,0,1,3.1.71,5,5,0,0,1,2,2,5.86,5.86,0,0,1,.7,2.89,5.24,5.24,0,0,1-1.11,3.47,4.83,4.83,0,0,1-2.7,1.69l3.92,6.63h-4.25Zm3-7.46a2.59,2.59,0,0,0-1.87-.72h-3.88v5.21h3.88a2.59,2.59,0,0,0,1.87-.72,2.77,2.77,0,0,0,0-3.77Z" transform="translate(-9.62 -6.15)"/><path class="cls-1" d="M206.63,55.49A7.68,7.68,0,0,0,209,57.18a7.25,7.25,0,0,0,3.11.65,3.29,3.29,0,0,0,2.23-.69,2.14,2.14,0,0,0,.8-1.67,1.82,1.82,0,0,0-.86-1.62,10.87,10.87,0,0,0-2.66-1.05,29.25,29.25,0,0,1-3.31-.89,5.5,5.5,0,0,1-2.23-1.45,3.71,3.71,0,0,1-1-2.7,4.2,4.2,0,0,1,.8-2.52,5.43,5.43,0,0,1,2.31-1.8,8.75,8.75,0,0,1,3.48-.65A10.11,10.11,0,0,1,218.54,45l-2.06,2.64a7.06,7.06,0,0,0-2.33-1.42,7.69,7.69,0,0,0-2.65-.48,3,3,0,0,0-1.89.52,1.68,1.68,0,0,0-.66,1.39,1.32,1.32,0,0,0,.8,1.27,14.06,14.06,0,0,0,2.66.89,24.37,24.37,0,0,1,3.3,1A5.79,5.79,0,0,1,218,52.36a4.17,4.17,0,0,1,1,2.85,5.08,5.08,0,0,1-1.78,4A7.7,7.7,0,0,1,212,60.81a10.45,10.45,0,0,1-7.38-2.55Z" transform="translate(-9.62 -6.15)"/><path class="cls-1" d="M221.85,47.5a3.28,3.28,0,0,1-1.17-1.17,3.27,3.27,0,0,1,0-3.24,3.23,3.23,0,0,1,1.17-1.18,3.27,3.27,0,0,1,3.24,0,3.23,3.23,0,0,1,1.17,1.18,3.27,3.27,0,0,1,0,3.24,3.28,3.28,0,0,1-1.17,1.17,3.2,3.2,0,0,1-3.24,0Zm.24-5.1a2.56,2.56,0,0,0-1,1,2.51,2.51,0,0,0-.37,1.34A2.47,2.47,0,0,0,221.1,46a2.63,2.63,0,0,0,1,1,2.74,2.74,0,0,0,2.75,0,2.79,2.79,0,0,0,1-1,2.47,2.47,0,0,0,.37-1.33,2.51,2.51,0,0,0-.37-1.34,2.78,2.78,0,0,0-3.74-1Zm1.3,2.71h-.64v1.46h-.51V42.88h1.5a1.2,1.2,0,0,1,.85.31,1,1,0,0,1,.35.81,1.08,1.08,0,0,1-.17.62,1,1,0,0,1-.4.36.91.91,0,0,1-.37.12l1,1.47h-.64Zm-.64-1.67v1.11h1a.71.71,0,0,0,.47-.16.47.47,0,0,0,.2-.38.52.52,0,0,0-.2-.42.75.75,0,0,0-.47-.15Z" transform="translate(-9.62 -6.15)"/><path class="cls-1" d="M96.69,70.13,95.52,72.3h-1l3.94-7.1h1.07l1.07,7.1h-.9l-.33-2.17Zm2.66-.76c-.24-1.67-.4-2.81-.45-3.38h0c-.31.63-1,1.85-1.8,3.38Z" transform="translate(-9.62 -6.15)"/><path class="cls-1" d="M102.42,70.75a1,1,0,0,0,1.2,1c.7,0,1.06-.35,1.06-.84s-.34-.71-1.08-1c-1.11-.38-1.45-.77-1.45-1.37,0-.81.62-1.5,1.87-1.5s1.83.75,1.81,1.49H105c0-.36-.21-.82-1-.82-.54,0-.93.27-.93.74s.3.53,1,.79c1.08.39,1.52.83,1.52,1.54,0,1-.83,1.63-2.06,1.63s-2-.68-2-1.65Z" transform="translate(-9.62 -6.15)"/><path class="cls-1" d="M107.17,70.75c0,.53.37,1,1.2,1s1.06-.35,1.06-.84-.35-.71-1.08-1c-1.11-.38-1.45-.77-1.45-1.37,0-.81.61-1.5,1.87-1.5s1.83.75,1.81,1.49h-.85c0-.36-.21-.82-1-.82-.54,0-.93.27-.93.74s.29.53,1,.79c1.08.39,1.52.83,1.52,1.54,0,1-.83,1.63-2.06,1.63s-2-.68-2-1.65Z" transform="translate(-9.62 -6.15)"/><path class="cls-1" d="M115.87,69.16c0,1.37-.76,3.24-2.75,3.24a1.83,1.83,0,0,1-1.94-2.08c0-1.44.87-3.29,2.73-3.29A1.88,1.88,0,0,1,115.87,69.16Zm-3.82,1.15c0,.87.41,1.39,1.16,1.39,1.24,0,1.79-1.48,1.79-2.57,0-.87-.37-1.4-1.17-1.4C112.64,67.73,112.05,69.21,112.05,70.31Z" transform="translate(-9.62 -6.15)"/><path class="cls-1" d="M120.83,70.75a2.26,2.26,0,0,1-2.29,1.65,1.79,1.79,0,0,1-1.88-2c0-1.56.87-3.35,2.67-3.35a1.62,1.62,0,0,1,1.81,1.75h-.83c0-.58-.27-1.06-1-1.06-1.2,0-1.74,1.48-1.74,2.6s.44,1.39,1.12,1.39a1.48,1.48,0,0,0,1.33-1Z" transform="translate(-9.62 -6.15)"/><path class="cls-1" d="M122.71,67.13h.84l-1.1,5.17h-.83Zm.49-2.31H124l-.23,1.11H123Z" transform="translate(-9.62 -6.15)"/><path class="cls-1" d="M128.08,71c-.09.44-.22,1.08-.25,1.29H127c0-.2.07-.51.13-.8a1.82,1.82,0,0,1-1.75.9A1.27,1.27,0,0,1,124,71.1c0-1.47,1.38-1.8,2.42-1.9.54,0,1,0,1.25,0l.07-.35c.09-.49.06-1.12-.93-1.12a1.17,1.17,0,0,0-1.26.86h-.87a2,2,0,0,1,2.2-1.51c1.19,0,2,.54,1.7,1.77Zm-.57-1.24c-.28,0-.62,0-1.06.06-.84.08-1.58.32-1.58,1.14a.72.72,0,0,0,.82.73c1.13,0,1.57-.88,1.8-1.85Z" transform="translate(-9.62 -6.15)"/><path class="cls-1" d="M129.71,67.13h.86l.32-1.49h.84l-.32,1.49h1.1l-.15.69h-1.1L130.6,71c-.1.47-.08.71.37.71a2.21,2.21,0,0,0,.51,0l-.15.67a2.24,2.24,0,0,1-.72.08c-.81,0-1.07-.39-.89-1.25l.69-3.29h-.86Z" transform="translate(-9.62 -6.15)"/><path class="cls-1" d="M133.52,67.13h.84l-1.1,5.17h-.83Zm.49-2.31h.84l-.23,1.11h-.85Z" transform="translate(-9.62 -6.15)"/><path class="cls-1" d="M139.64,69.16c0,1.37-.76,3.24-2.75,3.24A1.84,1.84,0,0,1,135,70.32c0-1.44.87-3.29,2.74-3.29A1.88,1.88,0,0,1,139.64,69.16Zm-3.82,1.15c0,.87.41,1.39,1.16,1.39,1.25,0,1.8-1.48,1.8-2.57,0-.87-.38-1.4-1.18-1.4C136.41,67.73,135.82,69.21,135.82,70.31Z" transform="translate(-9.62 -6.15)"/><path class="cls-1" d="M141.07,68.45c.09-.45.17-.89.25-1.32h.83c0,.16-.12.75-.15.88a1.91,1.91,0,0,1,1.73-1c1,0,1.6.57,1.28,2l-.67,3.23h-.85l.68-3.21c.17-.78,0-1.32-.8-1.32-1,0-1.51.89-1.73,1.94l-.55,2.59h-.84Z" transform="translate(-9.62 -6.15)"/><path class="cls-1" d="M153.3,69.16c0,1.37-.77,3.24-2.75,3.24a1.83,1.83,0,0,1-1.94-2.08c0-1.44.87-3.29,2.73-3.29A1.89,1.89,0,0,1,153.3,69.16Zm-3.82,1.15c0,.87.4,1.39,1.16,1.39,1.24,0,1.79-1.48,1.79-2.57,0-.87-.38-1.4-1.17-1.4C150.07,67.73,149.48,69.21,149.48,70.31Z" transform="translate(-9.62 -6.15)"/><path class="cls-1" d="M154.09,72.31l.94-4.48h-.83l.17-.69h.81l.17-.74c.2-1,.7-1.68,1.72-1.68a2.11,2.11,0,0,1,.6.08l-.16.72a1.93,1.93,0,0,0-.42,0c-.49,0-.77.32-.9.94l-.16.73h1l-.16.69h-1l-.94,4.48Z" transform="translate(-9.62 -6.15)"/><path class="cls-1" d="M161,65.2h2.26a1.89,1.89,0,0,1,2.16,1.89c0,1.54-1.14,2.28-2.74,2.28H161l-.61,2.93h-.88Zm.15,3.43h1.53c1.1,0,1.81-.43,1.81-1.49,0-.83-.55-1.19-1.45-1.19h-1.32Z" transform="translate(-9.62 -6.15)"/><path class="cls-1" d="M168.93,67.91a2.24,2.24,0,0,0-2,2l-.52,2.42h-.83l.77-3.64c.1-.51.21-1,.3-1.53h.81a11,11,0,0,1-.19,1.09A2,2,0,0,1,169.11,67Z" transform="translate(-9.62 -6.15)"/><path class="cls-1" d="M173.89,69.16c0,1.37-.76,3.24-2.75,3.24a1.84,1.84,0,0,1-1.94-2.08c0-1.44.87-3.29,2.73-3.29A1.88,1.88,0,0,1,173.89,69.16Zm-3.82,1.15c0,.87.41,1.39,1.16,1.39,1.24,0,1.8-1.48,1.8-2.57,0-.87-.38-1.4-1.18-1.4C170.66,67.73,170.07,69.21,170.07,70.31Z" transform="translate(-9.62 -6.15)"/><path class="cls-1" d="M174.69,72.31l.93-4.48h-.82l.16-.69h.82l.16-.74c.2-1,.7-1.68,1.72-1.68a2.05,2.05,0,0,1,.6.08l-.16.72a1.86,1.86,0,0,0-.42,0c-.49,0-.76.32-.9.94l-.16.73h1l-.15.69h-1l-.94,4.48Z" transform="translate(-9.62 -6.15)"/><path class="cls-1" d="M178.45,69.84a3.13,3.13,0,0,0,0,.49c0,.88.42,1.37,1.15,1.37a1.4,1.4,0,0,0,1.33-.86h.88a2.32,2.32,0,0,1-2.32,1.56,1.81,1.81,0,0,1-1.89-2.05c0-1.46.79-3.32,2.71-3.32a1.68,1.68,0,0,1,1.84,1.84,3.65,3.65,0,0,1-.13,1Zm2.8-.64a1.63,1.63,0,0,0,0-.38,1,1,0,0,0-1.07-1.11c-.79,0-1.36.54-1.62,1.49Z" transform="translate(-9.62 -6.15)"/><path class="cls-1" d="M183.45,70.75a1,1,0,0,0,1.2,1c.69,0,1.06-.35,1.06-.84s-.35-.71-1.08-1c-1.11-.38-1.45-.77-1.45-1.37,0-.81.61-1.5,1.87-1.5s1.83.75,1.81,1.49H186c0-.36-.21-.82-1-.82-.54,0-.93.27-.93.74s.29.53,1,.79c1.08.39,1.52.83,1.52,1.54,0,1-.83,1.63-2.06,1.63s-1.95-.68-1.95-1.65Z" transform="translate(-9.62 -6.15)"/><path class="cls-1" d="M188.2,70.75c.05.53.37,1,1.2,1s1.06-.35,1.06-.84-.35-.71-1.08-1c-1.11-.38-1.45-.77-1.45-1.37,0-.81.61-1.5,1.87-1.5s1.83.75,1.81,1.49h-.86c0-.36-.2-.82-1-.82-.54,0-.92.27-.92.74s.29.53,1,.79c1.08.39,1.52.83,1.52,1.54,0,1-.83,1.63-2.06,1.63s-1.95-.68-1.95-1.65Z" transform="translate(-9.62 -6.15)"/><path class="cls-1" d="M193.27,67.13h.85L193,72.3h-.84Zm.49-2.31h.85l-.24,1.11h-.84Z" transform="translate(-9.62 -6.15)"/><path class="cls-1" d="M199.4,69.16c0,1.37-.77,3.24-2.76,3.24a1.83,1.83,0,0,1-1.93-2.08c0-1.44.86-3.29,2.73-3.29A1.89,1.89,0,0,1,199.4,69.16Zm-3.83,1.15c0,.87.41,1.39,1.17,1.39,1.24,0,1.79-1.48,1.79-2.57,0-.87-.38-1.4-1.17-1.4C196.16,67.73,195.57,69.21,195.57,70.31Z" transform="translate(-9.62 -6.15)"/><path class="cls-1" d="M200.82,68.45c.09-.45.17-.89.26-1.32h.82c0,.16-.12.75-.15.88a1.91,1.91,0,0,1,1.73-1c1,0,1.6.57,1.29,2l-.68,3.23h-.84l.67-3.21c.17-.78,0-1.32-.8-1.32-1,0-1.5.89-1.73,1.94l-.55,2.59H200Z" transform="translate(-9.62 -6.15)"/><path class="cls-1" d="M209.64,71c-.1.44-.22,1.08-.25,1.29h-.82c0-.2.07-.51.13-.8a1.83,1.83,0,0,1-1.75.9,1.27,1.27,0,0,1-1.42-1.3c0-1.47,1.38-1.8,2.41-1.9.54,0,1,0,1.26,0l.07-.35c.09-.49.06-1.12-.93-1.12a1.17,1.17,0,0,0-1.26.86h-.87a2,2,0,0,1,2.2-1.51c1.19,0,2,.54,1.7,1.77Zm-.57-1.24c-.28,0-.63,0-1.06.06-.84.08-1.58.32-1.58,1.14a.72.72,0,0,0,.82.73c1.13,0,1.57-.88,1.8-1.85Z" transform="translate(-9.62 -6.15)"/><path class="cls-1" d="M210.91,72.3l1.58-7.48h.85l-1.59,7.48Z" transform="translate(-9.62 -6.15)"/><path class="cls-1" d="M214,70.75c.05.53.37,1,1.2,1s1.06-.35,1.06-.84-.35-.71-1.08-1c-1.11-.38-1.45-.77-1.45-1.37,0-.81.61-1.5,1.87-1.5s1.83.75,1.81,1.49h-.85c0-.36-.21-.82-1-.82-.54,0-.93.27-.93.74s.29.53,1,.79c1.08.39,1.52.83,1.52,1.54,0,1-.83,1.63-2.06,1.63s-2-.68-2-1.65Z" transform="translate(-9.62 -6.15)"/><path class="cls-1" d="M77.74,60.11h0c.37-.68.71-1.38,1-2.1h-8V23H54.9V37.42L50.7,34,39.11,43.48V44l-4.35-2.52L23.17,48.12V58H16.42c.17.38.34.74.52,1.11h0l.5,1h7.83V49.33l9.48-5.47,4.35,2.51V60.12h7.23v-12l-5.12-3v-.68L50.7,36.7l4.2,3.44v20h7.38V43.48L57,39.15V25.05H68.69V60.12h9Z" transform="translate(-9.62 -6.15)"/><path class="cls-2" d="M17.45,60.11a33.8,33.8,0,0,1-4-16,34.13,34.13,0,1,1,64.27,16H82a38,38,0,1,0-72.39-16,37.7,37.7,0,0,0,3.55,16Z" transform="translate(-9.62 -6.15)"/></svg>