<svg id="Layer_1" data-name="Layer 1" xmlns="http://www.w3.org/2000/svg" viewBox="0 0 332.73 79.45"><defs><style>.cls-1{fill:#b32317;}</style></defs><path class="cls-1" d="M247.87,140.46a22.52,22.52,0,0,1-6.77,16.45,22.11,22.11,0,0,1-16.29,6.83h-63.7v32.89H147.85V117.18h77A22.1,22.1,0,0,1,241.1,124,22.5,22.5,0,0,1,247.87,140.46Zm-13.26,0a9.64,9.64,0,0,0-2.85-7,9.27,9.27,0,0,0-6.88-2.91H161.11v19.76h63.77a9.27,9.27,0,0,0,6.88-2.91A9.6,9.6,0,0,0,234.61,140.46Z" transform="translate(-147.85 -117.18)"/><path class="cls-1" d="M373.58,117.18l-26.86,79.45H332.53L311.7,138.49l-20.82,58.14H276.69l-26.86-79.45h14.29l19.72,58.34,19.6-58.34H320l19.6,58.34,19.72-58.34Z" transform="translate(-147.85 -117.18)"/><path class="cls-1" d="M480.58,140.46a22.52,22.52,0,0,1-6.77,16.45,22.22,22.22,0,0,1-16.39,6.83H444.49l33.06,32.89h-19l-33.06-32.89H393.82v32.89H380.56V117.18h76.88A22.21,22.21,0,0,1,473.81,124,22.5,22.5,0,0,1,480.58,140.46Zm-13.26,0a9.57,9.57,0,0,0-2.9-7,9.47,9.47,0,0,0-6.94-2.91H393.82v19.76h63.66a9.92,9.92,0,0,0,9.84-9.88Z" transform="translate(-147.85 -117.18)"/></svg>