<svg id="Layer_1" data-name="Layer 1" xmlns="http://www.w3.org/2000/svg" viewBox="0 0 261.9 103.41"><defs><style>.cls-1{fill:#cfe6ed;}.cls-2{fill:#425968;}.cls-3{fill:#054d52;}.cls-4{fill:none;}</style></defs><rect class="cls-1" x="0.04" width="261.86" height="59.42"/><path class="cls-2" d="M25.09,140.3v6.36H22.94V132.5h3.48a11.17,11.17,0,0,1,2.28.17,3.71,3.71,0,0,1,1.28.55,3.38,3.38,0,0,1,1,1.33,4.5,4.5,0,0,1,.38,1.85,4.57,4.57,0,0,1-.38,1.85,3.28,3.28,0,0,1-1,1.34,3.71,3.71,0,0,1-1.28.55,11.34,11.34,0,0,1-2.28.16H25.09Zm.15-1.89h.59a5.37,5.37,0,0,0,2.56-.41,1.64,1.64,0,0,0,.64-1.47,1.78,1.78,0,0,0-.68-1.59,4.82,4.82,0,0,0-2.52-.47h-.59Z" transform="translate(-14.8 -60.18)"/><path class="cls-2" d="M43.64,146.66,42,143H36.42l-1.64,3.65H32.36l6.86-14.72,6.85,14.72Zm-6.37-5.57h3.95l-1.45-3.23c-.08-.2-.17-.44-.26-.71s-.18-.56-.27-.89c-.08.31-.16.6-.25.86s-.17.52-.26.74Z" transform="translate(-14.8 -60.18)"/><path class="cls-2" d="M48.93,143.83l1.84-.85a2.47,2.47,0,0,0,1,1.44,3,3,0,0,0,1.78.5,2.3,2.3,0,0,0,1.63-.57,2,2,0,0,0,.6-1.53q0-1.24-2.07-2.22l-.44-.22a10.12,10.12,0,0,1-3.12-2.06,3.39,3.39,0,0,1-.78-2.26,3.62,3.62,0,0,1,1.17-2.81,4.37,4.37,0,0,1,3.08-1.08,5.23,5.23,0,0,1,2.62.61,3.17,3.17,0,0,1,1.46,1.74l-1.8.92a2.9,2.9,0,0,0-.93-1,2.14,2.14,0,0,0-1.16-.31,2.09,2.09,0,0,0-1.47.49,1.62,1.62,0,0,0-.55,1.29c0,.85.8,1.65,2.4,2.38l.29.14a8.39,8.39,0,0,1,2.87,1.89,3.44,3.44,0,0,1,.78,2.31,4.16,4.16,0,0,1-1.26,3.19A4.79,4.79,0,0,1,53.41,147a5,5,0,0,1-3-.83A3.93,3.93,0,0,1,48.93,143.83Z" transform="translate(-14.8 -60.18)"/><path class="cls-2" d="M72.31,146.66,70.7,143H65.09l-1.65,3.65H61l6.86-14.72,6.85,14.72Zm-6.37-5.57h4l-1.45-3.23c-.09-.2-.17-.44-.26-.71s-.18-.56-.27-.89c-.08.31-.16.6-.25.86s-.18.52-.27.74Z" transform="translate(-14.8 -60.18)"/><path class="cls-2" d="M78.4,146.66V132.5h3.11a20.69,20.69,0,0,1,4.26.3,6,6,0,0,1,2.16,1,5.92,5.92,0,0,1,1.86,2.41,8.46,8.46,0,0,1,.63,3.36,8.33,8.33,0,0,1-.63,3.34,6,6,0,0,1-1.86,2.4,5.72,5.72,0,0,1-2.12,1,15.61,15.61,0,0,1-3.69.31H78.4Zm2.3-2.08h1.94a9.49,9.49,0,0,0,2.39-.22,3.53,3.53,0,0,0,1.39-.71,4.27,4.27,0,0,0,1.21-1.71,7.25,7.25,0,0,0,0-4.75,4.27,4.27,0,0,0-1.21-1.71,3.61,3.61,0,0,0-1.44-.71,11.69,11.69,0,0,0-2.61-.21H80.7Z" transform="translate(-14.8 -60.18)"/><path class="cls-2" d="M95.13,146.66V132.5H103v2H97.43V138H103v2H97.43v4.57H103v2.06Z" transform="translate(-14.8 -60.18)"/><path class="cls-2" d="M108,146.66V131.94l9,8.65c.24.25.49.51.74.79s.52.59.8.94V132.5h2.12v14.72l-9.17-8.82a10.28,10.28,0,0,1-.71-.76c-.23-.26-.45-.54-.66-.83v9.85Z" transform="translate(-14.8 -60.18)"/><path class="cls-2" d="M135.62,146.66,134,143h-5.61l-1.65,3.65h-2.42l6.86-14.72,6.85,14.72Zm-6.36-5.57h3.94l-1.45-3.23c-.08-.2-.17-.44-.26-.71s-.18-.56-.27-.89c-.08.31-.16.6-.25.86s-.17.52-.26.74Z" transform="translate(-14.8 -60.18)"/><path class="cls-2" d="M141.08,141.13h5.17v1.93h-5.17Z" transform="translate(-14.8 -60.18)"/><path class="cls-2" d="M151.64,146.66V132.5h7.91v2h-5.61V138h5.61v2h-5.61v6.66Z" transform="translate(-14.8 -60.18)"/><path class="cls-2" d="M177.44,139.61a7.25,7.25,0,0,1-.57,2.85,7.11,7.11,0,0,1-1.65,2.4,7.79,7.79,0,0,1-2.46,1.62,7.67,7.67,0,0,1-2.89.56,7.55,7.55,0,0,1-2.91-.57,7.34,7.34,0,0,1-2.46-1.61,7.14,7.14,0,0,1-1.64-2.39,7.37,7.37,0,0,1-.56-2.86,7.45,7.45,0,0,1,.56-2.87,7.32,7.32,0,0,1,1.64-2.41,7.76,7.76,0,0,1,2.46-1.61,7.92,7.92,0,0,1,2.91-.55,7.83,7.83,0,0,1,2.9.55,7.61,7.61,0,0,1,2.45,1.61,7.43,7.43,0,0,1,1.65,2.43A7.25,7.25,0,0,1,177.44,139.61Zm-2.4,0a5.37,5.37,0,0,0-.39-2,5.19,5.19,0,0,0-1.13-1.72,5.1,5.1,0,0,0-5.64-1.15,5.34,5.34,0,0,0-2.8,2.86,5.61,5.61,0,0,0-.38,2.05,5.51,5.51,0,0,0,.38,2,5.24,5.24,0,0,0,1.13,1.72,5,5,0,0,0,3.66,1.54,5.05,5.05,0,0,0,2-.39,5.3,5.3,0,0,0,1.68-1.15,5.3,5.3,0,0,0,1.52-3.75Z" transform="translate(-14.8 -60.18)"/><path class="cls-2" d="M195.45,139.61a7.25,7.25,0,0,1-.57,2.85,7.08,7.08,0,0,1-1.64,2.4,7.63,7.63,0,0,1-5.35,2.18,7.63,7.63,0,0,1-2.92-.57,7.3,7.3,0,0,1-2.45-1.61,7.17,7.17,0,0,1-1.65-2.39,7.37,7.37,0,0,1-.56-2.86,7.45,7.45,0,0,1,.56-2.87,7.35,7.35,0,0,1,1.65-2.41,7.61,7.61,0,0,1,2.45-1.61,7.94,7.94,0,0,1,2.92-.55,7.78,7.78,0,0,1,2.89.55,7.54,7.54,0,0,1,2.46,1.61,7.4,7.4,0,0,1,1.64,2.43A7.25,7.25,0,0,1,195.45,139.61Zm-2.39,0a5.37,5.37,0,0,0-.4-2,5.17,5.17,0,0,0-1.12-1.72,5.1,5.1,0,0,0-5.64-1.15,4.89,4.89,0,0,0-1.68,1.15,5.05,5.05,0,0,0-1.13,1.71,5.61,5.61,0,0,0-.38,2.05,5.51,5.51,0,0,0,.38,2,5.4,5.4,0,0,0,1.13,1.72,5.26,5.26,0,0,0,1.67,1.15,5.17,5.17,0,0,0,2,.39,5.09,5.09,0,0,0,2-.39,5.35,5.35,0,0,0,3.2-4.9Z" transform="translate(-14.8 -60.18)"/><path class="cls-2" d="M204.19,134.46v12.2h-2.31v-12.2h-3.75v-2h9.8v2Z" transform="translate(-14.8 -60.18)"/><path class="cls-2" d="M212,146.66V132.5h2.3v5.23h7V132.5h2.3v14.16h-2.3v-6.88h-7v6.88Z" transform="translate(-14.8 -60.18)"/><path class="cls-2" d="M229.23,146.66V132.5h2.3v14.16Z" transform="translate(-14.8 -60.18)"/><path class="cls-2" d="M237.17,146.66V132.5h2.31v12.1h5.14v2.06Z" transform="translate(-14.8 -60.18)"/><path class="cls-2" d="M248.83,146.66V132.5h2.3v12.1h5.15v2.06Z" transform="translate(-14.8 -60.18)"/><path class="cls-2" d="M259.62,143.83l1.84-.85a2.47,2.47,0,0,0,1,1.44,3,3,0,0,0,1.77.5,2.26,2.26,0,0,0,1.63-.57,2,2,0,0,0,.61-1.53q0-1.24-2.07-2.22l-.44-.22a10.06,10.06,0,0,1-3.13-2.06,3.45,3.45,0,0,1-.78-2.26,3.63,3.63,0,0,1,1.18-2.81,4.37,4.37,0,0,1,3.08-1.08,5.26,5.26,0,0,1,2.62.61,3.17,3.17,0,0,1,1.46,1.74l-1.8.92a2.9,2.9,0,0,0-.93-1,2.17,2.17,0,0,0-1.16-.31,2.13,2.13,0,0,0-1.48.49,1.64,1.64,0,0,0-.54,1.29c0,.85.8,1.65,2.39,2.38l.29.14a8.35,8.35,0,0,1,2.88,1.89,3.44,3.44,0,0,1,.78,2.31,4.16,4.16,0,0,1-1.26,3.19A4.83,4.83,0,0,1,264.1,147a5,5,0,0,1-3-.83A3.91,3.91,0,0,1,259.62,143.83Z" transform="translate(-14.8 -60.18)"/><path class="cls-2" d="M31.3,157.77H25.5l-1.21,2.46H22.77l4.85-9.45h1.6l4.85,9.45H32.52Zm-.53-1.08-2.35-4.76-2.37,4.76Z" transform="translate(-14.8 -60.18)"/><path class="cls-2" d="M43.57,153.29c-.13-1.32-1.48-1.69-3-1.69-1.35,0-2.48.67-2.48,1.72,0,.51.31,1,1.47,1.23l3.52.6c1.54.26,2.24,1.14,2.24,2.3,0,1.89-1.69,3-4.49,3s-4.24-1-4.41-3.08h1.44c0,1.27,1.26,2,3,2,2,0,3.05-.77,3.05-1.8,0-2.62-7.24-.25-7.24-4.2,0-1.82,1.55-2.87,4.13-2.87,2,0,4,.59,4.17,2.76Z" transform="translate(-14.8 -60.18)"/><path class="cls-2" d="M55.53,153.29c-.13-1.32-1.48-1.69-3-1.69-1.35,0-2.48.67-2.48,1.72,0,.51.31,1,1.47,1.23l3.52.6c1.53.26,2.24,1.14,2.24,2.3,0,1.89-1.69,3-4.49,3s-4.24-1-4.41-3.08h1.44c0,1.27,1.26,2,3,2,2,0,3-.77,3-1.8,0-2.62-7.24-.25-7.24-4.2,0-1.82,1.55-2.87,4.13-2.87,2,0,4,.59,4.17,2.76Z" transform="translate(-14.8 -60.18)"/><path class="cls-2" d="M65.65,150.53c4,0,5.31,2.72,5.31,5s-1.35,5-5.31,5-5.32-2.73-5.32-5S61.68,150.53,65.65,150.53Zm0,8.87a3.9,3.9,0,1,0-3.88-3.9A3.69,3.69,0,0,0,65.65,159.4Z" transform="translate(-14.8 -60.18)"/><path class="cls-2" d="M83.34,157.6c-.3,2.08-2.27,2.88-4.58,2.88a4.66,4.66,0,0,1-4.94-5c0-2.25,1.35-5,5.32-5,2.23,0,4,1.13,4.07,2.74H81.69c-.24-1.23-1.35-1.67-2.66-1.67-2.16,0-3.77,1.25-3.77,3.9s1.61,3.9,3.77,3.9c1.3,0,2.55-.57,2.79-1.8Z" transform="translate(-14.8 -60.18)"/><path class="cls-2" d="M86.78,150.78h1.36v9.45H86.78Z" transform="translate(-14.8 -60.18)"/><path class="cls-2" d="M99.72,157.77h-5.8l-1.22,2.46H91.19L96,150.78h1.6l4.85,9.45h-1.56Zm-.53-1.08-2.35-4.76-2.37,4.76Z" transform="translate(-14.8 -60.18)"/><path class="cls-2" d="M107.46,151.93h-4v-1.15h9.37v1.15h-4v8.3h-1.36Z" transform="translate(-14.8 -60.18)"/><path class="cls-2" d="M115.55,150.78h1.36v9.45h-1.36Z" transform="translate(-14.8 -60.18)"/><path class="cls-2" d="M125.77,150.53c4,0,5.31,2.72,5.31,5s-1.35,5-5.31,5-5.31-2.73-5.31-5S121.8,150.53,125.77,150.53Zm0,8.87a3.9,3.9,0,1,0-3.87-3.9A3.69,3.69,0,0,0,125.77,159.4Z" transform="translate(-14.8 -60.18)"/><path class="cls-2" d="M142.34,150.78h1.35v9.45h-1.85l-5.79-8.06h0v8.06h-1.36v-9.45h1.85l5.79,8.06h0Z" transform="translate(-14.8 -60.18)"/><path class="cls-2" d="M156.52,150.53c4,0,5.31,2.72,5.31,5s-1.35,5-5.31,5-5.31-2.73-5.31-5S152.55,150.53,156.52,150.53Zm0,8.87a3.9,3.9,0,1,0-3.87-3.9A3.69,3.69,0,0,0,156.52,159.4Z" transform="translate(-14.8 -60.18)"/><path class="cls-2" d="M165.38,150.78h6.71v1.07h-5.35v3.09h5.09V156h-5.09v4.22h-1.36Z" transform="translate(-14.8 -60.18)"/><path class="cls-2" d="M180.7,160.23h-1.36v-9.45H184c2.92,0,3.57,1,3.57,2.5a2.25,2.25,0,0,1-2.16,2.2v0c1.28.16,1.62.67,1.86,2.27a11.56,11.56,0,0,0,.54,2.46h-1.44c-.25-.67-.39-2-.64-3-.16-.68-.6-1.17-2.38-1.17H180.7Zm0-5.29h3.1c1.44,0,2.32-.34,2.32-1.54s-.63-1.55-2.29-1.55H180.7Z" transform="translate(-14.8 -60.18)"/><path class="cls-2" d="M191.46,150.78h7.06v1.07h-5.7v3h5.33v1.07h-5.33v3.24h5.86v1.08h-7.22Z" transform="translate(-14.8 -60.18)"/><path class="cls-2" d="M209.72,157.77h-5.8l-1.21,2.46h-1.52l4.85-9.45h1.6l4.86,9.45h-1.56Zm-.52-1.08-2.36-4.76-2.37,4.76Z" transform="translate(-14.8 -60.18)"/><path class="cls-2" d="M215.54,150.78h1.36v8.37h5.45v1.08h-6.81Z" transform="translate(-14.8 -60.18)"/><path class="cls-2" d="M226.93,151.93h-4v-1.15h9.37v1.15h-4v8.3h-1.36Z" transform="translate(-14.8 -60.18)"/><path class="cls-2" d="M239.72,150.53c4,0,5.32,2.72,5.32,5s-1.35,5-5.32,5-5.31-2.73-5.31-5S235.76,150.53,239.72,150.53Zm0,8.87a3.9,3.9,0,1,0-3.87-3.9A3.69,3.69,0,0,0,239.72,159.4Z" transform="translate(-14.8 -60.18)"/><path class="cls-2" d="M249.94,160.23h-1.36v-9.45h4.65c2.91,0,3.57,1,3.57,2.5a2.26,2.26,0,0,1-2.16,2.2v0c1.27.16,1.61.67,1.86,2.27a11,11,0,0,0,.54,2.46H255.6c-.25-.67-.4-2-.65-3-.15-.68-.6-1.17-2.38-1.17h-2.63Zm0-5.29H253c1.44,0,2.32-.34,2.32-1.54s-.63-1.55-2.29-1.55h-3.13Z" transform="translate(-14.8 -60.18)"/><path class="cls-2" d="M267.32,153.29c-.13-1.32-1.48-1.69-3-1.69-1.35,0-2.49.67-2.49,1.72,0,.51.32,1,1.48,1.23l3.52.6c1.53.26,2.24,1.14,2.24,2.3,0,1.89-1.69,3-4.49,3s-4.24-1-4.41-3.08h1.44c0,1.27,1.26,2,3,2,2,0,3.05-.77,3.05-1.8,0-2.62-7.24-.25-7.24-4.2,0-1.82,1.55-2.87,4.12-2.87,2,0,4.05.59,4.18,2.76Z" transform="translate(-14.8 -60.18)"/><polygon class="cls-3" points="219.1 28.04 194.95 17.89 160.18 28.04 130.23 13.27 121.53 20.66 112.84 15.12 101.24 22.5 91.58 14.2 77.09 24.35 66.47 20.66 47.15 29.89 21.06 23.43 0.08 32.54 0.08 59.42 261.9 59.42 261.9 22.46 254.85 18.81 219.1 28.04"/><rect class="cls-4" y="0.04" width="261.79" height="59.44"/><rect class="cls-4" y="68.04" width="261.79" height="35.37"/><path class="cls-2" d="M271.92,147.87a2.62,2.62,0,1,1-2.6,2.62,2.58,2.58,0,0,1,2.6-2.62Zm0,.41a2.21,2.21,0,0,0,0,4.42,2.13,2.13,0,0,0,2.09-2.2,2.15,2.15,0,0,0-2.09-2.22Zm-.49,3.73H271v-2.92a5.71,5.71,0,0,1,.82-.07,1.5,1.5,0,0,1,.91.22.75.75,0,0,1-.3,1.31v0c.25,0,.43.28.49.71a2.48,2.48,0,0,0,.18.72h-.49a2.06,2.06,0,0,1-.19-.75.55.55,0,0,0-.63-.51h-.33Zm0-1.62h.34c.38,0,.71-.14.71-.5s-.19-.51-.71-.51a1.52,1.52,0,0,0-.34,0Z" transform="translate(-14.8 -60.18)"/></svg>