<svg id="Layer_1" data-name="Layer 1" xmlns="http://www.w3.org/2000/svg" xmlns:xlink="http://www.w3.org/1999/xlink" viewBox="0 0 559.33 483.86"><defs><style>.cls-1{fill:#dad0ca;}.cls-2{fill:url(#radial-gradient);}.cls-3{fill:url(#radial-gradient-2);}.cls-4{fill:url(#radial-gradient-3);}.cls-5{fill:url(#radial-gradient-4);}.cls-6{fill:url(#radial-gradient-5);}.cls-7{fill:url(#radial-gradient-6);}.cls-8{fill:url(#radial-gradient-7);}.cls-9{fill:url(#radial-gradient-8);}.cls-10{fill:url(#radial-gradient-9);}.cls-11{fill:url(#radial-gradient-10);}.cls-12{fill:url(#radial-gradient-11);}.cls-13{fill:url(#radial-gradient-12);}.cls-14{fill:url(#radial-gradient-13);}.cls-15{fill:url(#radial-gradient-14);}.cls-16{fill:url(#linear-gradient);}.cls-17{fill:#3f230d;}.cls-18{fill:#fff;}.cls-19{fill:#f04e23;}</style><radialGradient id="radial-gradient" cx="485.71" cy="132.91" r="47.82" gradientTransform="matrix(0.91, -0.44, 0.42, 0.95, -199.06, 104.08)" gradientUnits="userSpaceOnUse"><stop offset="0" stop-color="#8e2a05"/><stop offset="0.99" stop-color="#f04e23"/></radialGradient><radialGradient id="radial-gradient-2" cx="443.43" cy="132.92" r="47.81" xlink:href="#radial-gradient"/><radialGradient id="radial-gradient-3" cx="401.17" cy="132.92" r="47.82" xlink:href="#radial-gradient"/><radialGradient id="radial-gradient-4" cx="358.9" cy="132.92" r="47.82" xlink:href="#radial-gradient"/><radialGradient id="radial-gradient-5" cx="316.62" cy="132.92" r="47.81" xlink:href="#radial-gradient"/><radialGradient id="radial-gradient-6" cx="274.35" cy="132.92" r="47.81" xlink:href="#radial-gradient"/><radialGradient id="radial-gradient-7" cx="232.08" cy="132.91" r="47.82" xlink:href="#radial-gradient"/><radialGradient id="radial-gradient-8" cx="428.72" cy="106.69" r="47.81" gradientTransform="matrix(-0.91, -0.44, -0.42, 0.95, 713.04, 104.08)" xlink:href="#radial-gradient"/><radialGradient id="radial-gradient-9" cx="386.45" cy="106.69" r="47.82" gradientTransform="matrix(-0.91, -0.44, -0.42, 0.95, 713.04, 104.08)" xlink:href="#radial-gradient"/><radialGradient id="radial-gradient-10" cx="344.18" cy="106.69" r="47.82" gradientTransform="matrix(-0.91, -0.44, -0.42, 0.95, 713.04, 104.08)" xlink:href="#radial-gradient"/><radialGradient id="radial-gradient-11" cx="301.9" cy="106.69" r="47.82" gradientTransform="matrix(-0.91, -0.44, -0.42, 0.95, 713.04, 104.08)" xlink:href="#radial-gradient"/><radialGradient id="radial-gradient-12" cx="259.64" cy="106.69" r="47.81" gradientTransform="matrix(-0.91, -0.44, -0.42, 0.95, 713.04, 104.08)" xlink:href="#radial-gradient"/><radialGradient id="radial-gradient-13" cx="217.36" cy="106.69" r="47.82" gradientTransform="matrix(-0.91, -0.44, -0.42, 0.95, 713.04, 104.08)" xlink:href="#radial-gradient"/><radialGradient id="radial-gradient-14" cx="175.09" cy="106.69" r="47.82" gradientTransform="matrix(-0.91, -0.44, -0.42, 0.95, 713.04, 104.08)" xlink:href="#radial-gradient"/><linearGradient id="linear-gradient" x1="288.34" y1="58.93" x2="288.34" y2="9.32" gradientTransform="matrix(1, 0, 0, 1, 0, 0)" xlink:href="#radial-gradient"/></defs><polygon class="cls-1" points="18.29 158.48 280.88 55.34 541.56 158.73 279.67 22.18 18.29 158.48"/><path class="cls-2" d="M281.08,25.32c3.19,7.29,14.47,9.5,7.51,12.85l-30,14.46a13.61,13.61,0,0,1-18.4-7.13h0A14.82,14.82,0,0,1,247,26.23l30-14.45c6.95-3.36.87,6.25,4.08,13.54Z" transform="translate(-8.67 -5.69)"/><path class="cls-3" d="M242.7,43.82c3.2,7.28,14.47,9.49,7.52,12.84l-30,14.46A13.62,13.62,0,0,1,201.81,64h0a14.82,14.82,0,0,1,6.81-19.27l30-14.46c7-3.35.88,6.26,4.09,13.55Z" transform="translate(-8.67 -5.69)"/><path class="cls-4" d="M204.32,62.31c3.21,7.28,14.48,9.49,7.53,12.85l-30,14.46a13.61,13.61,0,0,1-18.39-7.13h0a14.81,14.81,0,0,1,6.79-19.27l30-14.46c7-3.35.88,6.26,4.08,13.55Z" transform="translate(-8.67 -5.69)"/><path class="cls-5" d="M166,80.8c3.2,7.29,14.48,9.5,7.52,12.85l-30,14.46A13.64,13.64,0,0,1,125.06,101h0a14.82,14.82,0,0,1,6.8-19.27l30-14.46c7-3.35.88,6.25,4.08,13.54Z" transform="translate(-8.67 -5.69)"/><path class="cls-6" d="M127.57,99.3c3.2,7.28,14.48,9.48,7.53,12.84l-30,14.46a13.6,13.6,0,0,1-18.39-7.12h0a14.8,14.8,0,0,1,6.8-19.27l30-14.46c7-3.35.88,6.26,4.08,13.55Z" transform="translate(-8.67 -5.69)"/><path class="cls-7" d="M89.19,117.79c3.2,7.28,14.49,9.49,7.53,12.85l-30,14.46A13.6,13.6,0,0,1,48.32,138h0a14.79,14.79,0,0,1,6.8-19.26l30-14.46c7-3.36.87,6.25,4.07,13.54Z" transform="translate(-8.67 -5.69)"/><path class="cls-8" d="M50.83,136.29c3.2,7.28,14.47,9.49,7.51,12.84l-30,14.46a13.62,13.62,0,0,1-18.4-7.12h0a14.83,14.83,0,0,1,6.8-19.27l30-14.47c7-3.34.87,6.26,4.08,13.56Z" transform="translate(-8.67 -5.69)"/><path class="cls-9" d="M295.59,25.32c-3.2,7.29-14.48,9.5-7.52,12.85l30,14.46a13.59,13.59,0,0,0,18.39-7.13h0a14.82,14.82,0,0,0-6.8-19.27l-30-14.45c-7-3.36-.88,6.25-4.08,13.54Z" transform="translate(-8.67 -5.69)"/><path class="cls-10" d="M334,43.82c-3.2,7.28-14.48,9.49-7.53,12.84l30,14.46A13.61,13.61,0,0,0,374.85,64h0a14.81,14.81,0,0,0-6.8-19.27l-30-14.46c-7-3.35-.88,6.26-4.08,13.55Z" transform="translate(-8.67 -5.69)"/><path class="cls-11" d="M372.34,62.31c-3.2,7.28-14.48,9.49-7.53,12.85l30,14.46a13.61,13.61,0,0,0,18.39-7.13h0a14.82,14.82,0,0,0-6.8-19.27l-30-14.46c-7-3.35-.88,6.26-4.08,13.55Z" transform="translate(-8.67 -5.69)"/><path class="cls-12" d="M410.72,80.8c-3.21,7.29-14.48,9.5-7.53,12.85l30,14.46A13.63,13.63,0,0,0,451.6,101h0a14.82,14.82,0,0,0-6.81-19.27l-30-14.46c-7-3.35-.87,6.25-4.07,13.54Z" transform="translate(-8.67 -5.69)"/><path class="cls-13" d="M449.09,99.3c-3.21,7.28-14.48,9.48-7.53,12.84l30,14.46A13.61,13.61,0,0,0,490,119.48h0a14.83,14.83,0,0,0-6.8-19.27l-30-14.46c-7-3.35-.87,6.26-4.07,13.55Z" transform="translate(-8.67 -5.69)"/><path class="cls-14" d="M487.46,117.79c-3.2,7.28-14.47,9.49-7.52,12.85l30,14.46A13.62,13.62,0,0,0,528.35,138h0a14.82,14.82,0,0,0-6.8-19.26l-30-14.46c-7-3.36-.87,6.25-4.08,13.54Z" transform="translate(-8.67 -5.69)"/><path class="cls-15" d="M525.84,136.29c-3.21,7.28-14.49,9.49-7.53,12.84l30,14.46a13.62,13.62,0,0,0,18.41-7.12h0a14.81,14.81,0,0,0-6.82-19.27l-30-14.47c-6.95-3.34-.87,6.26-4.07,13.56Z" transform="translate(-8.67 -5.69)"/><path class="cls-16" d="M304.07,28.48c0,9.1-7.05,16.47-15.73,16.47h0c-8.7,0-15.73-7.37-15.73-16.47V22.16c0-9.1,7-16.47,15.73-16.47h0c8.68,0,15.73,7.37,15.73,16.47Z" transform="translate(-8.67 -5.69)"/><path class="cls-1" d="M352.56,276.85V184.51a50.09,50.09,0,0,1,50.08-50.09h0a50.08,50.08,0,0,1,50.1,50.09v92.34Z" transform="translate(-8.67 -5.69)"/><path class="cls-1" d="M116.28,276.85V184.51a50.09,50.09,0,0,1,50.09-50.09h0a50.09,50.09,0,0,1,50.1,50.09v92.34Z" transform="translate(-8.67 -5.69)"/><path class="cls-1" d="M233.18,276.85V184.51a50.09,50.09,0,0,1,50.1-50.09h0a50.09,50.09,0,0,1,50.09,50.09v92.34Z" transform="translate(-8.67 -5.69)"/><path class="cls-17" d="M134.72,298.07a4.64,4.64,0,0,0-4.36-2.55c-2.15,0-4.53,1.47-4.53,3.85,0,2.12,2.09,3.24,3.78,3.89l1.94.75c3.86,1.52,6.74,3.64,6.74,8.18a8.37,8.37,0,0,1-8.68,8.46,8.46,8.46,0,0,1-8.39-7.6l3.42-.72a5.13,5.13,0,1,0,10.26-.14c0-2.92-2.34-4.18-4.68-5.15l-1.87-.79c-3.1-1.33-5.91-3.1-5.91-6.88,0-4.39,3.89-7,8-7a7.73,7.73,0,0,1,7,4.1Z" transform="translate(-8.67 -5.69)"/><path class="cls-17" d="M149.47,313.27l-3.1,6.81h-3.64l13-28.31,13,28.31H165l-3.1-6.81Zm6.23-14.08-4.83,11h9.66Z" transform="translate(-8.67 -5.69)"/><path class="cls-17" d="M174.23,291.62,194.61,313V292.92H198v28.27l-20.39-21.35v20.24h-3.38Z" transform="translate(-8.67 -5.69)"/><path class="cls-17" d="M223.85,317h8.25v3.1H220.46V292.92h3.39Z" transform="translate(-8.67 -5.69)"/><path class="cls-17" d="M240.86,292.92v16c0,4.43,1.33,8.53,6.55,8.53S254,313.38,254,309v-16h3.38V310.1c0,6-3.71,10.55-9.94,10.55s-9.94-4.57-9.94-10.55V292.92Z" transform="translate(-8.67 -5.69)"/><path class="cls-17" d="M268.93,320.08h-3.38V292.92h3.38Z" transform="translate(-8.67 -5.69)"/><path class="cls-17" d="M289.68,298.07a4.63,4.63,0,0,0-4.35-2.55c-2.16,0-4.54,1.47-4.54,3.85,0,2.12,2.09,3.24,3.78,3.89l1.95.75c3.85,1.52,6.73,3.64,6.73,8.18a8.36,8.36,0,0,1-8.68,8.46,8.46,8.46,0,0,1-8.39-7.6l3.43-.72a5.13,5.13,0,1,0,10.26-.14c0-2.92-2.35-4.18-4.69-5.15l-1.87-.79c-3.09-1.33-5.9-3.1-5.9-6.88,0-4.39,3.89-7,8-7a7.74,7.74,0,0,1,7,4.1Z" transform="translate(-8.67 -5.69)"/><path class="cls-17" d="M341.14,306.5a14.23,14.23,0,0,1-28.46,0,14.23,14.23,0,0,1,28.46,0Zm-3.39,0a10.84,10.84,0,1,0-21.68,0,10.84,10.84,0,1,0,21.68,0Z" transform="translate(-8.67 -5.69)"/><path class="cls-17" d="M347.75,292.92h3.32c5.11,0,9.93,1.34,9.93,7.46a5.85,5.85,0,0,1-2.91,5.15v.07a7,7,0,0,1,5.44,6.88c0,5.44-4.65,7.6-9.44,7.6h-6.34Zm3.39,12H352c3.21,0,5.84-.65,5.84-4.54s-2.6-4.46-5.77-4.46h-.93Zm0,12.1h2.59c3.13,0,6.41-.94,6.41-4.79s-3.89-4.61-6.91-4.61h-2.09Z" transform="translate(-8.67 -5.69)"/><path class="cls-17" d="M374.2,320.08h-3.38V292.92h3.38Z" transform="translate(-8.67 -5.69)"/><path class="cls-17" d="M395,298.07a4.65,4.65,0,0,0-4.36-2.55c-2.16,0-4.53,1.47-4.53,3.85,0,2.12,2.09,3.24,3.78,3.89l1.94.75c3.86,1.52,6.74,3.64,6.74,8.18a8.56,8.56,0,0,1-17.07.86l3.42-.72a5.13,5.13,0,1,0,10.26-.14c0-2.92-2.34-4.18-4.68-5.15l-1.87-.79c-3.1-1.33-5.91-3.1-5.91-6.88,0-4.39,3.89-7,8-7a7.73,7.73,0,0,1,7,4.1Z" transform="translate(-8.67 -5.69)"/><path class="cls-17" d="M409.23,320.08h-3.39V292.92h3.9c8.35,0,10.94,2.88,10.94,7.85,0,5.73-4.36,7.93-9.5,7.93h-1.95Zm0-14.41h1.08c3.46,0,7.21-.65,7.21-5s-4-4.75-7.39-4.75h-.9Z" transform="translate(-8.67 -5.69)"/><path class="cls-17" d="M453.83,306.5a14.23,14.23,0,0,1-28.45,0,14.23,14.23,0,0,1,28.45,0Zm-3.38,0a10.85,10.85,0,1,0-21.69,0,10.85,10.85,0,1,0,21.69,0Z" transform="translate(-8.67 -5.69)"/><path class="cls-17" d="M359.61,276.85V184.34a46.57,46.57,0,0,1,46.56-46.57h0a46.57,46.57,0,0,1,46.57,46.57v92.51Z" transform="translate(-8.67 -5.69)"/><path class="cls-17" d="M123.33,276.85V184.34a46.57,46.57,0,0,1,46.56-46.57h0a46.57,46.57,0,0,1,46.58,46.57v92.51Z" transform="translate(-8.67 -5.69)"/><path class="cls-17" d="M240.24,276.85V184.34a46.56,46.56,0,0,1,46.57-46.57h0a46.57,46.57,0,0,1,46.56,46.57v92.51Z" transform="translate(-8.67 -5.69)"/><path class="cls-18" d="M187,187c-3.89-3.37-8.68-6.21-14-6.21-6,0-9.71,3.62-9.71,9.58,0,16.06,29.4,17,29.4,43.39,0,17.36-10,30.43-28.1,30.43-5.45,0-12.18-1.68-16.58-4.92V240.87c4.53,3.11,8.93,5.18,14.63,5.18,6.22,0,11.14-4.14,11.14-10.62,0-7.51-6-10.36-11.4-14.25-11.14-7.51-18-14.76-18-29,0-15.42,8.93-28.76,25.51-28.76a33.14,33.14,0,0,1,17.1,4.79Z" transform="translate(-8.67 -5.69)"/><path class="cls-18" d="M286.81,165V244.5H307v18.13H267.51V165Z" transform="translate(-8.67 -5.69)"/><path class="cls-18" d="M440.15,213.8c0,36.66-17.09,50.38-34.31,50.38s-34.33-13.72-34.33-50.38,17.1-50.38,34.33-50.38S440.15,177.15,440.15,213.8Zm-34.31,32.51c12.82,0,13.72-24.73,13.72-32.51,0-8.68-.9-32.51-13.72-32.51s-13.72,23.83-13.72,32.51C392.12,221.58,393,246.31,405.84,246.31Z" transform="translate(-8.67 -5.69)"/><path class="cls-19" d="M142.63,342.74,156,405.07h-8.35l-2.32-12.15H133l-2.32,12.15h-8.1l13.55-62.33Zm-.17,34.72-3.14-22.65h-.16l-5,31.66h9.91Z" transform="translate(-8.67 -5.69)"/><path class="cls-19" d="M180.66,352.33a11.36,11.36,0,0,0-7-2.64c-4.55,0-7.36,3.72-7.36,8a10.07,10.07,0,0,0,2.32,6.77l6.28,6.87c5.62,5.7,8.85,9.83,8.85,18.27,0,8.76-5.46,16.27-14.64,16.27a14.46,14.46,0,0,1-9.09-3v-8.35c2.48,1.82,5,3.23,8.19,3.23,5.12,0,7.27-4.06,7.27-8.68,0-12.4-17.44-14.88-17.44-31.25,0-8.76,4.63-15.95,14-15.95a16.67,16.67,0,0,1,8.76,2.07Z" transform="translate(-8.67 -5.69)"/><path class="cls-19" d="M209.92,352.33a11.34,11.34,0,0,0-7-2.64c-4.55,0-7.36,3.72-7.36,8a10.06,10.06,0,0,0,2.31,6.77l6.29,6.87c5.62,5.7,8.84,9.83,8.84,18.27,0,8.76-5.46,16.27-14.63,16.27a14.44,14.44,0,0,1-9.09-3v-8.35c2.48,1.82,5,3.23,8.18,3.23,5.12,0,7.28-4.06,7.28-8.68,0-12.4-17.44-14.88-17.44-31.25,0-8.76,4.63-15.95,14-15.95A16.61,16.61,0,0,1,210,344Z" transform="translate(-8.67 -5.69)"/><path class="cls-19" d="M250.84,373.91c0,11.24-.16,32-16.2,32s-16.2-20.74-16.2-32,.17-32,16.2-32S250.84,362.67,250.84,373.91Zm-23.64,0c0,13.22.91,24.22,7.44,24.22s7.44-11,7.44-24.22-.9-24.22-7.44-24.22S227.2,360.69,227.2,373.91Z" transform="translate(-8.67 -5.69)"/><path class="cls-19" d="M283.5,351.26a11.87,11.87,0,0,0-5.29-1.57c-11.57,0-11.65,16.87-11.65,24.63,0,8.27.66,23.81,12,23.81a10.31,10.31,0,0,0,5-1.24v7.27a11.67,11.67,0,0,1-6.61,1.73c-16.86,0-19.09-17.93-19.09-31,0-12.48,1.57-33,18.51-33a12.75,12.75,0,0,1,7.19,1.82Z" transform="translate(-8.67 -5.69)"/><path class="cls-19" d="M298.13,405.07h-8.26V342.74h8.26Z" transform="translate(-8.67 -5.69)"/><path class="cls-19" d="M323.6,342.74,337,405.07h-8.35l-2.32-12.15H313.93l-2.32,12.15h-8.09l13.55-62.33Zm-.17,34.72-3.14-22.65h-.16l-5,31.66h9.92Z" transform="translate(-8.67 -5.69)"/><path class="cls-19" d="M361.39,342.74v7.2h-9.34v55.13h-8.27V349.94H334v-7.2Z" transform="translate(-8.67 -5.69)"/><path class="cls-19" d="M374.38,405.07h-8.27V342.74h8.27Z" transform="translate(-8.67 -5.69)"/><path class="cls-19" d="M415.29,373.91c0,11.24-.16,32-16.19,32s-16.21-20.74-16.21-32,.17-32,16.21-32S415.29,362.67,415.29,373.91Zm-23.64,0c0,13.22.91,24.22,7.45,24.22s7.43-11,7.43-24.22-.9-24.22-7.43-24.22S391.65,360.69,391.65,373.91Z" transform="translate(-8.67 -5.69)"/><path class="cls-19" d="M430.84,361.26l1.24,20.91v22.9h-8.26V342.74h7.93l14.54,47.37.18-.17-2-25V342.74h8.27v62.33h-7.69l-14.55-48-.16.16Z" transform="translate(-8.67 -5.69)"/><path class="cls-19" d="M121.73,466.55c0-9.69,1.33-23.09,14-23.09s14,13.4,14,23.09c0,9.34-1.32,22.82-14,22.82S121.73,475.89,121.73,466.55Zm19.56,0c0-3.52.8-15.51-5.55-15.51s-5.55,12-5.55,15.51c0,3.17-.79,15.25,5.55,15.25S141.29,469.72,141.29,466.55Z" transform="translate(-8.67 -5.69)"/><path class="cls-19" d="M158.21,444.18V435.9c0-7.57.62-15,10-15a13.18,13.18,0,0,1,5.55,1.24v8.63a6.93,6.93,0,0,0-3.44-1.05c-4.23,0-3.88,4.14-3.88,7.13v7.31h6.88v6.51h-6.88v38h-8.28v-38h-4.14v-6.51Z" transform="translate(-8.67 -5.69)"/><path class="cls-19" d="M197.6,422.23h10.57c6.44,0,16.48.36,16.48,17,0,6.26-1.85,15.77-9.16,17.09l12.24,32.34h-9.16l-12-32.52h-.18v32.52H197.6Zm17.71,18.95c0-6.35-.79-11.63-7.49-11.46h-1.41v21.94C213,452.1,215.31,447.87,215.31,441.18Z" transform="translate(-8.67 -5.69)"/><path class="cls-19" d="M258,422.23v7.67H243.06v20.88h13.31v7.67H243.06V481H258v7.67h-23.7V422.23Z" transform="translate(-8.67 -5.69)"/><path class="cls-19" d="M281.22,422.23l14.28,66.44h-8.9l-2.47-13H270.91l-2.46,13h-8.64l14.45-66.44Zm-.18,37L277.7,435.1h-.18l-5.29,33.74H282.8Z" transform="translate(-8.67 -5.69)"/><path class="cls-19" d="M310.12,422.23V481h14.81v7.67H301.31V422.23Z" transform="translate(-8.67 -5.69)"/><path class="cls-19" d="M348.82,422.23v7.67h-10v58.77h-8.8V429.9h-10.4v-7.67Z" transform="translate(-8.67 -5.69)"/><path class="cls-19" d="M386.7,455.45c0,12-.17,34.1-17.27,34.1s-17.27-22.12-17.27-34.1.18-34.1,17.27-34.1S386.7,443.46,386.7,455.45Zm-25.2,0c0,14.09,1,25.82,7.93,25.82s7.93-11.73,7.93-25.82-1-25.81-7.93-25.81S361.5,441.35,361.5,455.45Z" transform="translate(-8.67 -5.69)"/><path class="cls-19" d="M395.78,422.23h10.58c6.43,0,16.48.36,16.48,17,0,6.26-1.86,15.77-9.18,17.09l12.26,32.34h-9.16l-12-32.52h-.18v32.52h-8.81Zm17.72,18.95c0-6.35-.81-11.63-7.5-11.46h-1.41v21.94C411.2,452.1,413.5,447.87,413.5,441.18Z" transform="translate(-8.67 -5.69)"/><path class="cls-19" d="M452.88,432.46a12.08,12.08,0,0,0-7.5-2.82c-4.84,0-7.83,4-7.83,8.54a10.79,10.79,0,0,0,2.46,7.23l6.7,7.31c6,6.08,9.43,10.48,9.43,19.47,0,9.34-5.82,17.36-15.6,17.36a15.42,15.42,0,0,1-9.69-3.17v-8.9c2.65,1.94,5.29,3.43,8.73,3.43,5.46,0,7.75-4.31,7.75-9.24,0-13.22-18.59-15.86-18.59-33.31,0-9.35,4.92-17,14.89-17a17.83,17.83,0,0,1,9.34,2.21Z" transform="translate(-8.67 -5.69)"/><path class="cls-19" d="M458.6,427.61a5.71,5.71,0,1,1,5.71,5.72A5.68,5.68,0,0,1,458.6,427.61Zm10.49,0a4.78,4.78,0,1,0-4.78,4.77A4.72,4.72,0,0,0,469.09,427.63ZM467,430.8h-1l-1.81-2.88h-1.24v2.88H462v-6.4h2.81a2.38,2.38,0,0,1,1.54.36,1.57,1.57,0,0,1,.73,1.36c0,1.32-.91,1.77-2,1.8Zm-3-3.57c.89,0,2.18.14,2.18-1.14,0-.89-.76-1-1.55-1h-1.72v2.14Z" transform="translate(-8.67 -5.69)"/></svg>