<svg id="Layer_1" data-name="Layer 1" xmlns="http://www.w3.org/2000/svg" viewBox="0 0 440.7 244.23"><defs><style>.cls-1{fill:#024b51;}.cls-2{fill:#516e74;}.cls-3{fill:#9aa7ac;}</style></defs><path class="cls-1" d="M91.07,189.18V433.41h440.7V189.18ZM525.88,427.53H97V195.07H525.88Z" transform="translate(-91.07 -189.18)"/><path class="cls-2" d="M342.35,323.93a168.63,168.63,0,0,0-22.23,1.41c-15.78,2.09-29.05,7.79-42.67,15.87l-2.32,1.38c-11.8,7-25.16,14.91-39.18,20.22-4.36,1.66-13.39,4-13.35,4h.24l2.79,0h1.49c1.25,0,2.46-.07,3.66-.12l.68,0c1.18-.06,2.34-.15,3.48-.26l.78-.07c1.15-.12,2.27-.25,3.38-.41l.53-.08q1.59-.24,3.15-.54l.4-.07c1.09-.21,2.17-.46,3.23-.72l.64-.15c1-.27,2.08-.55,3.11-.86l.54-.17c1.07-.33,2.14-.68,3.19-1.06,12.22-4.88,26.41-10.18,41-13.47q3.12-.71,6.26-1.27a64.74,64.74,0,0,1,8.18-.51c14.39,0,28,4.48,41.15,8.83,13,4.29,26.39,8.7,40.43,8.7a62.62,62.62,0,0,0,10.32-.84c1.3-.18,2.59-.38,3.87-.61.41-.07.81-.16,1.21-.24.87-.17,1.74-.34,2.6-.53l1.47-.35,2.27-.55,1.55-.44c.71-.2,1.42-.39,2.12-.6.54-.16,1.07-.34,1.6-.51l2-.64,1.63-.58c.64-.22,1.28-.45,1.91-.69s1.09-.41,1.63-.63,1.24-.47,1.85-.72l1.63-.68,1.78-.76,1.62-.73,1.73-.79,1.61-.76,1.67-.82,1.6-.8,1.61-.82,1.6-.84,1.54-.82,1.6-.87,1.49-.83,1.59-.89,1.42-.81,1.6-.92,1.35-.79,1.61-.95.47-.28-3-.59-3.45-.66-4-.83-3.39-.7c-24.51-5.23-48.89-11.59-73.85-14.35a221.76,221.76,0,0,0-24.31-1.41" transform="translate(-91.07 -189.18)"/><path class="cls-1" d="M507,291.25a14.34,14.34,0,0,0-6.77-5.85c-8.22-3.88-7.45-14.4-15.67-18.28l-8.6-4.05c-2.61-1.23-5.48-2.49-8.29-1.82a12.55,12.55,0,0,0-5.08,3.18c-11.08,9.85-29.75,27.78-40.93,37.53a116.89,116.89,0,0,1-17.83,13.14c-4,2.34-16.61,10-21.45,8.83,3.73.94,8.21,1.51,12.46,2.37,7.62,1.54,15.73,3.28,23,5.07l.75.18,4.62,1.11,3,.71,3.57.82,4,.91,3.2.7c1.43.32,2.86.64,4.3.94l3.25.67c1.41.29,2.83.59,4.25.87l3.41.64c1.33.26,2.66.52,4,.76,3.15-1.89,6.3-3.82,9.47-5.76,7.09-4.33,14.41-8.82,22-13A85.57,85.57,0,0,1,507,313.12Z" transform="translate(-91.07 -189.18)"/><path class="cls-2" d="M507.23,316.09a81.23,81.23,0,0,0-19,7.79c-7.34,4.14-14.47,8.62-21.37,12.94q-3.94,2.48-7.85,4.88a279.55,279.55,0,0,0,48.24,4.79v-30.4" transform="translate(-91.07 -189.18)"/><path class="cls-3" d="M457.05,344.66s-6.21,2.62-8.86,4.17c-14.1,8.22-29,16.12-45.19,18.71a63.89,63.89,0,0,1-10.17.79c-13.18,0-26-3.76-38.71-7.83l-5.07-1.64c-12.82-4.17-25.54-8-39.23-8a72.27,72.27,0,0,0-8.74.53c-24.12,3-45.91,18.57-70.2,18.57h-.34c-11.64-.08-22.65-1.81-33.78-1.81a85.18,85.18,0,0,0-9.54.5c-14.6,1.64-28.39,9.24-42.15,13.93-2,.7-22.83,5.3-29.46,7.62v6.93c11.68-1,25.38-2.23,37.37-2.42,1.58,0,3.17,0,4.76,0,16.8,0,33.57,1.76,50.41,1.9h.94c17.61,0,34.79-3.4,48-18l.89-1,.36,1.25c4.33,15,27.79,19.76,43.65,19.76a64.52,64.52,0,0,0,6.87-.34,73,73,0,0,0,24.07-7.41c7.53-3.82,12.41-9.63,19.16-13.9-.76,4.53-.11,8.76,3.56,11.82s8.29,4.06,12.89,4.54A60.56,60.56,0,0,0,395.41,390c11.11-4,24.24-12.78,32.15-12.78a8.12,8.12,0,0,1,2.31.31c4.3,1.26,12.22,4.67,16.6,5.57a20.22,20.22,0,0,0,4,.41c6.47,0,11.84-3.24,17.78-6.22a94.13,94.13,0,0,1,38.85-9.9,3,3,0,0,0,.12-1v-12c0-2.39-.06-4.27-.07-4.69a265.29,265.29,0,0,1-44-3.94c-2.19-.38-6.16-1.13-6.16-1.13" transform="translate(-91.07 -189.18)"/><path class="cls-1" d="M505.93,370.08l-.92,0c-.53,0-1.07,0-1.61,0l-.72,0c-.61,0-1.22.08-1.85.14l-.53.05c-.69.08-1.38.15-2.08.25l-.37.05c-.75.11-1.51.23-2.28.37l-.24,0c-.82.15-1.64.31-2.47.5l-.12,0c-.87.19-1.75.4-2.67.64-2.77.73-5.64,1.64-8.66,2.74-1,.37-2,.75-3,1.15l-.15.06-3,1.22-.35.16c-.93.4-1.87.82-2.83,1.26l-.81.38c-.82.37-1.63.75-2.46,1.16l-1.7.84-1.68.83c-1.14.59-2.31,1.19-3.48,1.82a18.5,18.5,0,0,1-4.75,1.81c-7,1.61-14.72-.79-21.13-2.78-5.22-1.62-9.74-3-12.46-1.94l-4.36,2c-18.16,8.5-40.16,19.71-59.84,12.12-5.16-2.58-8.21-5.67-9.64-12.27A61.2,61.2,0,0,1,318.36,400c-12.42,2.63-26.69,1.73-39-1.36-9.87-2.48-16.45-6.26-21-15.54-22.7,22.15-54.2,16.44-83.12,14.84-19.28-1.07-32.86-.07-52.11,1.35-.75.05-2.71.1-7.48.59v9H507.23V370.11Z" transform="translate(-91.07 -189.18)"/><path class="cls-1" d="M385.5,269.27c-25.29,0-45.86,20-45.86,44.65a44.33,44.33,0,0,0,.51,6.66l1,0,1.43,0,1,0a40.87,40.87,0,0,1-.58-6.77c0-22.82,19.11-41.38,42.59-41.38a42.79,42.79,0,0,1,38,22.75l.72-.63,1.08-1,.73-.64A46.1,46.1,0,0,0,385.5,269.27Z" transform="translate(-91.07 -189.18)"/><path class="cls-1" d="M129.58,251.91c8.47,0,12-4.59,12-8.7,0-3.63-2.4-6.69-8.52-7.21l-6.77-.57c-2.41-.18-3.19-1.05-3.19-2.23,0-1.92,2-3.41,5.72-3.41,3.85,0,5.33,1.49,5.6,3a.67.67,0,0,0,.78.65h4.33a.76.76,0,0,0,.83-.74c0-4.2-3.5-7.91-11.49-7.91-7.74,0-11.72,4.19-11.72,8.74,0,3.93,2.84,6.38,8.18,6.82l6.81.57c2.63.22,3.5,1.31,3.5,2.53,0,1.88-1.88,3.45-6.07,3.45s-6-1.4-6.47-3.62a.77.77,0,0,0-.88-.66H118a.8.8,0,0,0-.83.79v.35C117.16,248.1,121.58,251.91,129.58,251.91Z" transform="translate(-91.07 -189.18)"/><path class="cls-1" d="M145.88,251.47h5.2c.52,0,.65,0,.91-.57l1.88-4h12.77l2,4c.27.53.4.57.92.57h5.2a.32.32,0,0,0,.35-.31,1.57,1.57,0,0,0-.17-.52l-12.33-25.39H158L145.7,250.64a1.37,1.37,0,0,0-.17.52A.31.31,0,0,0,145.88,251.47Zm12.45-14a45.27,45.27,0,0,0,1.84-4.68h.26a45.27,45.27,0,0,0,1.84,4.68l2.36,4.85H156Z" transform="translate(-91.07 -189.18)"/><path class="cls-1" d="M180.88,251.47h4.9a.56.56,0,0,0,.52-.53V234.47h.13s1.58,2,3,3.36l13.37,13.64h4a.56.56,0,0,0,.52-.53V225.77a.56.56,0,0,0-.52-.52h-4.89a.56.56,0,0,0-.53.52v16.48h-.17a44.21,44.21,0,0,0-3.06-3.54L184.9,225.25h-4a.56.56,0,0,0-.52.52v25.17A.56.56,0,0,0,180.88,251.47Z" transform="translate(-91.07 -189.18)"/><path class="cls-1" d="M227.16,251.47h18.36a.74.74,0,0,0,.61-.61V247.1a.74.74,0,0,0-.61-.61H232.58V225.77a.56.56,0,0,0-.52-.52h-4.9a.56.56,0,0,0-.52.52v25.17A.56.56,0,0,0,227.16,251.47Z" transform="translate(-91.07 -189.18)"/><path class="cls-1" d="M263.61,251.91c8,0,13.38-4.51,13.38-13V225.77a.57.57,0,0,0-.53-.52h-4.89a.56.56,0,0,0-.53.52v13.11c0,5.42-2.66,8-7.43,8s-7.43-2.62-7.43-8V225.77a.56.56,0,0,0-.52-.52h-4.9a.56.56,0,0,0-.52.52v13.16C250.24,247.4,255.57,251.91,263.61,251.91Z" transform="translate(-91.07 -189.18)"/><rect class="cls-1" x="193.56" y="36.06" width="5.94" height="26.22" rx="0.52"/><path class="cls-1" d="M309.59,251.91c8.48,0,12-4.59,12-8.7,0-3.63-2.41-6.69-8.53-7.21l-6.77-.57c-2.4-.18-3.19-1.05-3.19-2.23,0-1.92,2.05-3.41,5.72-3.41,3.85,0,5.34,1.49,5.6,3a.68.68,0,0,0,.79.65h4.32a.76.76,0,0,0,.83-.74c0-4.2-3.49-7.91-11.49-7.91-7.74,0-11.72,4.19-11.72,8.74,0,3.93,2.85,6.38,8.18,6.82l6.82.57c2.62.22,3.49,1.31,3.49,2.53,0,1.88-1.88,3.45-6.07,3.45s-6-1.4-6.47-3.62a.77.77,0,0,0-.88-.66H298a.8.8,0,0,0-.83.79v.35C297.17,248.1,301.59,251.91,309.59,251.91Z" transform="translate(-91.07 -189.18)"/><path class="cls-1" d="M352.68,251.91c7.86,0,14.46-5.34,14.46-13.55s-6.6-13.55-14.46-13.55-14.47,5.46-14.47,13.55S344.81,251.91,352.68,251.91Zm0-22.12a8.57,8.57,0,1,1-8.52,8.57A8.25,8.25,0,0,1,352.68,229.79Z" transform="translate(-91.07 -189.18)"/><path class="cls-1" d="M374.22,251.47h13.55c6.3,0,10-2.84,10-7.87a7,7,0,0,0-3.28-6.12v-.08a6.15,6.15,0,0,0,2.27-4.94c0-4.07-3.15-7.21-9.09-7.21H374.22a.56.56,0,0,0-.52.52v25.17A.56.56,0,0,0,374.22,251.47Zm5.42-21.24h7.17c2.8,0,4,1.22,4,2.71s-.92,2.62-3.54,2.62h-7.61Zm0,9.88H387c3.28,0,4.76,1.31,4.76,3.23,0,2.1-1.31,3.15-4.63,3.15h-7.52Z" transform="translate(-91.07 -189.18)"/><rect class="cls-1" x="312.69" y="36.06" width="5.94" height="26.22" rx="0.52"/><path class="cls-1" d="M428.72,251.91c8.48,0,12-4.59,12-8.7,0-3.63-2.4-6.69-8.52-7.21l-6.78-.57c-2.4-.18-3.19-1.05-3.19-2.23,0-1.92,2.06-3.41,5.73-3.41,3.84,0,5.33,1.49,5.59,3a.68.68,0,0,0,.79.65h4.33a.76.76,0,0,0,.83-.74c0-4.2-3.5-7.91-11.5-7.91-7.73,0-11.71,4.19-11.71,8.74,0,3.93,2.84,6.38,8.17,6.82l6.82.57c2.62.22,3.5,1.31,3.5,2.53,0,1.88-1.88,3.45-6.08,3.45s-6-1.4-6.47-3.62a.76.76,0,0,0-.87-.66h-4.24a.8.8,0,0,0-.83.79v.35C416.31,248.1,420.72,251.91,428.72,251.91Z" transform="translate(-91.07 -189.18)"/><path class="cls-1" d="M447.86,251.47h4.9a.56.56,0,0,0,.52-.53v-6.2h5.77c6.16,0,10.88-3.58,10.88-9.66s-4.54-9.83-10.88-9.83H447.86a.56.56,0,0,0-.52.52v25.17A.56.56,0,0,0,447.86,251.47Zm5.42-21.24h5.29c3.23,0,5.42,1.83,5.42,4.85s-2,4.94-5.42,4.94h-5.29Z" transform="translate(-91.07 -189.18)"/><path class="cls-1" d="M489,251.91c7.87,0,14.47-5.34,14.47-13.55s-6.6-13.55-14.47-13.55-14.47,5.46-14.47,13.55S481.16,251.91,489,251.91Zm0-22.12a8.57,8.57,0,1,1-8.52,8.57A8.25,8.25,0,0,1,489,229.79Z" transform="translate(-91.07 -189.18)"/><path class="cls-1" d="M131.1,289.47c7.78,0,13.07-4.33,13.07-10a.69.69,0,0,0-.75-.65h-4.37c-.52,0-.74.17-.83.74-.48,2.93-3.14,4.89-7.12,4.89-4.68,0-8.17-3.49-8.17-8.56s3.67-8.57,8.17-8.57c3.93,0,6.69,2.32,7.12,5.33.09.53.31.7.75.7h4.5c.48,0,.7-.26.7-.57,0-5.2-4.77-10.44-13.07-10.44-7.91,0-14.12,5.51-14.12,13.55S123.19,289.47,131.1,289.47Z" transform="translate(-91.07 -189.18)"/><path class="cls-1" d="M163.44,262.37c-7.87,0-14.47,5.46-14.47,13.55s6.6,13.55,14.47,13.55,14.47-5.34,14.47-13.55S171.31,262.37,163.44,262.37Zm0,22.11a8.57,8.57,0,1,1,8.52-8.56A8.24,8.24,0,0,1,163.44,284.48Z" transform="translate(-91.07 -189.18)"/><path class="cls-1" d="M180.88,289h5.2c.52,0,.65,0,.92-.57l1.87-4h12.77l2,4c.27.53.4.57.92.57h5.2a.32.32,0,0,0,.35-.31,1.57,1.57,0,0,0-.17-.52l-12.33-25.39H193L180.7,288.2a1.37,1.37,0,0,0-.17.52A.31.31,0,0,0,180.88,289Zm12.45-14a45.27,45.27,0,0,0,1.84-4.68h.26a45.27,45.27,0,0,0,1.84,4.68l2.36,4.85H191Z" transform="translate(-91.07 -189.18)"/><path class="cls-1" d="M226.42,289.47c8.47,0,12-4.59,12-8.7,0-3.63-2.41-6.69-8.53-7.21l-6.77-.57c-2.41-.18-3.19-1.05-3.19-2.23,0-1.92,2.05-3.41,5.72-3.41,3.85,0,5.33,1.49,5.6,3a.67.67,0,0,0,.78.65h4.33a.76.76,0,0,0,.83-.74c0-4.2-3.5-7.91-11.49-7.91-7.74,0-11.72,4.19-11.72,8.74,0,3.93,2.84,6.38,8.18,6.82l6.81.57c2.63.21,3.5,1.31,3.5,2.53,0,1.88-1.88,3.45-6.07,3.45s-6-1.39-6.47-3.62a.77.77,0,0,0-.88-.66h-4.24a.8.8,0,0,0-.83.79v.35C214,285.67,218.42,289.47,226.42,289.47Z" transform="translate(-91.07 -189.18)"/><path class="cls-1" d="M267.1,267.18v-3.76a.74.74,0,0,0-.61-.61H241.67a.75.75,0,0,0-.62.61v3.76a.75.75,0,0,0,.62.61h9.44v20.72a.56.56,0,0,0,.52.52h4.9a.56.56,0,0,0,.52-.52V267.79h9.44A.74.74,0,0,0,267.1,267.18Z" transform="translate(-91.07 -189.18)"/><path class="cls-1" d="M265.35,288.72a.32.32,0,0,0,.35.31h5.2c.53,0,.66,0,.92-.57l1.88-4h12.76l2,4c.26.53.39.57.92.57h5.2a.32.32,0,0,0,.35-.31,1.4,1.4,0,0,0-.18-.52L282.4,262.81h-4.55L265.53,288.2A1.4,1.4,0,0,0,265.35,288.72ZM278.16,275a45.27,45.27,0,0,0,1.84-4.68h.26a46.73,46.73,0,0,0,1.83,4.68l2.36,4.85H275.8Z" transform="translate(-91.07 -189.18)"/><path class="cls-1" d="M305.61,262.81h-4.9a.56.56,0,0,0-.52.52v25.18a.56.56,0,0,0,.52.52h18.36a.74.74,0,0,0,.61-.61v-3.76a.74.74,0,0,0-.61-.61H306.13V263.33A.56.56,0,0,0,305.61,262.81Z" transform="translate(-91.07 -189.18)"/><path class="cls-1" d="M128.54,326.72h-5l-.73,1.56c-.1.2-.16.22-.36.22h-2a.13.13,0,0,1-.14-.12l.07-.21,4.81-9.92H127l4.82,9.92.06.21a.12.12,0,0,1-.13.12h-2c-.21,0-.26,0-.36-.22Zm-4.17-1.81h3.38l-.92-1.89a18.16,18.16,0,0,1-.72-1.83H126a18.16,18.16,0,0,1-.72,1.83Z" transform="translate(-91.07 -189.18)"/><path class="cls-1" d="M136.38,325.05c.2,0,.31.08.34.25.17.88.91,1.42,2.53,1.42s2.37-.61,2.37-1.35c0-.47-.34-.9-1.36-1l-2.67-.22c-2.08-.17-3.19-1.13-3.19-2.66,0-1.78,1.55-3.42,4.57-3.42s4.5,1.45,4.5,3.09a.3.3,0,0,1-.33.29h-1.69a.27.27,0,0,1-.31-.25c-.1-.6-.68-1.18-2.18-1.18s-2.24.58-2.24,1.33c0,.46.31.8,1.25.87l2.64.22c2.39.21,3.33,1.4,3.33,2.82,0,1.61-1.38,3.4-4.69,3.4-3.13,0-4.85-1.49-4.85-3.18v-.13a.31.31,0,0,1,.32-.31Z" transform="translate(-91.07 -189.18)"/><path class="cls-1" d="M149,325.05c.21,0,.31.08.34.25.17.88.91,1.42,2.53,1.42s2.37-.61,2.37-1.35c0-.47-.34-.9-1.36-1l-2.67-.22C148.13,324,147,323,147,321.5c0-1.78,1.55-3.42,4.58-3.42s4.49,1.45,4.49,3.09a.3.3,0,0,1-.33.29h-1.69a.27.27,0,0,1-.31-.25c-.1-.6-.68-1.18-2.18-1.18s-2.24.58-2.24,1.33c0,.46.31.8,1.25.87l2.64.22c2.4.21,3.33,1.4,3.33,2.82,0,1.61-1.38,3.4-4.69,3.4-3.13,0-4.85-1.49-4.85-3.18v-.13a.31.31,0,0,1,.32-.31Z" transform="translate(-91.07 -189.18)"/><path class="cls-1" d="M170.94,323.38c0,3.21-2.57,5.29-5.65,5.29s-5.65-2.08-5.65-5.29a5.66,5.66,0,0,1,11.3,0Zm-9,0a3.33,3.33,0,1,0,3.33-3.35A3.22,3.22,0,0,0,162,323.38Z" transform="translate(-91.07 -189.18)"/><path class="cls-1" d="M182.61,322.39c-.17,0-.26-.07-.29-.28a2.6,2.6,0,0,0-2.78-2.08,3.19,3.19,0,0,0-3.2,3.35,3.15,3.15,0,0,0,3.2,3.34c1.55,0,2.59-.77,2.78-1.91,0-.22.12-.29.32-.29h1.71a.27.27,0,0,1,.29.26c0,2.2-2.06,3.89-5.1,3.89a5.3,5.3,0,1,1,0-10.59c3.24,0,5.1,2.05,5.1,4.08,0,.12-.08.23-.27.23Z" transform="translate(-91.07 -189.18)"/><path class="cls-1" d="M97.38,129.07h1.91a.2.2,0,0,1,.2.2v9.84a.21.21,0,0,1-.21.21H97.38a.21.21,0,0,1-.21-.21v-9.83A.21.21,0,0,1,97.38,129.07Z"/><path class="cls-1" d="M201.91,326.72h-5l-.73,1.56c-.1.2-.15.22-.36.22h-2a.13.13,0,0,1-.14-.12l.07-.21,4.82-9.92h1.77l4.82,9.92.07.21a.13.13,0,0,1-.14.12h-2c-.21,0-.26,0-.36-.22Zm-4.17-1.81h3.38L200.2,323a17.06,17.06,0,0,1-.71-1.83h-.11s-.36,1.09-.71,1.83Z" transform="translate(-91.07 -189.18)"/><path class="cls-1" d="M205.79,320.2a.3.3,0,0,1-.24-.24v-1.47a.3.3,0,0,1,.24-.24h9.7a.3.3,0,0,1,.24.24V320a.3.3,0,0,1-.24.24H211.8v8.09a.22.22,0,0,1-.21.21h-1.91a.22.22,0,0,1-.2-.21V320.2Z" transform="translate(-91.07 -189.18)"/><path class="cls-1" d="M128,129.07h1.91a.2.2,0,0,1,.2.2v9.84a.21.21,0,0,1-.21.21H128a.21.21,0,0,1-.21-.21v-9.83A.21.21,0,0,1,128,129.07Z"/><path class="cls-1" d="M236.05,323.38c0,3.21-2.58,5.29-5.65,5.29s-5.65-2.08-5.65-5.29a5.66,5.66,0,0,1,11.3,0Zm-9,0A3.33,3.33,0,1,0,230.4,320,3.22,3.22,0,0,0,227.07,323.38Z" transform="translate(-91.07 -189.18)"/><path class="cls-1" d="M248.42,328.5l-5.23-5.33c-.55-.55-1.16-1.31-1.16-1.31H242v6.43a.22.22,0,0,1-.21.21h-1.91a.22.22,0,0,1-.2-.21v-9.83a.22.22,0,0,1,.2-.21h1.57l5.18,5.26a18.24,18.24,0,0,1,1.19,1.39h.07v-6.44a.22.22,0,0,1,.2-.21H250a.22.22,0,0,1,.2.21v9.83a.22.22,0,0,1-.2.21Z" transform="translate(-91.07 -189.18)"/><path class="cls-1" d="M270.57,323.38c0,3.21-2.58,5.29-5.65,5.29s-5.66-2.08-5.66-5.29a5.67,5.67,0,0,1,11.31,0Zm-9,0a3.33,3.33,0,1,0,3.33-3.35A3.22,3.22,0,0,0,261.59,323.38Z" transform="translate(-91.07 -189.18)"/><path class="cls-1" d="M274.38,328.5a.23.23,0,0,1-.21-.21v-9.83a.23.23,0,0,1,.21-.21h7.68a.3.3,0,0,1,.24.24V320a.3.3,0,0,1-.24.24H276.5v2.56h5a.3.3,0,0,1,.24.24v1.47a.3.3,0,0,1-.24.24h-5v3.58a.23.23,0,0,1-.21.21Z" transform="translate(-91.07 -189.18)"/><path class="cls-1" d="M121.33,338.93a.22.22,0,0,1,.21-.2h4.74c2.5,0,4.27,1.35,4.27,3.58a3.16,3.16,0,0,1-2.3,3.08v0a5,5,0,0,1,.54.68l1.73,2.53a.49.49,0,0,1,.1.22c0,.07,0,.12-.14.12h-2.27a.39.39,0,0,1-.27-.17l-2.08-3h-2.2v3a.22.22,0,0,1-.21.2h-1.91a.22.22,0,0,1-.21-.2Zm2.33,1.74v3.25h2.47c1.28,0,2.1-.6,2.1-1.61s-.82-1.64-2.1-1.64Z" transform="translate(-91.07 -189.18)"/><path class="cls-1" d="M136.5,344.7V347h6a.29.29,0,0,1,.24.23v1.47a.3.3,0,0,1-.24.24h-8.13a.22.22,0,0,1-.2-.2v-9.84a.22.22,0,0,1,.2-.2h8a.29.29,0,0,1,.24.24v1.46a.29.29,0,0,1-.24.24H136.5v2.09h5.39a.28.28,0,0,1,.24.24v1.46a.28.28,0,0,1-.24.24Z" transform="translate(-91.07 -189.18)"/><path class="cls-1" d="M153.47,347.2h-5l-.74,1.55c-.1.21-.15.22-.35.22h-2a.12.12,0,0,1-.13-.12l.06-.2,4.82-9.92h1.78l4.81,9.92.07.2a.13.13,0,0,1-.14.12h-2c-.2,0-.26,0-.36-.22Zm-4.16-1.81h3.38l-.92-1.9a17.23,17.23,0,0,1-.72-1.83H151a17.23,17.23,0,0,1-.72,1.83Z" transform="translate(-91.07 -189.18)"/><path class="cls-1" d="M162.19,347h5.05a.29.29,0,0,1,.24.23v1.47a.3.3,0,0,1-.24.24h-7.17a.22.22,0,0,1-.21-.2v-9.84a.22.22,0,0,1,.21-.2H162a.22.22,0,0,1,.21.2Z" transform="translate(-91.07 -189.18)"/><path class="cls-1" d="M167.55,340.67a.29.29,0,0,1-.24-.24V339a.29.29,0,0,1,.24-.24h9.7a.29.29,0,0,1,.24.24v1.46a.29.29,0,0,1-.24.24h-3.69v8.1a.22.22,0,0,1-.21.2h-1.91a.22.22,0,0,1-.2-.2v-8.1Z" transform="translate(-91.07 -189.18)"/><path class="cls-1" d="M190.84,343.85c0,3.21-2.58,5.29-5.65,5.29s-5.65-2.08-5.65-5.29a5.66,5.66,0,0,1,11.3,0Zm-9,0a3.33,3.33,0,1,0,3.33-3.35A3.22,3.22,0,0,0,181.86,343.85Z" transform="translate(-91.07 -189.18)"/><path class="cls-1" d="M194.45,338.93a.22.22,0,0,1,.2-.2h4.75c2.49,0,4.27,1.35,4.27,3.58a3.16,3.16,0,0,1-2.31,3.08v0a5.54,5.54,0,0,1,.55.68l1.72,2.53a.44.44,0,0,1,.11.22c0,.07,0,.12-.14.12h-2.27a.35.35,0,0,1-.27-.17l-2.09-3h-2.2v3a.22.22,0,0,1-.2.2h-1.92a.22.22,0,0,1-.2-.2Zm2.32,1.74v3.25h2.48c1.28,0,2.1-.6,2.1-1.61s-.82-1.64-2.1-1.64Z" transform="translate(-91.07 -189.18)"/><path class="cls-1" d="M208.74,345.52a.29.29,0,0,1,.34.26c.17.87.91,1.42,2.53,1.42s2.37-.62,2.37-1.35c0-.48-.34-.91-1.36-1l-2.66-.23c-2.09-.17-3.2-1.12-3.2-2.66,0-1.77,1.56-3.41,4.58-3.41s4.49,1.45,4.49,3.09a.3.3,0,0,1-.33.29h-1.69a.26.26,0,0,1-.3-.26c-.11-.6-.69-1.18-2.19-1.18s-2.24.58-2.24,1.33c0,.47.31.81,1.25.88l2.65.22c2.39.2,3.33,1.4,3.33,2.81,0,1.61-1.39,3.4-4.7,3.4-3.12,0-4.85-1.48-4.85-3.17v-.14a.32.32,0,0,1,.33-.31Z" transform="translate(-91.07 -189.18)"/><path class="cls-1" d="M223.31,338.9a3.76,3.76,0,1,1-3.76,3.76A3.76,3.76,0,0,1,223.31,338.9Zm0,6.79a3,3,0,1,0-3-3A3,3,0,0,0,223.31,345.69ZM225,342.2a.14.14,0,0,1-.15.13h-.43l-.13-.12,0-.11a.89.89,0,0,0-1-.56,1,1,0,0,0-1.1,1.12,1.07,1.07,0,0,0,1.18,1.11,1.45,1.45,0,0,0,1.17-.52l.11,0,.08,0,.24.25,0,.09-.05.11a2,2,0,0,1-1.59.69,1.71,1.71,0,0,1-1.89-1.73,1.67,1.67,0,0,1,1.81-1.74,1.51,1.51,0,0,1,1.69,1.15Z" transform="translate(-91.07 -189.18)"/><polyline class="cls-1" points="32.03 114.28 200.62 114.28 200.62 113.33 32.03 113.33"/></svg>