<svg id="Layer_1" data-name="Layer 1" xmlns="http://www.w3.org/2000/svg" viewBox="0 0 320.67 108.94"><defs><style>.cls-1{fill:none;}.cls-2{fill:#1c75bc;}.cls-3{fill:#6d6e71;}.cls-4{fill:#0d5f91;}</style></defs><path class="cls-1" d="M110,73.4a4.09,4.09,0,0,0-1.55-3.54,8.34,8.34,0,0,0-4.84-1.12h-2.5v9h2.5a8.83,8.83,0,0,0,4.86-1A3.75,3.75,0,0,0,110,73.4Z" transform="translate(-16.33 -12.38)"/><path class="cls-1" d="M262.6,68.12a10.15,10.15,0,0,0-8.07,3.45,12.17,12.17,0,0,0-3,8.3,11.72,11.72,0,0,0,3.19,8.33,10.87,10.87,0,0,0,15.82,0,12.36,12.36,0,0,0,0-16.66A10.49,10.49,0,0,0,262.6,68.12Z" transform="translate(-16.33 -12.38)"/><path class="cls-1" d="M147.82,44.54a3.11,3.11,0,0,0-1.06-2.69,5.09,5.09,0,0,0-2.91-.65h-1.6v6.47h1.6a5.56,5.56,0,0,0,2.87-.56A2.83,2.83,0,0,0,147.82,44.54Z" transform="translate(-16.33 -12.38)"/><path class="cls-1" d="M27,90.82a.13.13,0,0,1,0,.06c0,.19,0,.38-.07.58s0,.1,0,.16a25,25,0,0,0-.13,3.89h0c0,.39,0,.78.05,1.17a1.49,1.49,0,0,0,0,.21h0c.06.73.14,1.47.26,2.22a5.87,5.87,0,0,0,.19.83c0-3.61,0-7.48,0-10.62-.05.21-.1.42-.14.63S27.06,90.53,27,90.82Z" transform="translate(-16.33 -12.38)"/><path class="cls-1" d="M222,44.54a3.11,3.11,0,0,0-1.06-2.69A5.09,5.09,0,0,0,218,41.2h-1.6v6.47H218a5.56,5.56,0,0,0,2.87-.56A2.83,2.83,0,0,0,222,44.54Z" transform="translate(-16.33 -12.38)"/><polygon class="cls-1" points="142.4 30.03 139.31 37.63 145.38 37.63 142.4 30.03"/><path class="cls-1" d="M201.91,40.86a7.32,7.32,0,0,0-5.41,2.25,7.85,7.85,0,0,0,0,11,7.27,7.27,0,0,0,5.4,2.25,7.37,7.37,0,0,0,5.44-2.25,7.86,7.86,0,0,0,0-11A7.3,7.3,0,0,0,201.91,40.86Z" transform="translate(-16.33 -12.38)"/><polygon class="cls-1" points="147.75 70.53 157.06 70.53 152.41 59.99 147.75 70.53"/><polygon class="cls-1" points="262.26 37.63 268.33 37.63 265.35 30.03 262.26 37.63"/><path class="cls-1" d="M133.82,47.11a2.83,2.83,0,0,0,1.1-2.57,3.11,3.11,0,0,0-1.06-2.69A5.09,5.09,0,0,0,131,41.2h-1.6v6.47H131A5.56,5.56,0,0,0,133.82,47.11Z" transform="translate(-16.33 -12.38)"/><path class="cls-1" d="M302.25,73.4a4.08,4.08,0,0,0-1.54-3.54,8.34,8.34,0,0,0-4.84-1.12h-2.5v9h2.5a8.83,8.83,0,0,0,4.86-1A3.75,3.75,0,0,0,302.25,73.4Z" transform="translate(-16.33 -12.38)"/><path class="cls-2" d="M26.92,91.6v0c0-.06,0-.11,0-.16v0Z" transform="translate(-16.33 -12.38)"/><path class="cls-2" d="M26.94,91.45v0Z" transform="translate(-16.33 -12.38)"/><path class="cls-3" d="M111.53,78.59a7.17,7.17,0,0,0,2-5.38,7.1,7.1,0,0,0-2.45-5.82q-2.44-2-7.11-2H97.44v29h3.63V80.82h1l8.55,13.55H115l-9-13.7A7.86,7.86,0,0,0,111.53,78.59Zm-10.46-.81v-9h2.5a8.34,8.34,0,0,1,4.84,1.12A4.09,4.09,0,0,1,110,73.4a3.75,3.75,0,0,1-1.53,3.35,8.83,8.83,0,0,1-4.86,1Z" transform="translate(-16.33 -12.38)"/><polygon class="cls-3" points="111.06 81.99 126.3 81.99 126.3 78.61 114.69 78.61 114.69 68.22 126.3 68.22 126.3 64.83 114.69 64.83 114.69 56.36 126.3 56.36 126.3 52.98 111.06 52.98 111.06 81.99"/><path class="cls-3" d="M155,94.37h4L162.69,86h12l3.7,8.38h4L168.74,64.52Zm9.08-11.46,4.66-10.54,4.66,10.54Z" transform="translate(-16.33 -12.38)"/><polygon class="cls-3" points="182.08 52.98 178.47 52.98 178.47 81.99 189.97 81.99 189.97 78.68 182.08 78.68 182.08 52.98"/><polygon class="cls-3" points="202.34 56.21 208.93 56.21 208.93 81.99 212.54 81.99 212.54 56.21 219.12 56.21 219.12 52.98 202.34 52.98 202.34 56.21"/><path class="cls-3" d="M262.6,64.74a14.14,14.14,0,0,0-10.51,4.36,15.58,15.58,0,0,0,0,21.48,14.66,14.66,0,0,0,20.94,0,15.65,15.65,0,0,0,0-21.5A14.13,14.13,0,0,0,262.6,64.74Zm7.93,23.45a10.87,10.87,0,0,1-15.82,0,11.72,11.72,0,0,1-3.19-8.33,12.17,12.17,0,0,1,3-8.3,10.15,10.15,0,0,1,8.07-3.45,10.49,10.49,0,0,1,7.93,3.41,12.36,12.36,0,0,1,0,16.66Z" transform="translate(-16.33 -12.38)"/><path class="cls-3" d="M303.83,78.59a7.17,7.17,0,0,0,2-5.38,7.13,7.13,0,0,0-2.45-5.82q-2.46-2-7.11-2h-6.56v29h3.63V80.82h1L303,94.37h4.38l-9-13.7A7.86,7.86,0,0,0,303.83,78.59Zm-10.46-.81v-9h2.5a8.34,8.34,0,0,1,4.84,1.12,4.08,4.08,0,0,1,1.54,3.54,3.75,3.75,0,0,1-1.52,3.35,8.83,8.83,0,0,1-4.86,1Z" transform="translate(-16.33 -12.38)"/><path class="cls-3" d="M335.49,81.92c-1-1.32-3.17-2.87-6.49-4.67a13.44,13.44,0,0,1-3.79-2.65,4.15,4.15,0,0,1-.95-2.74,3.41,3.41,0,0,1,1.18-2.72,4.78,4.78,0,0,1,3.22-1,5.67,5.67,0,0,1,2.68.64,4.46,4.46,0,0,1,1.86,1.79l2.39-2.35a7.34,7.34,0,0,0-2.85-2.59,8.57,8.57,0,0,0-4-.87,8.46,8.46,0,0,0-5.9,2,6.81,6.81,0,0,0-2.22,5.3,7,7,0,0,0,1.51,4.62,16.15,16.15,0,0,0,5.26,3.74,17.32,17.32,0,0,1,4.6,3,4.66,4.66,0,0,1,1.37,3.34A4.53,4.53,0,0,1,332,90.35a5.61,5.61,0,0,1-3.92,1.26,6.65,6.65,0,0,1-3.65-1,5.47,5.47,0,0,1-2.24-2.77l-2.49,2.28a7.44,7.44,0,0,0,3.16,3.6A9.9,9.9,0,0,0,328,95a9.39,9.39,0,0,0,6.64-2.23,7.93,7.93,0,0,0,2.4-6.13A7.52,7.52,0,0,0,335.49,81.92Z" transform="translate(-16.33 -12.38)"/><path class="cls-3" d="M54.1,54.31,37.7,67.06V64.77H28V74.1L16.33,83.74H27.92c.09,2.42.08,10.7,0,17.63a8,8,0,0,0,.67.87A8.15,8.15,0,0,0,30.85,104c.31.27.65.53,1,.79A32,32,0,0,0,43,109.37c1.19.28,2.44.51,3.72.72l.67.11V90.64H62.47v20.19c1.76-.09,3.53-.22,5.32-.42a85.42,85.42,0,0,0,12.27-2.32l.67-.18V83.73h12L59.2,58.19Z" transform="translate(-16.33 -12.38)"/><path class="cls-4" d="M100.71,56.35a3.42,3.42,0,0,1-3.57-2.71l-1.36.72a4.91,4.91,0,0,0,4.86,3.41,4.75,4.75,0,0,0,5.1-5.11,4.78,4.78,0,0,0-1-3.15,10,10,0,0,0-2.73-2l-.83-.44q-3-1.59-3-3.42a2.77,2.77,0,0,1,.77-2,2.74,2.74,0,0,1,2-.76,2.81,2.81,0,0,1,2.73,1.54l1.23-.74a4.1,4.1,0,0,0-3.87-2.22,4.68,4.68,0,0,0-3.21,1.11,4,4,0,0,0-1.31,3.09,4.07,4.07,0,0,0,1.4,3.09,14.49,14.49,0,0,0,3,1.92,11.09,11.09,0,0,1,2.33,1.54,3.4,3.4,0,0,1,1,2.5,3.79,3.79,0,0,1-.9,2.68A3.39,3.39,0,0,1,100.71,56.35Z" transform="translate(-16.33 -12.38)"/><rect class="cls-4" x="92.94" y="27.45" width="1.59" height="17.47"/><polygon class="cls-4" points="98.89 44.92 107.54 44.92 107.54 43.42 100.47 43.42 100.47 35.9 107.54 35.9 107.54 34.4 100.47 34.4 100.47 28.94 107.54 28.94 107.54 27.45 98.89 27.45 98.89 44.92"/><path class="cls-4" d="M135.41,47.82a4.19,4.19,0,0,0,1.23-3.23q0-4.76-5.67-4.76h-3.21V57.3h1.59V49h1l6.14,8.33h1.92L132.08,49A4.64,4.64,0,0,0,135.41,47.82Zm-6.06-.15V41.2H131a5.09,5.09,0,0,1,2.91.65,3.11,3.11,0,0,1,1.06,2.69,2.83,2.83,0,0,1-1.1,2.57,5.56,5.56,0,0,1-2.87.56Z" transform="translate(-16.33 -12.38)"/><path class="cls-4" d="M151.2,57.22,145,49a4.64,4.64,0,0,0,3.33-1.16,4.19,4.19,0,0,0,1.23-3.23q0-4.76-5.67-4.76h-3.21V57.3h1.59V49h.95l6.14,8.33h3.44l2.32-5.92h7.13l2.23,5.92h1.74l-7.35-18.16Zm-8.95-9.55V41.2h1.6a5.09,5.09,0,0,1,2.91.65,3.11,3.11,0,0,1,1.06,2.69,2.83,2.83,0,0,1-1.1,2.57,5.56,5.56,0,0,1-2.87.56ZM155.64,50l3.09-7.59,3,7.59Z" transform="translate(-16.33 -12.38)"/><polygon class="cls-4" points="171.24 41.33 158.86 26.71 158.86 44.92 160.35 44.92 160.35 30.8 172.72 45.44 172.72 27.45 171.24 27.45 171.24 41.33"/><path class="cls-4" d="M201.91,39.44a9,9,0,0,0-6.6,2.63,8.88,8.88,0,0,0-2.73,6.53,8.75,8.75,0,0,0,2.73,6.47,9.47,9.47,0,0,0,13.22,0,8.74,8.74,0,0,0,2.74-6.49,8.85,8.85,0,0,0-2.73-6.53A9.1,9.1,0,0,0,201.91,39.44Zm5.44,14.66a7.37,7.37,0,0,1-5.44,2.25,7.27,7.27,0,0,1-5.4-2.25,7.85,7.85,0,0,1,0-11,7.67,7.67,0,0,1,10.84,0,7.86,7.86,0,0,1,0,11Z" transform="translate(-16.33 -12.38)"/><path class="cls-4" d="M222.44,47.82a4.19,4.19,0,0,0,1.23-3.23q0-4.76-5.67-4.76h-3.21V57.3h1.59V49h1l6.14,8.33h1.92L219.11,49A4.64,4.64,0,0,0,222.44,47.82Zm-6.06-.15V41.2H218a5.09,5.09,0,0,1,2.91.65A3.11,3.11,0,0,1,222,44.54a2.83,2.83,0,0,1-1.1,2.57,5.56,5.56,0,0,1-2.87.56Z" transform="translate(-16.33 -12.38)"/><polygon class="cls-4" points="209.22 28.94 214.03 28.94 214.03 44.92 215.62 44.92 215.62 28.94 220.44 28.94 220.44 27.45 209.22 27.45 209.22 28.94"/><polygon class="cls-4" points="234.17 34.53 224.66 34.53 224.66 27.45 223.07 27.45 223.07 44.92 224.66 44.92 224.66 35.91 234.17 35.91 234.17 44.92 235.76 44.92 235.76 27.45 234.17 27.45 234.17 34.53"/><polygon class="cls-4" points="256.92 27.45 251.62 41.66 246.58 27.45 244.76 27.45 251.59 45.6 258.66 27.45 256.92 27.45"/><path class="cls-4" d="M274.12,57.3h1.61l2.32-5.92h7.13l2.23,5.92h1.74L281.8,39.14ZM278.59,50l3.09-7.59,3,7.59Z" transform="translate(-16.33 -12.38)"/><polygon class="cls-4" points="276.36 27.45 274.77 27.45 274.77 44.92 282.35 44.92 282.35 43.42 276.36 43.42 276.36 27.45"/><polygon class="cls-4" points="286.45 27.45 284.87 27.45 284.87 44.92 292.44 44.92 292.44 43.42 286.45 43.42 286.45 27.45"/><polygon class="cls-4" points="294.96 44.92 303.61 44.92 303.61 43.42 296.55 43.42 296.55 35.9 303.61 35.9 303.61 34.4 296.55 34.4 296.55 28.94 303.61 28.94 303.61 27.45 294.96 27.45 294.96 44.92"/><polygon class="cls-4" points="316.76 27.45 312.05 35.46 307.36 27.45 305.45 27.45 311.25 36.87 311.25 44.92 312.84 44.92 312.84 36.87 318.58 27.45 316.76 27.45"/><path class="cls-4" d="M93.69,31.79,59.2,12.38v45L93.69,83.64ZM68.86,45.2H65.07V38.36h3.79Zm0-10.33H65.07V28h3.79ZM78.34,45.2H74.55V38.36h3.79Zm0-10.33H74.55V28h3.79Z" transform="translate(-16.33 -12.38)"/><path class="cls-4" d="M93.41,103c.1,0,.18-.11.28-.17V84.4H81.4v23.33A60.74,60.74,0,0,0,93.41,103Z" transform="translate(-16.33 -12.38)"/><path class="cls-4" d="M105.66,91.41c-.61,4.64-5.06,9.19-12,12.86a62.74,62.74,0,0,1-12.29,4.8l-.67.19-.67.17c-2.34.62-4.79,1.14-7.33,1.57-1.54.26-3.11.49-4.72.67h-.08c-1.33.15-2.66.27-4,.36-.51,0-1,0-1.5.07l-1.51.07c-.59,0-1.18,0-1.76,0-2.23,0-4.41,0-6.51-.16-1.59-.1-3.12-.27-4.61-.47l-.67-.09c-1-.15-1.94-.32-2.87-.5-.61-.12-1.22-.24-1.81-.38-6.33-1.48-11.29-3.9-14.09-7a9.91,9.91,0,0,1-.67-.81,10.26,10.26,0,0,1-.67-1,8.51,8.51,0,0,1-1.16-3.38,8.21,8.21,0,0,1-.05-1v-.07a9.07,9.07,0,0,1,.66-3.16h0c0-.12,0-.23,0-.34s0-.25,0-.38h0c0-.32,0-.65,0-1a.19.19,0,0,0,0-.08.88.88,0,0,1,0-.16c0-.22,0-.43.07-.64l0-.1v0c0-.11,0-.22,0-.34l0-.24,0-.23C23.19,94.58,21.2,99,21.7,103.4c1.39,12.26,21.43,20,44.77,17.4a69.37,69.37,0,0,0,25.84-7.87c.47-.26.93-.53,1.38-.8a36.88,36.88,0,0,0,6.88-5.28c4-4,6.14-8.52,5.63-13A12.27,12.27,0,0,0,105.66,91.41Z" transform="translate(-16.33 -12.38)"/><path class="cls-4" d="M51.24,103.4A1.26,1.26,0,1,0,50,102.14,1.25,1.25,0,0,0,51.24,103.4Z" transform="translate(-16.33 -12.38)"/></svg>