<svg id="Layer_1" data-name="Layer 1" xmlns="http://www.w3.org/2000/svg" viewBox="0 0 1207.05 368.55"><defs><style>.cls-1,.cls-2{fill:#0e75bc;}.cls-2{font-size:53.21px;font-family:MyriadPro-Regular, Myriad Pro;}.cls-3{letter-spacing:0.01em;}.cls-4{letter-spacing:-0.01em;}.cls-5{letter-spacing:-0.01em;}.cls-6{letter-spacing:0em;}.cls-7{letter-spacing:0.01em;}.cls-8{letter-spacing:-0.01em;}.cls-9{letter-spacing:-0.01em;}.cls-10{letter-spacing:0em;}.cls-11{letter-spacing:0.01em;}.cls-12{letter-spacing:-0.01em;}.cls-13{letter-spacing:0em;}.cls-14{letter-spacing:-0.09em;}.cls-15{letter-spacing:-0.03em;}.cls-16{font-size:79.81px;}</style></defs><path class="cls-1" d="M1190.05,247.93a233,233,0,0,1-31.08-28l-61-68.32c18.65-3.79,34.52-11.55,47.59-23.75s19.73-26.41,19.73-42.41c0-18.09-7.64-32.82-23.26-44.07-15.43-11.25-36.68-17-64.24-17L976.92,25.68c7.71,2.46,12.63,7.26,15,14.2,2.53,7.07,3.92,15.51,3.92,25.6v165c0,10.22-1.39,19.38-3.92,26.77a23.45,23.45,0,0,1-5.42,9.44c-6.24-3.92-11.15-8.5-14.38-13.85-5.1-7.57-11.18-19.45-18.7-35.63L865.54,24.42l-67,1.26c5.3,1.22,8.73,3,10.56,5.08s2.71,5.3,2.71,8.72A27.42,27.42,0,0,1,810,48.21c-1.23,3.42-3,7.18-4.87,12.24L734.45,218c-7,16.18-12.77,28.06-17.64,35.57-4.37,6.7-11.47,12.46-20.41,17.41H770c-4.62-1.47-8.12-3.52-10.29-6a12.58,12.58,0,0,1-3.86-9.34,32.06,32.06,0,0,1,1.91-10,139.46,139.46,0,0,1,5.42-12.85l22-53.27H891.53l23.32,53.12c1.26,3,2.91,7.19,5.37,12.83s3.55,9.95,3.55,12.86c0,4.44-4,8.66-11.62,12.59h144.33c-7.57-2.44-12.21-6.89-14.52-13.67-1.92-7-3.18-16.27-3.18-27.88V50.85h0l-.09-2.94h27c.54,0,1.15,0,1.72,0,.31,0,.62,0,.94,0h3.5c1.53.09,2.85.34,4.29.49,1.21.13,2.43.25,3.63.44s2.19.47,3.25.7a69.56,69.56,0,0,1,10.27,3c.46.23,1,.38,1.44.59a45,45,0,0,1,4.46,2,47.69,47.69,0,0,1,6.58,3.8l.35.19a.41.41,0,0,1,.09.12,7.46,7.46,0,0,1,2.29,2c9,7.42,13.5,16.93,13.5,28.76,0,16.19-7,28.52-21.29,37-14,8.54-31.49,14-51.85,16.81l25.74,35C1104,216,1152.56,273,1192.28,272.66h35.47A319.79,319.79,0,0,1,1190.05,247.93ZM795.48,151.62l42-95.49,41.83,95.49Zm-419.74,0c18.61-3.68,38.77-11.69,51.5-23.91C440.49,115.41,447,101.28,447,85.27c0-18-7.65-32.5-22.91-43.93-15.27-11.25-36.89-16.92-64.62-16.92L258.87,25.56c7.56,2.58,12.65,7.33,15,14.36s3.57,15.57,3.57,25.61V230.31c0,10.41-1.19,19.32-3.57,27s-7.43,12.59-15,15.33l80.77-1.05c-8.26-2.47-13.41-7.29-15.63-14.28-2.06-7.14-3.44-16.37-3.44-28V50.85c3.07-.55,7.46-1.14,12.72-2a136.17,136.17,0,0,1,16-1.16c15.15,0,28.17,3.79,38.68,11.44C398.53,66.6,404,76.83,404,90c0,16.15-7.1,28.69-21.46,37.12-13.78,8.18-31.34,13.85-52,16.65,0,0,14.82,62,63.67,113.49C414,277.11,495.92,345,663.1,307,636.52,312.41,449,343.07,375.74,151.62ZM222.56,156c-23.26-10.29-47.17-21-71.15-32.29-24.32-11.19-36.08-23.77-36.08-37.87,0-12,5.17-20.83,15.9-26.16,11.11-5.42,23.89-8.24,38.51-8.24a105.3,105.3,0,0,1,36.09,6.68c12.43,4.39,22.27,10.13,30.35,17.07V32.78a229.48,229.48,0,0,0-63-8.36c-29.44,0-54.43,5.53-75.24,16.3Q67,56.85,67,90c0,22.6,12.63,41.53,38.06,56.32,23,10.4,46.72,20.94,71.13,32.08,24.21,11.14,36.3,24.62,36.3,40.28,0,12.3-6.49,22.09-19.48,28.86A84.19,84.19,0,0,1,152,258a149.76,149.76,0,0,1-49.59-8.42,151.08,151.08,0,0,1-43.26-22.91l12.47,47.07a200.61,200.61,0,0,0,36.71,8.7,261.18,261.18,0,0,0,39,2.62c32.18,0,59.35-7.72,81-23.38s32.45-33.92,32.45-54.68C260.81,187.48,247.8,170.31,222.56,156Zm429.18,91.3a174.91,174.91,0,0,1-45.69,6.41c-31.36,0-57.17-10.45-77.25-30.89-19.79-20.69-30-45.34-30-73.92,0-27.38,9.25-49.86,27.52-67.2s42.13-26,71.43-26a147.36,147.36,0,0,1,40.67,5.56,172.37,172.37,0,0,1,38,16V33.86c-15.18-3.29-28.87-5.63-40.79-7.21a290.71,290.71,0,0,0-36.61-2.23c-43.72,0-79.5,12-106.94,35.85-27.62,23.95-41.56,55.36-41.56,94.35,0,40.45,14.57,72.34,43.18,95.63,29.1,23.33,68.5,34.81,118.39,34.81a203.14,203.14,0,0,0,34.19-2.8,123.64,123.64,0,0,0,30.14-8.52l20.06-43.68A223.13,223.13,0,0,1,651.74,247.33Z" transform="translate(-52.52 -24.42)"/><text class="cls-2" transform="translate(0 348.6) scale(0.99 1)"><tspan class="cls-3">S</tspan><tspan x="26.55" y="0">out</tspan><tspan class="cls-4" x="102.69" y="0">h</tspan><tspan class="cls-5" x="131.52" y="0">w</tspan><tspan class="cls-6" x="170.15" y="0">est </tspan><tspan class="cls-7" x="246.77" y="0">R</tspan><tspan x="275.92" y="0">i</tspan><tspan class="cls-8" x="288.37" y="0">v</tspan><tspan x="313.43" y="0">erside </tspan><tspan class="cls-9" x="458.95" y="0">C</tspan><tspan x="489.22" y="0">ou</tspan><tspan class="cls-10" x="547.75" y="0">n</tspan><tspan class="cls-11" x="577.06" y="0">t</tspan><tspan x="595.15" y="0">y </tspan><tspan class="cls-12" x="631.49" y="0">A</tspan><tspan x="663.73" y="0">ssoci</tspan><tspan class="cls-13" x="771.37" y="0">a</tspan><tspan class="cls-6" x="796.8" y="0">tion of REA</tspan><tspan class="cls-14" x="1040.26" y="0">L</tspan><tspan class="cls-15" x="1060.7" y="0">T</tspan><tspan x="1085.7" y="0">ORS®</tspan><tspan class="cls-16" x="1199.51" y="0"> </tspan></text></svg>