<svg id="Layer_1" data-name="Layer 1" xmlns="http://www.w3.org/2000/svg" viewBox="0 0 934.39 349.08"><defs><style>.cls-1{fill:#33405d;}</style></defs><path class="cls-1" d="M302.37,277.28v-1.71c3.66-.48,4.13-1,3.36-3.37s-1.83-5.25-3.07-8.67H290.27c-.88,2.54-1.71,5-2.48,7.38-1.18,3.59-.76,4.18,3.66,4.66v1.71H278.53v-1.71c3.84-.53,4.6-.95,6.67-6.14l12.15-30.8,2.07-.59c3.66,10.15,7.61,21.24,11.39,31.45,1.83,5.07,2.65,5.66,6.49,6.08v1.71Zm-5.61-31h-.17c-1.83,4.9-3.6,9.85-5.37,14.63h10.56Z" transform="translate(-20.67 -23.9)"/><path class="cls-1" d="M334.71,258.51c-1.18-3.48-3.19-5.84-6.08-5.84a3.67,3.67,0,0,0-3.66,3.9c0,2.48,2.12,3.83,4.84,5,4.54,1.89,7.55,4,7.55,8.15,0,5.48-5.07,8.26-9.85,8.26a12.13,12.13,0,0,1-6.91-2,31.43,31.43,0,0,1-1-7.14l1.65-.24c1.06,3.84,3.72,7.38,7.32,7.38a3.93,3.93,0,0,0,4-4c0-2.48-1.53-3.84-4.6-5.31-3.42-1.6-7.49-3.6-7.49-8.21,0-4.24,3.6-7.78,9.14-7.78a12.76,12.76,0,0,1,5.37,1.06,46.77,46.77,0,0,1,1.3,6.31Z" transform="translate(-20.67 -23.9)"/><path class="cls-1" d="M357.13,258.51c-1.18-3.48-3.19-5.84-6.08-5.84a3.67,3.67,0,0,0-3.66,3.9c0,2.48,2.13,3.83,4.84,5,4.54,1.89,7.55,4,7.55,8.15,0,5.48-5.07,8.26-9.85,8.26a12.06,12.06,0,0,1-6.9-2,30.79,30.79,0,0,1-1-7.14l1.66-.24c1.06,3.84,3.71,7.38,7.31,7.38a3.93,3.93,0,0,0,4-4c0-2.48-1.54-3.84-4.61-5.31-3.42-1.6-7.49-3.6-7.49-8.21,0-4.24,3.6-7.78,9.14-7.78a12.76,12.76,0,0,1,5.37,1.06,43.88,43.88,0,0,1,1.3,6.31Z" transform="translate(-20.67 -23.9)"/><path class="cls-1" d="M389.94,263.88c0,9.56-6.9,14.11-12.92,14.11a12.82,12.82,0,0,1-13.1-13c0-9.74,7.55-14.22,13.16-14.22A12.85,12.85,0,0,1,389.94,263.88Zm-20-.88c0,7.43,3,13,7.73,13,3.36,0,6.25-2.48,6.25-10.68,0-7.14-2.66-12.57-7.55-12.57C373,252.73,369.94,256.27,369.94,263Z" transform="translate(-20.67 -23.9)"/><path class="cls-1" d="M416.67,271.91c-2.66,3.48-6.55,6.08-10,6.08-7.61,0-12-6-12-12.4a14.11,14.11,0,0,1,6-11.44,15.78,15.78,0,0,1,9.09-3.42,8.43,8.43,0,0,1,5.19,1.53,2.09,2.09,0,0,1,1,1.83c0,1.36-1.35,2.71-2.06,2.71-.36,0-.65-.17-1.12-.65a8.74,8.74,0,0,0-6-2.53c-3.6,0-6.85,3.07-6.85,9.26,0,8.14,5.61,10.86,8.8,10.86,2.47,0,4.36-.71,7-3.13Z" transform="translate(-20.67 -23.9)"/><path class="cls-1" d="M420.09,277.28v-1.59c3.66-.36,4.07-.71,4.07-4.73V258.87c0-3.72-.23-4-3.6-4.49v-1.47a45.91,45.91,0,0,0,8.8-2.24V271c0,4,.35,4.37,4.13,4.73v1.59Zm3.13-34.64a3.25,3.25,0,0,1,3.25-3.3,3.25,3.25,0,0,1-.06,6.49A3.26,3.26,0,0,1,423.22,242.64Z" transform="translate(-20.67 -23.9)"/><path class="cls-1" d="M456,278a4.54,4.54,0,0,1-2.89-1.18,5.27,5.27,0,0,1-1.42-2.54c-2.36,1.59-5.19,3.72-6.84,3.72a7.29,7.29,0,0,1-7.26-7.26c0-3,1.53-4.72,4.72-5.78,3.54-1.24,7.91-2.84,9.2-3.9v-1.18c0-4.13-1.88-6.49-4.72-6.49a3.19,3.19,0,0,0-2.53,1.12,10.11,10.11,0,0,0-1.72,4,1.77,1.77,0,0,1-1.88,1.47,3,3,0,0,1-2.78-2.6c0-.94.77-1.59,1.95-2.47a26.78,26.78,0,0,1,9-4.13,7.94,7.94,0,0,1,5,1.59c2.18,1.77,2.77,4.19,2.77,7.37v10.74c0,2.66,1,3.49,2,3.49a5.28,5.28,0,0,0,2.13-.59l.59,1.59Zm-4.49-14.87c-1.24.65-3.65,1.77-5,2.36-2.19,1.06-3.43,2.12-3.43,4.3a4.22,4.22,0,0,0,4.08,4.49,7.16,7.16,0,0,0,4.3-1.89Z" transform="translate(-20.67 -23.9)"/><path class="cls-1" d="M476.09,277.22a5.85,5.85,0,0,1-2.42.77c-3.9,0-6.08-2.3-6.08-7.08V253.85h-4l-.24-.65,1.59-1.77h2.66v-4.3l4.37-4,.76.18v8.14h6.55a1.72,1.72,0,0,1-.35,2.42h-6.2v15c0,4.72,2,5.55,3.48,5.55a8.23,8.23,0,0,0,3.49-.89l.53,1.59Z" transform="translate(-20.67 -23.9)"/><path class="cls-1" d="M483.52,277.28v-1.59c3.66-.36,4.07-.71,4.07-4.73V258.87c0-3.72-.23-4-3.6-4.49v-1.47a45.91,45.91,0,0,0,8.8-2.24V271c0,4,.35,4.37,4.13,4.73v1.59Zm3.13-34.64a3.24,3.24,0,0,1,3.24-3.3,3.25,3.25,0,0,1-.05,6.49A3.25,3.25,0,0,1,486.65,242.64Z" transform="translate(-20.67 -23.9)"/><path class="cls-1" d="M526.77,263.88c0,9.56-6.9,14.11-12.92,14.11a12.82,12.82,0,0,1-13.1-13c0-9.74,7.55-14.22,13.16-14.22A12.85,12.85,0,0,1,526.77,263.88Zm-20-.88c0,7.43,3,13,7.73,13,3.36,0,6.25-2.48,6.25-10.68,0-7.14-2.65-12.57-7.55-12.57C509.78,252.73,506.77,256.27,506.77,263Z" transform="translate(-20.67 -23.9)"/><path class="cls-1" d="M546.66,277.28v-1.59c3.31-.36,3.72-.77,3.72-4.9v-9.86c0-4.13-1.54-6.55-5.14-6.55-2.18,0-4.36,1.36-6.07,2.84v13.92c0,3.95.35,4.19,3.65,4.55v1.59h-13v-1.59c3.9-.42,4.19-.71,4.19-4.61V258.87c0-3.72-.35-3.9-3.48-4.49V253a44.2,44.2,0,0,0,8.68-2.42v4.66c1.18-.88,2.42-1.77,3.89-2.71a8.59,8.59,0,0,1,4.84-1.77c4.72,0,7.61,3.3,7.61,9v11.39c0,3.95.36,4.13,3.72,4.55v1.59Z" transform="translate(-20.67 -23.9)"/><path class="cls-1" d="M602.6,263.88c0,9.56-6.9,14.11-12.92,14.11a12.82,12.82,0,0,1-13.1-13c0-9.74,7.55-14.22,13.16-14.22A12.85,12.85,0,0,1,602.6,263.88Zm-20-.88c0,7.43,3,13,7.73,13,3.36,0,6.25-2.48,6.25-10.68,0-7.14-2.65-12.57-7.55-12.57C585.61,252.73,582.6,256.27,582.6,263Z" transform="translate(-20.67 -23.9)"/><path class="cls-1" d="M609.74,251.43v-1.29a16,16,0,0,1,.65-4.67,15.25,15.25,0,0,1,4.67-7,12.47,12.47,0,0,1,6.6-3.13,6.23,6.23,0,0,1,4.66,2,2,2,0,0,1,.36,2.18,3.9,3.9,0,0,1-1.24,1.54,1.1,1.1,0,0,1-1.65-.12,7.43,7.43,0,0,0-4.84-2.36,3.16,3.16,0,0,0-2.89,1.71c-.71,1.12-1.24,3.84-1.12,8.85v2.3h7a2.28,2.28,0,0,1-.65,2.42h-6.31v17c0,4.19.41,4.42,5,4.89v1.54H605.67v-1.59c3.72-.36,4.07-.71,4.07-4.55V253.85h-4.07l-.23-.65,1.65-1.77Z" transform="translate(-20.67 -23.9)"/><path class="cls-1" d="M680,277.75c-.65,0-1.3,0-2-.06-5-.23-7.38-1.59-10-5.43-2-2.77-4-6.37-5.73-9.26-1.06-1.71-2.06-2.42-4.89-2.42h-1.72v9.26c0,5,.53,5.37,5.2,5.73v1.71H644.9v-1.71c4.77-.36,5.31-.77,5.31-5.73V246.3c0-5-.54-5.25-5.08-5.66v-1.72h15c4.48,0,7.37.54,9.62,2.07a8.66,8.66,0,0,1,4,7.73c0,5.07-3.19,8.14-7.49,10,1,1.89,3.42,5.84,5.19,8.5a48.82,48.82,0,0,0,4.72,6.19,8.6,8.6,0,0,0,4.13,2.72Zm-21.77-19.18c2.89,0,4.84-.47,6.31-1.65,2.19-1.77,3.13-4.13,3.13-7.26,0-6.37-4.07-8.73-8.32-8.73a5.61,5.61,0,0,0-3.13.59c-.41.36-.59,1-.59,2.54v14.51Z" transform="translate(-20.67 -23.9)"/><path class="cls-1" d="M714.05,267.9c-.3,2.06-1.54,7.55-2,9.38h-28.8v-1.71c5.32-.42,5.85-.89,5.85-5.73v-23.3c0-5.25-.53-5.49-5-5.9v-1.72h26.55c0,1.42.3,5.43.53,8.56l-1.83.3a14.2,14.2,0,0,0-1.94-5c-.89-1.3-2.48-1.71-6.55-1.71h-4.19c-1.89,0-2.07.18-2.07,1.95v13.27h5.31c5.26,0,5.67-.47,6.38-4.42H708v11.39h-1.77c-.77-4.19-1.24-4.55-6.38-4.55h-5.31v10.92c0,2.77.36,4.13,1.42,4.84s3.19.7,6,.7c4.25,0,6-.47,7.26-1.94a19.55,19.55,0,0,0,3-5.61Z" transform="translate(-20.67 -23.9)"/><path class="cls-1" d="M742,277.28v-1.71c3.66-.48,4.13-1,3.36-3.37s-1.83-5.25-3.06-8.67h-12.4c-.88,2.54-1.71,5-2.47,7.38-1.18,3.59-.77,4.18,3.65,4.66v1.71H718.17v-1.71c3.84-.53,4.6-.95,6.67-6.14L737,238.63l2.06-.59c3.66,10.15,7.61,21.24,11.39,31.45,1.83,5.07,2.65,5.66,6.49,6.08v1.71Zm-5.61-31h-.17c-1.83,4.9-3.6,9.85-5.37,14.63h10.56Z" transform="translate(-20.67 -23.9)"/><path class="cls-1" d="M791,267.9c-.35,1.94-1.59,7.61-2.13,9.38H761.83v-1.71c5-.36,5.49-.77,5.49-5.79V246.36c0-5-.41-5.31-5.19-5.72v-1.72H778v1.72c-4.6.35-5.19.65-5.19,5.72v23.25c0,3.13.29,4.25,1.41,4.84s3.07.7,5.43.7c3.13,0,5.13-.29,6.49-1.82a17,17,0,0,0,3.07-5.85Z" transform="translate(-20.67 -23.9)"/><path class="cls-1" d="M823.19,248.25c-.65-2.89-1.24-4.43-2-5.43-1-1.3-2-1.77-6.32-1.77H811V269.9c0,4.72.47,5.31,6,5.67v1.71H799.65v-1.71c5.31-.36,5.78-.95,5.78-5.67V241.05h-3.36c-4.9,0-6.08.53-6.84,1.83a16.88,16.88,0,0,0-2,5.37h-1.83c.23-3.66.59-7.61.71-10.8h1.24c.82,1.36,1.59,1.47,3.24,1.47h23.43a3.09,3.09,0,0,0,3-1.47h1.29c0,2.65.3,7.14.59,10.62Z" transform="translate(-20.67 -23.9)"/><path class="cls-1" d="M868.39,257.63c0,12.75-9,20.53-19.82,20.53s-19.36-8.38-19.36-19.7c0-10.51,7.44-20.42,20-20.42C859.42,238,868.39,245.83,868.39,257.63Zm-32.57-.71c0,10.86,5.78,19.06,14,19.06,6.38,0,12-5.49,12-16.76,0-12.33-6.13-19-13.75-19C841.6,240.22,835.82,246,835.82,256.92Z" transform="translate(-20.67 -23.9)"/><path class="cls-1" d="M907.46,277.75c-.65,0-1.3,0-2-.06-5-.23-7.38-1.59-10-5.43-1.95-2.77-4-6.37-5.73-9.26-1.06-1.71-2.06-2.42-4.89-2.42h-1.71v9.26c0,5,.53,5.37,5.19,5.73v1.71H872.35v-1.71c4.78-.36,5.31-.77,5.31-5.73V246.3c0-5-.53-5.25-5.08-5.66v-1.72h15c4.49,0,7.38.54,9.62,2.07a8.66,8.66,0,0,1,3.95,7.73c0,5.07-3.18,8.14-7.49,10,1,1.89,3.42,5.84,5.19,8.5a48.82,48.82,0,0,0,4.72,6.19,8.64,8.64,0,0,0,4.13,2.72Zm-21.78-19.18c2.89,0,4.84-.47,6.32-1.65,2.18-1.77,3.12-4.13,3.12-7.26,0-6.37-4.07-8.73-8.32-8.73a5.54,5.54,0,0,0-3.12.59c-.42.36-.59,1-.59,2.54v14.51Z" transform="translate(-20.67 -23.9)"/><path class="cls-1" d="M931.76,248c-1.06-3.72-2.77-7.91-7.79-7.91a6.11,6.11,0,0,0-6.43,6.38c0,4.13,2.71,6.13,7.49,8.55s10.21,5.31,10.21,11.8c0,6.32-5.31,11.33-13.33,11.33a19.07,19.07,0,0,1-5.79-.88,20.85,20.85,0,0,1-3.06-1.24,71.93,71.93,0,0,1-1.6-9.32l1.83-.48c1,3.66,3.72,9.74,9.74,9.74,4.31,0,6.9-2.71,6.9-6.9s-3.13-6.32-7.55-8.68c-4.19-2.18-9.86-5.19-9.86-11.68,0-5.78,4.67-10.68,12.4-10.68a24.22,24.22,0,0,1,7.55,1.42c.23,2.12.59,4.48,1.06,8.2Z" transform="translate(-20.67 -23.9)"/><path class="cls-1" d="M267.39,235.14c15.87-14,28.39-32.2,20.57-54.13-11.66-32.69-54-34.46-82.33-27-40,10.59-70.62,40-95.73,71.35-7.57,9.48-15.15,19-23.72,27.61A69.21,69.21,0,0,1,71.9,264.55a32.33,32.33,0,0,1-17.56,4.65c-17-.95-34.64-20.49-33.39-37.65-.75,10.33-.15,21,3.61,30.81,3.87,10.07,11.52,19.07,21.7,22.68,14.89,5.28,31.4-1.78,44.05-11.23C110,259.14,124.59,238.88,141.39,221c13.11-13.95,27.87-26.68,45.1-35s37.17-12,55.78-7.59c12.63,3,25.14,10.64,29.53,22.86C275.75,212.27,272.34,224.57,267.39,235.14Z" transform="translate(-20.67 -23.9)"/><path class="cls-1" d="M942.53,352.33c-10.67-12.49-25.94-21-41.56-26.48-27.39-9.67-57.19-12.68-86-14.3-64.76-3.64-129.16,4.58-192.76,16.14-61,11.1-121.6,25.06-183.32,31.76-14.65,1.58-28.89,2.62-43.36,3.07a368.54,368.54,0,0,1-39.17-.76c-29-2.14-58.81-6.94-85.53-18.92C244.29,331,221.37,311,211.25,283.19c-8.95-24.6-5.77-55.67,16.35-72.43,3.82-2.9,10.09-6.67,14.27-7,1.29-.11,11-.92,5.38-2.74-6-1.94-14.39-1.25-20.52-.72-13.94,1.22-25.81,5.65-35.36,16.18a59,59,0,0,0-14.8,35.78c-1.86,28,13.4,54.91,34.35,72.59,23,19.45,53,28.92,82.19,34.3,32.48,6,65.64,8,98.63,7.53,65.24-1,129.41-12.42,193.28-24.85,60.24-11.72,121.5-25.36,182.58-26.87a512.36,512.36,0,0,1,69.08,2.55,137,137,0,0,0-14.53,1.74c-28.06,5-60.48,19.68-77.39,43.5-.59.82-4.17,6.47-1.24,3.82,132.32-74.34,199.78-6.64,210.12,4.85v0s0,0,0,0c1,1.08,1.44,1.66,1.41,1.59A66.49,66.49,0,0,0,942.53,352.33Z" transform="translate(-20.67 -23.9)"/><path class="cls-1" d="M374.2,115.59C371.43,105.89,367,95,353.87,95c-11.24,0-16.78,8.16-16.78,16.63,0,10.78,7.08,16,19.56,22.33,12.78,6.47,26.64,13.87,26.64,30.81,0,16.48-13.86,29.57-34.81,29.57A49.4,49.4,0,0,1,333.39,192a56.06,56.06,0,0,1-8-3.24c-1.23-3.39-3.23-16.48-4.15-24.33l4.77-1.23c2.46,9.54,9.7,25.41,25.41,25.41,11.24,0,18-7.09,18-18s-8.16-16.48-19.71-22.64c-10.94-5.7-25.72-13.55-25.72-30.49,0-15.1,12.16-27.88,32.34-27.88,7.7,0,14.48,2,19.71,3.7.62,5.54,1.54,11.7,2.77,21.4Z" transform="translate(-20.67 -23.9)"/><path class="cls-1" d="M459.68,157c0,24.94-18,36.8-33.73,36.8-21.72,0-34.19-17.09-34.19-34,0-25.41,19.71-37.12,34.34-37.12C445.51,122.67,459.68,138.23,459.68,157Zm-52.21-2.31c0,19.4,7.85,33.88,20.17,33.88,8.78,0,16.33-6.47,16.33-27.88,0-18.63-6.93-32.8-19.72-32.8C415.32,127.91,407.47,137.15,407.47,154.71Z" transform="translate(-20.67 -23.9)"/><path class="cls-1" d="M539.3,188.28a184.8,184.8,0,0,0-23.57,5.54l-1.07-.92V182.27A98.34,98.34,0,0,1,504,189.82c-4.47,2.62-8,4-12.17,4-10.78,0-19.25-6.62-19.25-22.79V140.69c0-8.47-.61-9.09-9.39-10.63v-3.85a208.93,208.93,0,0,0,23.41-2.77c-.47,5.08-.62,12.48-.62,22.64V167c0,13.09,6.47,16.78,13.09,16.78,5.39,0,10.63-2.15,15.56-6.93V140.69c0-8.62-.77-9.24-11.55-10.63v-3.85a177.55,177.55,0,0,0,25.1-2.77v51.13c0,7.86,1.23,8.93,7.08,9.4l4,.31Z" transform="translate(-20.67 -23.9)"/><path class="cls-1" d="M574.72,191.82a15,15,0,0,1-6.32,2c-10.16,0-15.86-6-15.86-18.48v-44.5H542.07l-.62-1.7,4.16-4.62h6.93V113.28l11.4-10.47,2,.46v21.25H583c1.54,1.54,1.08,5.08-.92,6.32H565.94v39.27c0,12.32,5.23,14.47,9.08,14.47a21.22,21.22,0,0,0,9.09-2.31l1.39,4.16Z" transform="translate(-20.67 -23.9)"/><path class="cls-1" d="M634.08,192v-4.16c8.62-.93,9.7-2,9.7-11.71V150.39c0-12.62-4.93-18.48-14.32-18.48a20.79,20.79,0,0,0-15.25,7.24v37c0,9.71.93,10.78,9.55,11.71V192H590.34v-4.16c9.24-.93,10.47-1.7,10.47-11.86V102.81c0-9.55-.46-10.17-10.16-11.09V88a196.87,196.87,0,0,0,23.56-5.39v51c5.55-5.39,13.71-10.94,21.87-10.94,12.63,0,21.25,8,21.25,26.18v27.26c0,10,1.08,10.78,9.86,11.71V192Z" transform="translate(-20.67 -23.9)"/><path class="cls-1" d="M750.59,138.07c15.71,2.31,27.72,9.09,27.72,24.49,0,10.16-5.7,18.17-14.63,23.1C755.82,190.13,745.2,192,733,192h-35v-4.47c12.94-.92,13.86-2,13.86-14.79v-61.6c0-12.78-.61-13.71-12.78-14.78V91.87h40.5c11.71,0,18.64,1.85,23.72,5.24,5.39,3.69,8.62,10.32,8.62,17.55,0,14.63-12.32,20.64-21.4,23Zm-17.71-1.85c16.63,0,23.56-6.62,23.56-19.55,0-11.09-6.31-19.56-19.87-19.56-3.69,0-6.93.61-8.31,1.54s-1.85,2.77-1.85,7.54v30Zm-6.47,36.2c0,11.08,2.92,14.17,12.47,14,11.86,0,22.8-6.47,22.8-22.48,0-15.4-10.48-22.49-29-22.49h-6.31Z" transform="translate(-20.67 -23.9)"/><path class="cls-1" d="M835.52,193.82a11.89,11.89,0,0,1-7.55-3.08,13.63,13.63,0,0,1-3.7-6.62c-6.16,4.16-13.55,9.7-17.86,9.7a19,19,0,0,1-18.94-18.94c0-7.7,4-12.32,12.32-15.09,9.24-3.24,20.63-7.39,24-10.17v-3.08c0-10.78-4.93-16.94-12.32-16.94a8.38,8.38,0,0,0-6.62,2.93c-1.85,2.15-3.23,5.54-4.47,10.32-.77,2.77-2.46,3.85-4.92,3.85-2.93,0-7.24-3.08-7.24-6.78,0-2.46,2-4.16,5.08-6.47,4.47-3.23,14.78-9.08,23.56-10.78a20.67,20.67,0,0,1,12.94,4.16c5.7,4.62,7.24,10.94,7.24,19.25v28c0,6.93,2.62,9.09,5.23,9.09a13.56,13.56,0,0,0,5.55-1.54l1.54,4.16ZM823.81,155c-3.23,1.7-9.55,4.62-12.93,6.16-5.7,2.78-8.94,5.55-8.94,11.25,0,8,6,11.7,10.63,11.7,3.7,0,8.47-2.31,11.24-4.93Z" transform="translate(-20.67 -23.9)"/><path class="cls-1" d="M920.52,128.52c-8,1.39-9.39,2.62-13.55,11.25-3.85,8.16-8.62,20.94-19.09,45.74-10.17,24.64-13.56,33.57-15.87,41.89-.77,3.08-2.77,3.85-5.08,3.85-4.31,0-9.09-3.85-9.09-7.86,0-2.46,1.39-3.85,4-5.7,5.08-3.08,8.16-6.62,11.7-13.24a69.21,69.21,0,0,0,4.47-9.7,10.26,10.26,0,0,0-.31-7.09c-6.62-18.32-13.71-37.57-18-47.89-3.23-8-4.77-10-12.93-11.25v-4h32.49v4c-7.08,1.24-8,2.78-6,8.32L887,174.73c4.16-10.32,10.47-27.88,13.55-37.43,1.85-5.7.77-7.39-7.85-8.78v-4h27.87Z" transform="translate(-20.67 -23.9)"/><path class="cls-1" d="M318.07,33a12.26,12.26,0,0,0-7.51-1.83,38,38,0,0,1-8-.65c-1.81-.44-8.79-4.53-13.14-5.67s-9.41-1.81-16.6,1.69-8.21,10.72-9.26,15S262.53,53,262.19,55.31,261,60,257.37,62.12c0,0-9.44,5.14-15.11,7.36S225.87,74,213.39,82.73s-17.49,17-32.54,27.38c-31.32,21.52-53.69,24.67-54.5,25.31a10.74,10.74,0,0,0,2.33.67,67.53,67.53,0,0,0,9.54.48A329.14,329.14,0,0,0,187,132.5c14.18-2.12,28.34-3.38,42.23-7.2a89.4,89.4,0,0,0,22.49-9.15c6.21-3.72,13.35-9.14,16.81-15.7,3.29-6.24,2.65-14.7-2.18-20,4.8,1.4,7.73,7.31,8.12,11.92a20.73,20.73,0,0,1-4.22,13.65,36.91,36.91,0,0,1-10.94,9.52c-8.33,5-17.9,8.35-27.54,10.72l2.38-.26c3.5-.4,20.94-2.89,26.35-5.25s11.9-6.37,18.93-14.34c3.93-4.46,8.21-11.54,9.7-16.16S291,75.82,291,75.82c.5-4.43.1-9.57-1.14-16.51s-1.08-10.38,1.32-14.82,10-6,10-6,6.95-.51,8.66-.53,3.26.51,5.07.5a17,17,0,0,0,5-1,2.41,2.41,0,0,1,1.63-.1A10.48,10.48,0,0,0,318.07,33Z" transform="translate(-20.67 -23.9)"/><path class="cls-1" d="M234.3,134.07v-6.36l-2.66.24v20.78l2.66,0v-8.33h0c.2-.14,1.19-.44,1.07-3.11C235.34,135.79,234.47,135,234.3,134.07Z" transform="translate(-20.67 -23.9)"/><path class="cls-1" d="M244.57,134.62v-8.16l-2.66.34v22.36l2.66.19v-8.42l0,0c.2-.13,1.19-.44,1.07-3.11C245.6,136.34,244.74,135.52,244.57,134.62Z" transform="translate(-20.67 -23.9)"/><path class="cls-1" d="M955,245.66a6.7,6.7,0,1,1-6.7-6.7A6.6,6.6,0,0,1,955,245.66Zm-12.35,0a5.66,5.66,0,1,0,5.65-5.75A5.6,5.6,0,0,0,942.62,245.66Zm4.18,3.87h-1v-7.75h3c1.74,0,2.52.76,2.52,2.15a2.09,2.09,0,0,1-2,2.16l2.31,3.44h-1.12l-2.18-3.44h-1.6Zm1.26-4.25c1.17,0,2.32,0,2.32-1.35,0-1.08-.9-1.34-1.83-1.34H946.8v2.69Z" transform="translate(-20.67 -23.9)"/><path class="cls-1" d="M302.37,277.28v-1.71c3.66-.48,4.13-1,3.36-3.37s-1.83-5.25-3.07-8.67H290.27c-.88,2.54-1.71,5-2.48,7.38-1.18,3.59-.76,4.18,3.66,4.66v1.71H278.53v-1.71c3.84-.53,4.6-.95,6.67-6.14l12.15-30.8,2.07-.59c3.66,10.15,7.61,21.24,11.39,31.45,1.83,5.07,2.65,5.66,6.49,6.08v1.71Zm-5.61-31h-.17c-1.83,4.9-3.6,9.85-5.37,14.63h10.56Z" transform="translate(-20.67 -23.9)"/><path class="cls-1" d="M334.71,258.51c-1.18-3.48-3.19-5.84-6.08-5.84a3.67,3.67,0,0,0-3.66,3.9c0,2.48,2.12,3.83,4.84,5,4.54,1.89,7.55,4,7.55,8.15,0,5.48-5.07,8.26-9.85,8.26a12.13,12.13,0,0,1-6.91-2,31.43,31.43,0,0,1-1-7.14l1.65-.24c1.06,3.84,3.72,7.38,7.32,7.38a3.93,3.93,0,0,0,4-4c0-2.48-1.53-3.84-4.6-5.31-3.42-1.6-7.49-3.6-7.49-8.21,0-4.24,3.6-7.78,9.14-7.78a12.76,12.76,0,0,1,5.37,1.06,46.77,46.77,0,0,1,1.3,6.31Z" transform="translate(-20.67 -23.9)"/><path class="cls-1" d="M357.13,258.51c-1.18-3.48-3.19-5.84-6.08-5.84a3.67,3.67,0,0,0-3.66,3.9c0,2.48,2.13,3.83,4.84,5,4.54,1.89,7.55,4,7.55,8.15,0,5.48-5.07,8.26-9.85,8.26a12.06,12.06,0,0,1-6.9-2,30.79,30.79,0,0,1-1-7.14l1.66-.24c1.06,3.84,3.71,7.38,7.31,7.38a3.93,3.93,0,0,0,4-4c0-2.48-1.54-3.84-4.61-5.31-3.42-1.6-7.49-3.6-7.49-8.21,0-4.24,3.6-7.78,9.14-7.78a12.76,12.76,0,0,1,5.37,1.06,43.88,43.88,0,0,1,1.3,6.31Z" transform="translate(-20.67 -23.9)"/><path class="cls-1" d="M389.94,263.88c0,9.56-6.9,14.11-12.92,14.11a12.82,12.82,0,0,1-13.1-13c0-9.74,7.55-14.22,13.16-14.22A12.85,12.85,0,0,1,389.94,263.88Zm-20-.88c0,7.43,3,13,7.73,13,3.36,0,6.25-2.48,6.25-10.68,0-7.14-2.66-12.57-7.55-12.57C373,252.73,369.94,256.27,369.94,263Z" transform="translate(-20.67 -23.9)"/><path class="cls-1" d="M416.67,271.91c-2.66,3.48-6.55,6.08-10,6.08-7.61,0-12-6-12-12.4a14.11,14.11,0,0,1,6-11.44,15.78,15.78,0,0,1,9.09-3.42,8.43,8.43,0,0,1,5.19,1.53,2.09,2.09,0,0,1,1,1.83c0,1.36-1.35,2.71-2.06,2.71-.36,0-.65-.17-1.12-.65a8.74,8.74,0,0,0-6-2.53c-3.6,0-6.85,3.07-6.85,9.26,0,8.14,5.61,10.86,8.8,10.86,2.47,0,4.36-.71,7-3.13Z" transform="translate(-20.67 -23.9)"/><path class="cls-1" d="M420.09,277.28v-1.59c3.66-.36,4.07-.71,4.07-4.73V258.87c0-3.72-.23-4-3.6-4.49v-1.47a45.91,45.91,0,0,0,8.8-2.24V271c0,4,.35,4.37,4.13,4.73v1.59Zm3.13-34.64a3.25,3.25,0,0,1,3.25-3.3,3.25,3.25,0,0,1-.06,6.49A3.26,3.26,0,0,1,423.22,242.64Z" transform="translate(-20.67 -23.9)"/><path class="cls-1" d="M456,278a4.54,4.54,0,0,1-2.89-1.18,5.27,5.27,0,0,1-1.42-2.54c-2.36,1.59-5.19,3.72-6.84,3.72a7.29,7.29,0,0,1-7.26-7.26c0-3,1.53-4.72,4.72-5.78,3.54-1.24,7.91-2.84,9.2-3.9v-1.18c0-4.13-1.88-6.49-4.72-6.49a3.19,3.19,0,0,0-2.53,1.12,10.11,10.11,0,0,0-1.72,4,1.77,1.77,0,0,1-1.88,1.47,3,3,0,0,1-2.78-2.6c0-.94.77-1.59,1.95-2.47a26.78,26.78,0,0,1,9-4.13,7.94,7.94,0,0,1,5,1.59c2.18,1.77,2.77,4.19,2.77,7.37v10.74c0,2.66,1,3.49,2,3.49a5.28,5.28,0,0,0,2.13-.59l.59,1.59Zm-4.49-14.87c-1.24.65-3.65,1.77-5,2.36-2.19,1.06-3.43,2.12-3.43,4.3a4.22,4.22,0,0,0,4.08,4.49,7.16,7.16,0,0,0,4.3-1.89Z" transform="translate(-20.67 -23.9)"/><path class="cls-1" d="M476.09,277.22a5.85,5.85,0,0,1-2.42.77c-3.9,0-6.08-2.3-6.08-7.08V253.85h-4l-.24-.65,1.59-1.77h2.66v-4.3l4.37-4,.76.18v8.14h6.55a1.72,1.72,0,0,1-.35,2.42h-6.2v15c0,4.72,2,5.55,3.48,5.55a8.23,8.23,0,0,0,3.49-.89l.53,1.59Z" transform="translate(-20.67 -23.9)"/><path class="cls-1" d="M483.52,277.28v-1.59c3.66-.36,4.07-.71,4.07-4.73V258.87c0-3.72-.23-4-3.6-4.49v-1.47a45.91,45.91,0,0,0,8.8-2.24V271c0,4,.35,4.37,4.13,4.73v1.59Zm3.13-34.64a3.24,3.24,0,0,1,3.24-3.3,3.25,3.25,0,0,1-.05,6.49A3.25,3.25,0,0,1,486.65,242.64Z" transform="translate(-20.67 -23.9)"/><path class="cls-1" d="M526.77,263.88c0,9.56-6.9,14.11-12.92,14.11a12.82,12.82,0,0,1-13.1-13c0-9.74,7.55-14.22,13.16-14.22A12.85,12.85,0,0,1,526.77,263.88Zm-20-.88c0,7.43,3,13,7.73,13,3.36,0,6.25-2.48,6.25-10.68,0-7.14-2.65-12.57-7.55-12.57C509.78,252.73,506.77,256.27,506.77,263Z" transform="translate(-20.67 -23.9)"/><path class="cls-1" d="M546.66,277.28v-1.59c3.31-.36,3.72-.77,3.72-4.9v-9.86c0-4.13-1.54-6.55-5.14-6.55-2.18,0-4.36,1.36-6.07,2.84v13.92c0,3.95.35,4.19,3.65,4.55v1.59h-13v-1.59c3.9-.42,4.19-.71,4.19-4.61V258.87c0-3.72-.35-3.9-3.48-4.49V253a44.2,44.2,0,0,0,8.68-2.42v4.66c1.18-.88,2.42-1.77,3.89-2.71a8.59,8.59,0,0,1,4.84-1.77c4.72,0,7.61,3.3,7.61,9v11.39c0,3.95.36,4.13,3.72,4.55v1.59Z" transform="translate(-20.67 -23.9)"/><path class="cls-1" d="M602.6,263.88c0,9.56-6.9,14.11-12.92,14.11a12.82,12.82,0,0,1-13.1-13c0-9.74,7.55-14.22,13.16-14.22A12.85,12.85,0,0,1,602.6,263.88Zm-20-.88c0,7.43,3,13,7.73,13,3.36,0,6.25-2.48,6.25-10.68,0-7.14-2.65-12.57-7.55-12.57C585.61,252.73,582.6,256.27,582.6,263Z" transform="translate(-20.67 -23.9)"/><path class="cls-1" d="M609.74,251.43v-1.29a16,16,0,0,1,.65-4.67,15.25,15.25,0,0,1,4.67-7,12.47,12.47,0,0,1,6.6-3.13,6.23,6.23,0,0,1,4.66,2,2,2,0,0,1,.36,2.18,3.9,3.9,0,0,1-1.24,1.54,1.1,1.1,0,0,1-1.65-.12,7.43,7.43,0,0,0-4.84-2.36,3.16,3.16,0,0,0-2.89,1.71c-.71,1.12-1.24,3.84-1.12,8.85v2.3h7a2.28,2.28,0,0,1-.65,2.42h-6.31v17c0,4.19.41,4.42,5,4.89v1.54H605.67v-1.59c3.72-.36,4.07-.71,4.07-4.55V253.85h-4.07l-.23-.65,1.65-1.77Z" transform="translate(-20.67 -23.9)"/><path class="cls-1" d="M680,277.75c-.65,0-1.3,0-2-.06-5-.23-7.38-1.59-10-5.43-2-2.77-4-6.37-5.73-9.26-1.06-1.71-2.06-2.42-4.89-2.42h-1.72v9.26c0,5,.53,5.37,5.2,5.73v1.71H644.9v-1.71c4.77-.36,5.31-.77,5.31-5.73V246.3c0-5-.54-5.25-5.08-5.66v-1.72h15c4.48,0,7.37.54,9.62,2.07a8.66,8.66,0,0,1,4,7.73c0,5.07-3.19,8.14-7.49,10,1,1.89,3.42,5.84,5.19,8.5a48.82,48.82,0,0,0,4.72,6.19,8.6,8.6,0,0,0,4.13,2.72Zm-21.77-19.18c2.89,0,4.84-.47,6.31-1.65,2.19-1.77,3.13-4.13,3.13-7.26,0-6.37-4.07-8.73-8.32-8.73a5.61,5.61,0,0,0-3.13.59c-.41.36-.59,1-.59,2.54v14.51Z" transform="translate(-20.67 -23.9)"/><path class="cls-1" d="M714.05,267.9c-.3,2.06-1.54,7.55-2,9.38h-28.8v-1.71c5.32-.42,5.85-.89,5.85-5.73v-23.3c0-5.25-.53-5.49-5-5.9v-1.72h26.55c0,1.42.3,5.43.53,8.56l-1.83.3a14.2,14.2,0,0,0-1.94-5c-.89-1.3-2.48-1.71-6.55-1.71h-4.19c-1.89,0-2.07.18-2.07,1.95v13.27h5.31c5.26,0,5.67-.47,6.38-4.42H708v11.39h-1.77c-.77-4.19-1.24-4.55-6.38-4.55h-5.31v10.92c0,2.77.36,4.13,1.42,4.84s3.19.7,6,.7c4.25,0,6-.47,7.26-1.94a19.55,19.55,0,0,0,3-5.61Z" transform="translate(-20.67 -23.9)"/><path class="cls-1" d="M742,277.28v-1.71c3.66-.48,4.13-1,3.36-3.37s-1.83-5.25-3.06-8.67h-12.4c-.88,2.54-1.71,5-2.47,7.38-1.18,3.59-.77,4.18,3.65,4.66v1.71H718.17v-1.71c3.84-.53,4.6-.95,6.67-6.14L737,238.63l2.06-.59c3.66,10.15,7.61,21.24,11.39,31.45,1.83,5.07,2.65,5.66,6.49,6.08v1.71Zm-5.61-31h-.17c-1.83,4.9-3.6,9.85-5.37,14.63h10.56Z" transform="translate(-20.67 -23.9)"/><path class="cls-1" d="M791,267.9c-.35,1.94-1.59,7.61-2.13,9.38H761.83v-1.71c5-.36,5.49-.77,5.49-5.79V246.36c0-5-.41-5.31-5.19-5.72v-1.72H778v1.72c-4.6.35-5.19.65-5.19,5.72v23.25c0,3.13.29,4.25,1.41,4.84s3.07.7,5.43.7c3.13,0,5.13-.29,6.49-1.82a17,17,0,0,0,3.07-5.85Z" transform="translate(-20.67 -23.9)"/><path class="cls-1" d="M823.19,248.25c-.65-2.89-1.24-4.43-2-5.43-1-1.3-2-1.77-6.32-1.77H811V269.9c0,4.72.47,5.31,6,5.67v1.71H799.65v-1.71c5.31-.36,5.78-.95,5.78-5.67V241.05h-3.36c-4.9,0-6.08.53-6.84,1.83a16.88,16.88,0,0,0-2,5.37h-1.83c.23-3.66.59-7.61.71-10.8h1.24c.82,1.36,1.59,1.47,3.24,1.47h23.43a3.09,3.09,0,0,0,3-1.47h1.29c0,2.65.3,7.14.59,10.62Z" transform="translate(-20.67 -23.9)"/><path class="cls-1" d="M868.39,257.63c0,12.75-9,20.53-19.82,20.53s-19.36-8.38-19.36-19.7c0-10.51,7.44-20.42,20-20.42C859.42,238,868.39,245.83,868.39,257.63Zm-32.57-.71c0,10.86,5.78,19.06,14,19.06,6.38,0,12-5.49,12-16.76,0-12.33-6.13-19-13.75-19C841.6,240.22,835.82,246,835.82,256.92Z" transform="translate(-20.67 -23.9)"/><path class="cls-1" d="M907.46,277.75c-.65,0-1.3,0-2-.06-5-.23-7.38-1.59-10-5.43-1.95-2.77-4-6.37-5.73-9.26-1.06-1.71-2.06-2.42-4.89-2.42h-1.71v9.26c0,5,.53,5.37,5.19,5.73v1.71H872.35v-1.71c4.78-.36,5.31-.77,5.31-5.73V246.3c0-5-.53-5.25-5.08-5.66v-1.72h15c4.49,0,7.38.54,9.62,2.07a8.66,8.66,0,0,1,3.95,7.73c0,5.07-3.18,8.14-7.49,10,1,1.89,3.42,5.84,5.19,8.5a48.82,48.82,0,0,0,4.72,6.19,8.64,8.64,0,0,0,4.13,2.72Zm-21.78-19.18c2.89,0,4.84-.47,6.32-1.65,2.18-1.77,3.12-4.13,3.12-7.26,0-6.37-4.07-8.73-8.32-8.73a5.54,5.54,0,0,0-3.12.59c-.42.36-.59,1-.59,2.54v14.51Z" transform="translate(-20.67 -23.9)"/><path class="cls-1" d="M931.76,248c-1.06-3.72-2.77-7.91-7.79-7.91a6.11,6.11,0,0,0-6.43,6.38c0,4.13,2.71,6.13,7.49,8.55s10.21,5.31,10.21,11.8c0,6.32-5.31,11.33-13.33,11.33a19.07,19.07,0,0,1-5.79-.88,20.85,20.85,0,0,1-3.06-1.24,71.93,71.93,0,0,1-1.6-9.32l1.83-.48c1,3.66,3.72,9.74,9.74,9.74,4.31,0,6.9-2.71,6.9-6.9s-3.13-6.32-7.55-8.68c-4.19-2.18-9.86-5.19-9.86-11.68,0-5.78,4.67-10.68,12.4-10.68a24.22,24.22,0,0,1,7.55,1.42c.23,2.12.59,4.48,1.06,8.2Z" transform="translate(-20.67 -23.9)"/><path class="cls-1" d="M267.39,235.14c15.87-14,28.39-32.2,20.57-54.13-11.66-32.69-54-34.46-82.33-27-40,10.59-70.62,40-95.73,71.35-7.57,9.48-15.15,19-23.72,27.61A69.21,69.21,0,0,1,71.9,264.55a32.33,32.33,0,0,1-17.56,4.65c-17-.95-34.64-20.49-33.39-37.65-.75,10.33-.15,21,3.61,30.81,3.87,10.07,11.52,19.07,21.7,22.68,14.89,5.28,31.4-1.78,44.05-11.23C110,259.14,124.59,238.88,141.39,221c13.11-13.95,27.87-26.68,45.1-35s37.17-12,55.78-7.59c12.63,3,25.14,10.64,29.53,22.86C275.75,212.27,272.34,224.57,267.39,235.14Z" transform="translate(-20.67 -23.9)"/><path class="cls-1" d="M942.53,352.33c-10.67-12.49-25.94-21-41.56-26.48-27.39-9.67-57.19-12.68-86-14.3-64.76-3.64-129.16,4.58-192.76,16.14-61,11.1-121.6,25.06-183.32,31.76-14.65,1.58-28.89,2.62-43.36,3.07a368.54,368.54,0,0,1-39.17-.76c-29-2.14-58.81-6.94-85.53-18.92C244.29,331,221.37,311,211.25,283.19c-8.95-24.6-5.77-55.67,16.35-72.43,3.82-2.9,10.09-6.67,14.27-7,1.29-.11,11-.92,5.38-2.74-6-1.94-14.39-1.25-20.52-.72-13.94,1.22-25.81,5.65-35.36,16.18a59,59,0,0,0-14.8,35.78c-1.86,28,13.4,54.91,34.35,72.59,23,19.45,53,28.92,82.19,34.3,32.48,6,65.64,8,98.63,7.53,65.24-1,129.41-12.42,193.28-24.85,60.24-11.72,121.5-25.36,182.58-26.87a512.36,512.36,0,0,1,69.08,2.55,137,137,0,0,0-14.53,1.74c-28.06,5-60.48,19.68-77.39,43.5-.59.82-4.17,6.47-1.24,3.82,132.32-74.34,199.78-6.64,210.12,4.85v0s0,0,0,0c1,1.08,1.44,1.66,1.41,1.59A66.49,66.49,0,0,0,942.53,352.33Z" transform="translate(-20.67 -23.9)"/><path class="cls-1" d="M374.2,115.59C371.43,105.89,367,95,353.87,95c-11.24,0-16.78,8.16-16.78,16.63,0,10.78,7.08,16,19.56,22.33,12.78,6.47,26.64,13.87,26.64,30.81,0,16.48-13.86,29.57-34.81,29.57A49.4,49.4,0,0,1,333.39,192a56.06,56.06,0,0,1-8-3.24c-1.23-3.39-3.23-16.48-4.15-24.33l4.77-1.23c2.46,9.54,9.7,25.41,25.41,25.41,11.24,0,18-7.09,18-18s-8.16-16.48-19.71-22.64c-10.94-5.7-25.72-13.55-25.72-30.49,0-15.1,12.16-27.88,32.34-27.88,7.7,0,14.48,2,19.71,3.7.62,5.54,1.54,11.7,2.77,21.4Z" transform="translate(-20.67 -23.9)"/><path class="cls-1" d="M459.68,157c0,24.94-18,36.8-33.73,36.8-21.72,0-34.19-17.09-34.19-34,0-25.41,19.71-37.12,34.34-37.12C445.51,122.67,459.68,138.23,459.68,157Zm-52.21-2.31c0,19.4,7.85,33.88,20.17,33.88,8.78,0,16.33-6.47,16.33-27.88,0-18.63-6.93-32.8-19.72-32.8C415.32,127.91,407.47,137.15,407.47,154.71Z" transform="translate(-20.67 -23.9)"/><path class="cls-1" d="M539.3,188.28a184.8,184.8,0,0,0-23.57,5.54l-1.07-.92V182.27A98.34,98.34,0,0,1,504,189.82c-4.47,2.62-8,4-12.17,4-10.78,0-19.25-6.62-19.25-22.79V140.69c0-8.47-.61-9.09-9.39-10.63v-3.85a208.93,208.93,0,0,0,23.41-2.77c-.47,5.08-.62,12.48-.62,22.64V167c0,13.09,6.47,16.78,13.09,16.78,5.39,0,10.63-2.15,15.56-6.93V140.69c0-8.62-.77-9.24-11.55-10.63v-3.85a177.55,177.55,0,0,0,25.1-2.77v51.13c0,7.86,1.23,8.93,7.08,9.4l4,.31Z" transform="translate(-20.67 -23.9)"/><path class="cls-1" d="M574.72,191.82a15,15,0,0,1-6.32,2c-10.16,0-15.86-6-15.86-18.48v-44.5H542.07l-.62-1.7,4.16-4.62h6.93V113.28l11.4-10.47,2,.46v21.25H583c1.54,1.54,1.08,5.08-.92,6.32H565.94v39.27c0,12.32,5.23,14.47,9.08,14.47a21.22,21.22,0,0,0,9.09-2.31l1.39,4.16Z" transform="translate(-20.67 -23.9)"/><path class="cls-1" d="M634.08,192v-4.16c8.62-.93,9.7-2,9.7-11.71V150.39c0-12.62-4.93-18.48-14.32-18.48a20.79,20.79,0,0,0-15.25,7.24v37c0,9.71.93,10.78,9.55,11.71V192H590.34v-4.16c9.24-.93,10.47-1.7,10.47-11.86V102.81c0-9.55-.46-10.17-10.16-11.09V88a196.87,196.87,0,0,0,23.56-5.39v51c5.55-5.39,13.71-10.94,21.87-10.94,12.63,0,21.25,8,21.25,26.18v27.26c0,10,1.08,10.78,9.86,11.71V192Z" transform="translate(-20.67 -23.9)"/><path class="cls-1" d="M750.59,138.07c15.71,2.31,27.72,9.09,27.72,24.49,0,10.16-5.7,18.17-14.63,23.1C755.82,190.13,745.2,192,733,192h-35v-4.47c12.94-.92,13.86-2,13.86-14.79v-61.6c0-12.78-.61-13.71-12.78-14.78V91.87h40.5c11.71,0,18.64,1.85,23.72,5.24,5.39,3.69,8.62,10.32,8.62,17.55,0,14.63-12.32,20.64-21.4,23Zm-17.71-1.85c16.63,0,23.56-6.62,23.56-19.55,0-11.09-6.31-19.56-19.87-19.56-3.69,0-6.93.61-8.31,1.54s-1.85,2.77-1.85,7.54v30Zm-6.47,36.2c0,11.08,2.92,14.17,12.47,14,11.86,0,22.8-6.47,22.8-22.48,0-15.4-10.48-22.49-29-22.49h-6.31Z" transform="translate(-20.67 -23.9)"/><path class="cls-1" d="M835.52,193.82a11.89,11.89,0,0,1-7.55-3.08,13.63,13.63,0,0,1-3.7-6.62c-6.16,4.16-13.55,9.7-17.86,9.7a19,19,0,0,1-18.94-18.94c0-7.7,4-12.32,12.32-15.09,9.24-3.24,20.63-7.39,24-10.17v-3.08c0-10.78-4.93-16.94-12.32-16.94a8.38,8.38,0,0,0-6.62,2.93c-1.85,2.15-3.23,5.54-4.47,10.32-.77,2.77-2.46,3.85-4.92,3.85-2.93,0-7.24-3.08-7.24-6.78,0-2.46,2-4.16,5.08-6.47,4.47-3.23,14.78-9.08,23.56-10.78a20.67,20.67,0,0,1,12.94,4.16c5.7,4.62,7.24,10.94,7.24,19.25v28c0,6.93,2.62,9.09,5.23,9.09a13.56,13.56,0,0,0,5.55-1.54l1.54,4.16ZM823.81,155c-3.23,1.7-9.55,4.62-12.93,6.16-5.7,2.78-8.94,5.55-8.94,11.25,0,8,6,11.7,10.63,11.7,3.7,0,8.47-2.31,11.24-4.93Z" transform="translate(-20.67 -23.9)"/><path class="cls-1" d="M920.52,128.52c-8,1.39-9.39,2.62-13.55,11.25-3.85,8.16-8.62,20.94-19.09,45.74-10.17,24.64-13.56,33.57-15.87,41.89-.77,3.08-2.77,3.85-5.08,3.85-4.31,0-9.09-3.85-9.09-7.86,0-2.46,1.39-3.85,4-5.7,5.08-3.08,8.16-6.62,11.7-13.24a69.21,69.21,0,0,0,4.47-9.7,10.26,10.26,0,0,0-.31-7.09c-6.62-18.32-13.71-37.57-18-47.89-3.23-8-4.77-10-12.93-11.25v-4h32.49v4c-7.08,1.24-8,2.78-6,8.32L887,174.73c4.16-10.32,10.47-27.88,13.55-37.43,1.85-5.7.77-7.39-7.85-8.78v-4h27.87Z" transform="translate(-20.67 -23.9)"/><path class="cls-1" d="M318.07,33a12.26,12.26,0,0,0-7.51-1.83,38,38,0,0,1-8-.65c-1.81-.44-8.79-4.53-13.14-5.67s-9.41-1.81-16.6,1.69-8.21,10.72-9.26,15S262.53,53,262.19,55.31,261,60,257.37,62.12c0,0-9.44,5.14-15.11,7.36S225.87,74,213.39,82.73s-17.49,17-32.54,27.38c-31.32,21.52-53.69,24.67-54.5,25.31a10.74,10.74,0,0,0,2.33.67,67.53,67.53,0,0,0,9.54.48A329.14,329.14,0,0,0,187,132.5c14.18-2.12,28.34-3.38,42.23-7.2a89.4,89.4,0,0,0,22.49-9.15c6.21-3.72,13.35-9.14,16.81-15.7,3.29-6.24,2.65-14.7-2.18-20,4.8,1.4,7.73,7.31,8.12,11.92a20.73,20.73,0,0,1-4.22,13.65,36.91,36.91,0,0,1-10.94,9.52c-8.33,5-17.9,8.35-27.54,10.72l2.38-.26c3.5-.4,20.94-2.89,26.35-5.25s11.9-6.37,18.93-14.34c3.93-4.46,8.21-11.54,9.7-16.16S291,75.82,291,75.82c.5-4.43.1-9.57-1.14-16.51s-1.08-10.38,1.32-14.82,10-6,10-6,6.95-.51,8.66-.53,3.26.51,5.07.5a17,17,0,0,0,5-1,2.41,2.41,0,0,1,1.63-.1A10.48,10.48,0,0,0,318.07,33Z" transform="translate(-20.67 -23.9)"/><path class="cls-1" d="M234.3,134.07v-6.36l-2.66.24v20.78l2.66,0v-8.33h0c.2-.14,1.19-.44,1.07-3.11C235.34,135.79,234.47,135,234.3,134.07Z" transform="translate(-20.67 -23.9)"/><path class="cls-1" d="M244.57,134.62v-8.16l-2.66.34v22.36l2.66.19v-8.42l0,0c.2-.13,1.19-.44,1.07-3.11C245.6,136.34,244.74,135.52,244.57,134.62Z" transform="translate(-20.67 -23.9)"/><path class="cls-1" d="M955,245.66a6.7,6.7,0,1,1-6.7-6.7A6.6,6.6,0,0,1,955,245.66Zm-12.35,0a5.66,5.66,0,1,0,5.65-5.75A5.6,5.6,0,0,0,942.62,245.66Zm4.18,3.87h-1v-7.75h3c1.74,0,2.52.76,2.52,2.15a2.09,2.09,0,0,1-2,2.16l2.31,3.44h-1.12l-2.18-3.44h-1.6Zm1.26-4.25c1.17,0,2.32,0,2.32-1.35,0-1.08-.9-1.34-1.83-1.34H946.8v2.69Z" transform="translate(-20.67 -23.9)"/></svg>