<svg id="Layer_1" data-name="Layer 1" xmlns="http://www.w3.org/2000/svg" viewBox="0 0 373.94 252.26"><defs><style>.cls-1{fill:#1e3d1c;}.cls-2{fill:#40643b;}.cls-3{fill:#60895c;}</style></defs><path class="cls-1" d="M222.38,338.69v35.45h-8.62V338.69h-9.71v-6h28v6Z" transform="translate(-204.05 -148.71)"/><path class="cls-1" d="M258.6,374.14l-8-17.67h-4.89v17.67H237.2V332.72H252a24.94,24.94,0,0,1,5.92.67,12.59,12.59,0,0,1,4.63,2.14,10.15,10.15,0,0,1,3,3.68,12,12,0,0,1,1.1,5.33,11,11,0,0,1-.77,4.24,10.7,10.7,0,0,1-1.93,3.13,10.24,10.24,0,0,1-5.41,3.16l9.28,19.07ZM258,344.89a6.62,6.62,0,0,0-.65-3.1,5.21,5.21,0,0,0-1.72-1.93,7.15,7.15,0,0,0-2.37-1,12.46,12.46,0,0,0-2.63-.29h-5v12.76h5a8.42,8.42,0,0,0,5.29-1.61A5.72,5.72,0,0,0,258,344.89Z" transform="translate(-204.05 -148.71)"/><path class="cls-1" d="M274.66,374.14V332.72h8.76v41.42Z" transform="translate(-204.05 -148.71)"/><path class="cls-1" d="M291.09,361v-5.15h12.56V361Z" transform="translate(-204.05 -148.71)"/><path class="cls-1" d="M336.11,373.67a18.41,18.41,0,0,1-8,1.53,18.67,18.67,0,0,1-7.92-1.64,17.17,17.17,0,0,1-6-4.54,21,21,0,0,1-3.8-6.87,27,27,0,0,1-1.35-8.72,27.3,27.3,0,0,1,1.35-8.75,20.48,20.48,0,0,1,3.84-6.9,17.11,17.11,0,0,1,6-4.5,18.65,18.65,0,0,1,7.85-1.61,21.53,21.53,0,0,1,7.82,1.31,13.7,13.7,0,0,1,5.47,3.78l-5,4.91a9.76,9.76,0,0,0-7.74-3.45,8.69,8.69,0,0,0-4.6,1.2,10.08,10.08,0,0,0-3.28,3.25,15.1,15.1,0,0,0-2,4.82,25.74,25.74,0,0,0-.66,5.94,25.35,25.35,0,0,0,.66,5.88,15.26,15.26,0,0,0,2,4.83,9.88,9.88,0,0,0,3.32,3.24,9,9,0,0,0,4.71,1.2,8.87,8.87,0,0,0,4.42-1.05,10.89,10.89,0,0,0,3.1-2.57l5,4.74A15.2,15.2,0,0,1,336.11,373.67Z" transform="translate(-204.05 -148.71)"/><path class="cls-1" d="M381.64,353.37a29.29,29.29,0,0,1-1.28,8.92,19.83,19.83,0,0,1-3.69,6.88,16.68,16.68,0,0,1-5.88,4.45,20,20,0,0,1-15.59,0,16.72,16.72,0,0,1-5.84-4.45,19.83,19.83,0,0,1-3.69-6.88,29.3,29.3,0,0,1-1.27-8.92,29.71,29.71,0,0,1,1.24-8.89,19.48,19.48,0,0,1,3.65-6.85,16.06,16.06,0,0,1,5.88-4.41,18.93,18.93,0,0,1,7.85-1.55,18.72,18.72,0,0,1,7.77,1.55,16.23,16.23,0,0,1,5.88,4.41,20.05,20.05,0,0,1,3.69,6.85A29.05,29.05,0,0,1,381.64,353.37Zm-9.06,0a27.54,27.54,0,0,0-.62-5.94,16.1,16.1,0,0,0-1.82-4.79,9.7,9.7,0,0,0-3-3.19,7.36,7.36,0,0,0-4.12-1.17,7.49,7.49,0,0,0-4.2,1.17,9.6,9.6,0,0,0-3,3.19,15.56,15.56,0,0,0-1.79,4.79,30.71,30.71,0,0,0,0,11.88,16.12,16.12,0,0,0,1.79,4.83,9.61,9.61,0,0,0,3,3.22,8.12,8.12,0,0,0,8.4,0,9.58,9.58,0,0,0,3-3.22,16.12,16.12,0,0,0,1.79-4.83A28.78,28.78,0,0,0,372.58,353.37Z" transform="translate(-204.05 -148.71)"/><path class="cls-1" d="M420.63,365.6a12.75,12.75,0,0,1-2.85,5,13.46,13.46,0,0,1-5.07,3.37,20.57,20.57,0,0,1-7.56,1.23,20.24,20.24,0,0,1-7.52-1.23,13.18,13.18,0,0,1-5-3.37,12.62,12.62,0,0,1-2.78-5,21.74,21.74,0,0,1-.84-6.14V332.72h8.76v26.09a20.43,20.43,0,0,0,.33,3.72,8.93,8.93,0,0,0,1.17,3.13,6,6,0,0,0,2.3,2.13,9.18,9.18,0,0,0,7.45,0,6,6,0,0,0,2.3-2.13,8.93,8.93,0,0,0,1.17-3.13,20.43,20.43,0,0,0,.33-3.72V332.72h8.69v26.74A21,21,0,0,1,420.63,365.6Z" transform="translate(-204.05 -148.71)"/><path class="cls-1" d="M453.85,374.14l-14.67-29.25H439l.14,29.25h-7.88V332.72h10l14.53,29.43H456l-.07-29.43h7.59v41.42Z" transform="translate(-204.05 -148.71)"/><path class="cls-1" d="M486.93,338.69v35.45h-8.61V338.69H468.6v-6h28v6Z" transform="translate(-204.05 -148.71)"/><path class="cls-1" d="M501.76,374.14V332.72h8.76v41.42Z" transform="translate(-204.05 -148.71)"/><path class="cls-1" d="M521,374.14V332.72h23.15v6.2H529.43v11h13.66v5.73H529.43v12.23h15.48v6.26Z" transform="translate(-204.05 -148.71)"/><path class="cls-1" d="M573.17,340.74A9.86,9.86,0,0,0,566,338a8.86,8.86,0,0,0-2.41.32,6.26,6.26,0,0,0-2.11,1,4.85,4.85,0,0,0-1.5,1.82,5.8,5.8,0,0,0-.55,2.63,4.73,4.73,0,0,0,2,4.06,23.85,23.85,0,0,0,5.19,2.72c1.26.51,2.55,1.1,3.87,1.76a17.24,17.24,0,0,1,3.58,2.4,11.54,11.54,0,0,1,2.62,3.33,9.54,9.54,0,0,1,1,4.57,11.5,11.5,0,0,1-1.21,5.38,12,12,0,0,1-3.21,3.95,14,14,0,0,1-4.71,2.43,19.74,19.74,0,0,1-5.7.82,22.82,22.82,0,0,1-8-1.35,17.27,17.27,0,0,1-5.84-3.39l4.75-5.15a12,12,0,0,0,4,2.57,13,13,0,0,0,4.86.94,7,7,0,0,0,4.6-1.52,5.28,5.28,0,0,0,1.82-4.27,5,5,0,0,0-2.19-4.27,25.92,25.92,0,0,0-5.55-2.93,37.39,37.39,0,0,1-4-1.81,15,15,0,0,1-3.28-2.37A10,10,0,0,1,551,344a11.3,11.3,0,0,1,1.28-5.53,11.69,11.69,0,0,1,3.36-3.83,14.66,14.66,0,0,1,4.71-2.25,19.69,19.69,0,0,1,5.33-.73,22.55,22.55,0,0,1,7,1,13.84,13.84,0,0,1,5.22,3Z" transform="translate(-204.05 -148.71)"/><path class="cls-2" d="M274.31,400.61l-1.14-3.74h-5.76l-1.18,3.74h-1.88l4.75-15h2.51l4.62,15ZM270.37,387h-.1l-2.59,8.72h5.23Z" transform="translate(-204.05 -148.71)"/><path class="cls-2" d="M286.66,396.78a4,4,0,0,1-.37,1.77,3.81,3.81,0,0,1-1,1.31,4.56,4.56,0,0,1-1.52.83,5.92,5.92,0,0,1-1.85.28,6.84,6.84,0,0,1-2.63-.49,5.16,5.16,0,0,1-1.94-1.29l1.14-1a4.08,4.08,0,0,0,1.53,1.08,5,5,0,0,0,1.87.38,3.19,3.19,0,0,0,2.13-.72,2.54,2.54,0,0,0,.86-2,2.3,2.3,0,0,0-.27-1.13,2.89,2.89,0,0,0-.71-.86,5.33,5.33,0,0,0-1-.68,11.12,11.12,0,0,0-1.2-.55,12.83,12.83,0,0,1-1.45-.67,5.38,5.38,0,0,1-1.2-.85,3.9,3.9,0,0,1-.83-1.16,3.57,3.57,0,0,1-.32-1.55,3.83,3.83,0,0,1,.4-1.81,3.63,3.63,0,0,1,1.07-1.29,4.5,4.5,0,0,1,1.51-.77,6.16,6.16,0,0,1,1.77-.26,7.1,7.1,0,0,1,2.29.35,4.15,4.15,0,0,1,1.7,1.09l-1.13,1a3.08,3.08,0,0,0-1.25-.88,4.31,4.31,0,0,0-1.55-.26,4.11,4.11,0,0,0-1.1.15,2.93,2.93,0,0,0-1,.5,2.59,2.59,0,0,0-.69.87,2.71,2.71,0,0,0-.26,1.25,2.51,2.51,0,0,0,.23,1.1,2.84,2.84,0,0,0,.65.82,4.78,4.78,0,0,0,.95.64c.36.18.74.35,1.12.5s1,.43,1.47.68a7.18,7.18,0,0,1,1.31.89,4,4,0,0,1,.92,1.19A3.44,3.44,0,0,1,286.66,396.78Z" transform="translate(-204.05 -148.71)"/><path class="cls-2" d="M298.12,396.78a4,4,0,0,1-.37,1.77,3.81,3.81,0,0,1-1,1.31,4.56,4.56,0,0,1-1.52.83,5.92,5.92,0,0,1-1.85.28,6.84,6.84,0,0,1-2.63-.49,5.24,5.24,0,0,1-1.94-1.29l1.14-1a4.08,4.08,0,0,0,1.53,1.08,5,5,0,0,0,1.87.38,3.19,3.19,0,0,0,2.13-.72,2.54,2.54,0,0,0,.86-2,2.3,2.3,0,0,0-.27-1.13,2.89,2.89,0,0,0-.71-.86,5.33,5.33,0,0,0-1-.68,11.12,11.12,0,0,0-1.2-.55,12.83,12.83,0,0,1-1.45-.67,5.38,5.38,0,0,1-1.2-.85,3.9,3.9,0,0,1-.83-1.16,3.57,3.57,0,0,1-.32-1.55,3.83,3.83,0,0,1,.4-1.81,3.63,3.63,0,0,1,1.07-1.29,4.59,4.59,0,0,1,1.51-.77,6.16,6.16,0,0,1,1.77-.26,7.1,7.1,0,0,1,2.29.35,4.09,4.09,0,0,1,1.7,1.09l-1.13,1a3.08,3.08,0,0,0-1.25-.88,4.31,4.31,0,0,0-1.55-.26,4.11,4.11,0,0,0-1.1.15,2.93,2.93,0,0,0-1,.5,2.59,2.59,0,0,0-.95,2.12,2.51,2.51,0,0,0,.23,1.1,2.84,2.84,0,0,0,.65.82,4.78,4.78,0,0,0,.95.64c.36.18.74.35,1.12.5s1,.43,1.47.68a7.18,7.18,0,0,1,1.31.89,4,4,0,0,1,.92,1.19A3.44,3.44,0,0,1,298.12,396.78Z" transform="translate(-204.05 -148.71)"/><path class="cls-2" d="M313,393.1a11.55,11.55,0,0,1-.42,3.21,7.65,7.65,0,0,1-1.21,2.48,5.63,5.63,0,0,1-1.93,1.61,5.7,5.7,0,0,1-2.59.57,5.78,5.78,0,0,1-2.6-.57,5.51,5.51,0,0,1-2-1.61,7.3,7.3,0,0,1-1.23-2.48,11.55,11.55,0,0,1-.42-3.21,11.73,11.73,0,0,1,.4-3.18,7.36,7.36,0,0,1,1.21-2.48,5.47,5.47,0,0,1,1.94-1.6,5.87,5.87,0,0,1,2.65-.57,5.48,5.48,0,0,1,4.52,2.17,7.55,7.55,0,0,1,1.21,2.48A11.33,11.33,0,0,1,313,393.1Zm-1.92,0a11.44,11.44,0,0,0-.27-2.54,6.41,6.41,0,0,0-.8-2.05,4.32,4.32,0,0,0-1.34-1.38,3.36,3.36,0,0,0-1.82-.5,3.55,3.55,0,0,0-1.89.5,4.19,4.19,0,0,0-1.33,1.38,6.64,6.64,0,0,0-.79,2.05,12.08,12.08,0,0,0,0,5.08,6.87,6.87,0,0,0,.79,2.07,4.07,4.07,0,0,0,1.33,1.4,3.47,3.47,0,0,0,1.89.51,3.36,3.36,0,0,0,1.85-.51,4,4,0,0,0,1.32-1.4,6.87,6.87,0,0,0,.79-2.07A11.44,11.44,0,0,0,311.12,393.1Z" transform="translate(-204.05 -148.71)"/><path class="cls-2" d="M324.69,400.44a6,6,0,0,1-2.56.53,6,6,0,0,1-2.72-.6,5.85,5.85,0,0,1-2-1.65,7.47,7.47,0,0,1-1.25-2.49,11.28,11.28,0,0,1,0-6.24,7.49,7.49,0,0,1,1.26-2.49,6,6,0,0,1,2-1.63,5.92,5.92,0,0,1,2.7-.6,6.73,6.73,0,0,1,2.47.45,4.49,4.49,0,0,1,1.91,1.39l-1.19,1a3.72,3.72,0,0,0-1.41-1.1,4.15,4.15,0,0,0-1.7-.36,4,4,0,0,0-2,.5,4.25,4.25,0,0,0-1.43,1.4,6.43,6.43,0,0,0-.84,2.07,10.75,10.75,0,0,0-.28,2.52,10.1,10.1,0,0,0,.29,2.51,6.72,6.72,0,0,0,.86,2.06,4.35,4.35,0,0,0,1.42,1.41,3.89,3.89,0,0,0,2,.52,3.59,3.59,0,0,0,1.82-.46A4,4,0,0,0,325.4,398l1.16.95A4.86,4.86,0,0,1,324.69,400.44Z" transform="translate(-204.05 -148.71)"/><path class="cls-2" d="M329.18,400.61v-15H331v15Z" transform="translate(-204.05 -148.71)"/><path class="cls-2" d="M343.3,400.61l-1.13-3.74h-5.76l-1.19,3.74h-1.87l4.75-15h2.51l4.62,15ZM339.37,387h-.11l-2.58,8.72h5.22Z" transform="translate(-204.05 -148.71)"/><path class="cls-2" d="M350.35,386.9v13.71h-1.82V386.9h-3.59v-1.27h9v1.27Z" transform="translate(-204.05 -148.71)"/><path class="cls-2" d="M356.11,400.61v-15H358v15Z" transform="translate(-204.05 -148.71)"/><path class="cls-2" d="M373.8,393.1a11.55,11.55,0,0,1-.42,3.21,7.65,7.65,0,0,1-1.21,2.48,5.63,5.63,0,0,1-1.93,1.61,6.19,6.19,0,0,1-5.19,0,5.51,5.51,0,0,1-1.95-1.61,7.3,7.3,0,0,1-1.23-2.48,11.54,11.54,0,0,1-.43-3.21,11.72,11.72,0,0,1,.41-3.18,7.36,7.36,0,0,1,1.21-2.48,5.47,5.47,0,0,1,1.94-1.6,5.87,5.87,0,0,1,2.65-.57,5.48,5.48,0,0,1,4.52,2.17,7.55,7.55,0,0,1,1.21,2.48A11.33,11.33,0,0,1,373.8,393.1Zm-1.92,0a11.44,11.44,0,0,0-.27-2.54,6.41,6.41,0,0,0-.8-2.05,4.42,4.42,0,0,0-1.34-1.38,3.36,3.36,0,0,0-1.82-.5,3.55,3.55,0,0,0-1.89.5,4.19,4.19,0,0,0-1.33,1.38,6.64,6.64,0,0,0-.79,2.05,12.08,12.08,0,0,0,0,5.08,6.87,6.87,0,0,0,.79,2.07,4.07,4.07,0,0,0,1.33,1.4,3.47,3.47,0,0,0,1.89.51,3.36,3.36,0,0,0,1.85-.51,4,4,0,0,0,1.32-1.4,6.87,6.87,0,0,0,.79-2.07A11.44,11.44,0,0,0,371.88,393.1Z" transform="translate(-204.05 -148.71)"/><path class="cls-2" d="M385.61,400.61l-6.5-12.46H379v12.46h-1.74v-15h2.3l6.47,12.46h.07V385.63h1.69v15Z" transform="translate(-204.05 -148.71)"/><path class="cls-2" d="M408.55,393.1a11.55,11.55,0,0,1-.42,3.21,7.65,7.65,0,0,1-1.21,2.48A5.63,5.63,0,0,1,405,400.4a6.19,6.19,0,0,1-5.19,0,5.51,5.51,0,0,1-1.95-1.61,7.3,7.3,0,0,1-1.23-2.48,11.54,11.54,0,0,1-.43-3.21,11.72,11.72,0,0,1,.41-3.18,7.36,7.36,0,0,1,1.21-2.48,5.47,5.47,0,0,1,1.94-1.6,5.87,5.87,0,0,1,2.65-.57,5.48,5.48,0,0,1,4.52,2.17,7.55,7.55,0,0,1,1.21,2.48A11.33,11.33,0,0,1,408.55,393.1Zm-1.92,0a11.44,11.44,0,0,0-.27-2.54,6.41,6.41,0,0,0-.8-2.05,4.32,4.32,0,0,0-1.34-1.38,3.36,3.36,0,0,0-1.82-.5,3.55,3.55,0,0,0-1.89.5,4.09,4.09,0,0,0-1.33,1.38,6.64,6.64,0,0,0-.79,2.05,12.08,12.08,0,0,0,0,5.08,6.87,6.87,0,0,0,.79,2.07,4,4,0,0,0,1.33,1.4,3.47,3.47,0,0,0,1.89.51,3.36,3.36,0,0,0,1.85-.51,4,4,0,0,0,1.32-1.4,6.87,6.87,0,0,0,.79-2.07A11.44,11.44,0,0,0,406.63,393.1Z" transform="translate(-204.05 -148.71)"/><path class="cls-2" d="M413.86,387v5.38h5.26v1.27h-5.26v7H412v-15h7.47V387Z" transform="translate(-204.05 -148.71)"/><path class="cls-2" d="M435,400.61l-3.38-6.94H429.2v6.94h-1.82v-15h4.49a8,8,0,0,1,1.78.2,4.6,4.6,0,0,1,1.53.67,3.51,3.51,0,0,1,1.09,1.23,3.91,3.91,0,0,1,.4,1.86,4.1,4.1,0,0,1-.3,1.64,3.41,3.41,0,0,1-.79,1.15,3.78,3.78,0,0,1-1.08.72,4.08,4.08,0,0,1-1.18.32l3.65,7.19Zm-.11-10.95a2.86,2.86,0,0,0-.28-1.34,2.26,2.26,0,0,0-.74-.85,2.89,2.89,0,0,0-1.05-.44,5.58,5.58,0,0,0-1.23-.13H429.2v5.61h2.46a3.46,3.46,0,0,0,2.36-.75A2.65,2.65,0,0,0,434.88,389.66Z" transform="translate(-204.05 -148.71)"/><path class="cls-2" d="M440,400.61v-15h7.53v1.31h-5.73v5.25h5.36v1.27h-5.36v5.82h6v1.33Z" transform="translate(-204.05 -148.71)"/><path class="cls-2" d="M459,400.61l-1.14-3.74H452.1l-1.19,3.74H449l4.76-15h2.5l4.63,15ZM455.05,387H455l-2.59,8.72h5.23Z" transform="translate(-204.05 -148.71)"/><path class="cls-2" d="M463.24,400.61v-15h1.85v13.61h5.33v1.37Z" transform="translate(-204.05 -148.71)"/><path class="cls-2" d="M475.31,386.9v13.71h-1.82V386.9h-3.6v-1.27h9v1.27Z" transform="translate(-204.05 -148.71)"/><path class="cls-2" d="M492.31,393.1a11.55,11.55,0,0,1-.42,3.21,7.65,7.65,0,0,1-1.21,2.48,5.63,5.63,0,0,1-1.93,1.61,5.7,5.7,0,0,1-2.59.57,5.78,5.78,0,0,1-2.6-.57,5.51,5.51,0,0,1-1.95-1.61,7.3,7.3,0,0,1-1.23-2.48,11.55,11.55,0,0,1-.42-3.21,11.73,11.73,0,0,1,.4-3.18,7.36,7.36,0,0,1,1.21-2.48,5.47,5.47,0,0,1,1.94-1.6,5.87,5.87,0,0,1,2.65-.57,5.48,5.48,0,0,1,4.52,2.17,7.55,7.55,0,0,1,1.21,2.48A11.33,11.33,0,0,1,492.31,393.1Zm-1.92,0a11.44,11.44,0,0,0-.27-2.54,6.41,6.41,0,0,0-.8-2.05,4.32,4.32,0,0,0-1.34-1.38,3.36,3.36,0,0,0-1.82-.5,3.55,3.55,0,0,0-1.89.5,4.19,4.19,0,0,0-1.33,1.38,6.64,6.64,0,0,0-.79,2.05,12.08,12.08,0,0,0,0,5.08,6.87,6.87,0,0,0,.79,2.07,4.07,4.07,0,0,0,1.33,1.4,3.47,3.47,0,0,0,1.89.51,3.36,3.36,0,0,0,1.85-.51,4,4,0,0,0,1.32-1.4,6.87,6.87,0,0,0,.79-2.07A11.44,11.44,0,0,0,490.39,393.1Z" transform="translate(-204.05 -148.71)"/><path class="cls-2" d="M503.4,400.61,500,393.67h-2.4v6.94H495.8v-15h4.49a8,8,0,0,1,1.78.2,4.6,4.6,0,0,1,1.53.67,3.39,3.39,0,0,1,1.08,1.23,3.79,3.79,0,0,1,.41,1.86,4.1,4.1,0,0,1-.3,1.64,3.56,3.56,0,0,1-.79,1.15,3.78,3.78,0,0,1-1.08.72,4.08,4.08,0,0,1-1.18.32l3.64,7.19Zm-.1-10.95a2.86,2.86,0,0,0-.28-1.34,2.35,2.35,0,0,0-.74-.85,2.87,2.87,0,0,0-1.06-.44,5.43,5.43,0,0,0-1.22-.13h-2.38v5.61h2.46a3.46,3.46,0,0,0,2.36-.75A2.65,2.65,0,0,0,503.3,389.66Z" transform="translate(-204.05 -148.71)"/><path class="cls-2" d="M516.47,396.78a4,4,0,0,1-.37,1.77,3.81,3.81,0,0,1-1,1.31,4.56,4.56,0,0,1-1.52.83,5.92,5.92,0,0,1-1.85.28,6.84,6.84,0,0,1-2.63-.49,5.24,5.24,0,0,1-1.94-1.29l1.14-1a4.08,4.08,0,0,0,1.53,1.08,5,5,0,0,0,1.87.38,3.19,3.19,0,0,0,2.13-.72,2.54,2.54,0,0,0,.86-2,2.3,2.3,0,0,0-.27-1.13,2.89,2.89,0,0,0-.71-.86,5.33,5.33,0,0,0-1-.68,11.12,11.12,0,0,0-1.2-.55A12.83,12.83,0,0,1,510,393a5.38,5.38,0,0,1-1.2-.85A3.9,3.9,0,0,1,508,391a3.57,3.57,0,0,1-.32-1.55,3.83,3.83,0,0,1,.4-1.81,3.63,3.63,0,0,1,1.07-1.29,4.55,4.55,0,0,1,1.52-.77,6,6,0,0,1,1.76-.26,7.1,7.1,0,0,1,2.29.35,4.09,4.09,0,0,1,1.7,1.09l-1.13,1a3.08,3.08,0,0,0-1.25-.88,4.31,4.31,0,0,0-1.55-.26,4.11,4.11,0,0,0-1.1.15,2.93,2.93,0,0,0-1,.5,2.59,2.59,0,0,0-.95,2.12,2.51,2.51,0,0,0,.23,1.1,2.84,2.84,0,0,0,.65.82,4.78,4.78,0,0,0,.95.64c.36.18.74.35,1.12.5s1,.43,1.47.68a7.18,7.18,0,0,1,1.31.89,4,4,0,0,1,.92,1.19A3.44,3.44,0,0,1,516.47,396.78Z" transform="translate(-204.05 -148.71)"/><path class="cls-2" d="M524,394.81a4.89,4.89,0,0,1-1.83-.32,4,4,0,0,1-1.41-1,4.36,4.36,0,0,1-.92-1.5,6.08,6.08,0,0,1,0-3.95,4.36,4.36,0,0,1,.92-1.5,4.44,4.44,0,0,1,1.41-.95,5.07,5.07,0,0,1,3.65,0,4.44,4.44,0,0,1,1.41.95,4.21,4.21,0,0,1,.92,1.5,6.08,6.08,0,0,1,0,3.95,4.21,4.21,0,0,1-.92,1.5,4,4,0,0,1-1.41,1A4.87,4.87,0,0,1,524,394.81Zm0-9a3.66,3.66,0,0,0-1.54.32,3.47,3.47,0,0,0-1.16.88,3.87,3.87,0,0,0-.72,1.33,5.8,5.8,0,0,0,0,3.37,3.87,3.87,0,0,0,.72,1.33,3.47,3.47,0,0,0,1.16.88,4,4,0,0,0,3.07,0,3.47,3.47,0,0,0,1.16-.88,3.89,3.89,0,0,0,.73-1.33,5.8,5.8,0,0,0,0-3.37,3.89,3.89,0,0,0-.73-1.33,3.47,3.47,0,0,0-1.16-.88A3.64,3.64,0,0,0,524,385.84Zm1.13,6.9-1-2.24h-.85v2.24h-1v-5.39h2a2.41,2.41,0,0,1,1.36.37,1.33,1.33,0,0,1,.57,1.21,1.36,1.36,0,0,1-.29.91,1.66,1.66,0,0,1-.69.49l1.16,2.41ZM525,389a.72.72,0,0,0-.28-.64,1.18,1.18,0,0,0-.7-.2h-.74v1.75h.74a1.07,1.07,0,0,0,.7-.22A.81.81,0,0,0,525,389Z" transform="translate(-204.05 -148.71)"/><polygon class="cls-1" points="53.75 158.92 308.81 158.92 190.68 0 107.52 105.63 117.32 105.63 190.68 17.14 294.93 151.27 56.52 151.27 53.75 158.92"/><polygon class="cls-2" points="66.67 147.33 286.97 147.33 190.68 33.76 121.74 105.63 143.75 105.63 190.68 60.72 252.12 128.11 73.71 128.11 66.67 147.33"/><polygon class="cls-3" points="86.06 124.87 244.88 125 190.47 74.41 141.94 113.67 160.88 113.67 189.69 91.37 215.98 109.12 91.7 109.12 86.06 124.87"/><polygon class="cls-3" points="221.38 111.75 190.68 86.3 159.99 111.75 221.38 111.75"/></svg>