<?xml version="1.0" encoding="UTF-8"?><svg id="Layer_1" xmlns="http://www.w3.org/2000/svg" viewBox="0 0 1922 1077.85"><defs><style>.cls-1{fill:none;stroke:#fff;stroke-miterlimit:10;}</style></defs><g id="Artwork_3"><path class="cls-1" d="m1919.88,939.31c-50.25-6.33-108.63-9.96-170.92-9.96-188.22,0-340.8,33.12-340.8,73.96,0,38.38,134.68,69.93,307.05,73.61-136.29-7.42-240.09-38.14-239.56-73.25.6-38.91,129.01-68.48,286.82-66.06,44.62.68,86.81,3.85,124.37,8.92,10.48-3.1,21.54-5.54,33.03-7.22"/></g><g id="Artwork_3-2"><path class="cls-1" d="m1919.46,898.86c-65.02-8.19-140.56-12.89-221.16-12.89-243.55,0-440.98,42.85-440.98,95.71,0,49.66,174.27,90.49,397.31,95.25-176.35-9.6-310.67-49.35-309.98-94.78.78-50.35,166.94-88.61,371.14-85.48,57.74.88,112.33,4.98,160.92,11.55,13.57-4.02,27.87-7.17,42.74-9.34"/></g><g id="Artwork_3-3"><path class="cls-1" d="m1917.85,851.91c-82.16-10.35-177.62-16.29-279.47-16.29-307.76,0-557.24,54.15-557.24,120.94,0,62.75,220.21,114.34,502.06,120.36-222.85-12.13-392.58-62.36-391.7-119.77.98-63.63,210.95-111.97,468.98-108.02,72.96,1.11,141.94,6.3,203.35,14.59,17.14-5.08,35.22-9.05,54.01-11.81"/></g><g id="Artwork_3-4"><path class="cls-1" d="m1921.92,800.26c-101.18-12.75-218.73-20.06-344.15-20.06-378.99,0-686.23,66.68-686.23,148.93,0,77.28,271.18,140.81,618.28,148.22-274.43-14.94-483.45-76.79-482.37-147.5,1.21-78.35,259.78-137.89,577.54-133.03,89.85,1.37,174.8,7.76,250.42,17.97,21.11-6.25,43.37-11.15,66.51-14.54"/></g><g id="Artwork_3-5"><path class="cls-1" d="m1921.08,718.8c-130.92-16.5-283.03-25.96-445.32-25.96-490.4,0-887.96,86.28-887.96,192.71,0,100,350.9,182.21,800.03,191.79-355.1-19.34-625.57-99.37-624.17-190.86,1.56-101.39,336.14-178.43,747.32-172.13,116.26,1.77,226.18,10.04,324.04,23.25,27.32-8.09,56.12-14.43,86.07-18.82"/></g><g id="Artwork_3-6"><path class="cls-1" d="m1917.84,624.27c-165.44-20.85-357.65-32.8-562.73-32.8-619.7,0-1122.06,109.03-1122.06,243.52,0,126.36,443.41,230.24,1010.95,242.36-448.72-24.43-790.49-125.56-788.73-241.17,1.97-128.12,424.77-225.47,944.34-217.51,146.91,2.24,285.81,12.68,409.47,29.38,34.52-10.22,70.91-18.23,108.76-23.78"/></g><g id="Artwork_3-7"><path class="cls-1" d="m2.12,138.54c50.25,6.33,108.63,9.96,170.92,9.96,188.22,0,340.8-33.12,340.8-73.96,0-38.38-134.68-69.93-307.05-73.61,136.29,7.42,240.09,38.14,239.56,73.25-.6,38.91-129.01,68.48-286.82,66.06-44.62-.68-86.81-3.85-124.37-8.92-10.48,3.1-21.54,5.54-33.03,7.22"/></g><g id="Artwork_3-8"><path class="cls-1" d="m2.54,178.99c65.02,8.19,140.56,12.89,221.16,12.89,243.55,0,440.98-42.85,440.98-95.71,0-49.66-174.27-90.49-397.31-95.25,176.35,9.6,310.67,49.35,309.98,94.78-.78,50.35-166.94,88.61-371.14,85.48-57.74-.88-112.33-4.98-160.92-11.55-13.57,4.02-27.87,7.17-42.74,9.34"/></g><g id="Artwork_3-9"><path class="cls-1" d="m4.14,225.94c82.16,10.35,177.62,16.29,279.47,16.29,307.76,0,557.24-54.15,557.24-120.94,0-62.75-220.21-114.34-502.06-120.36,222.85,12.13,392.58,62.36,391.7,119.77-.98,63.63-210.95,111.97-468.98,108.02-72.96-1.11-141.94-6.3-203.35-14.59-17.14,5.08-35.22,9.05-54.01,11.81"/></g><g id="Artwork_3-10"><path class="cls-1" d="m.07,277.59c101.18,12.75,218.73,20.06,344.15,20.06,378.99,0,686.23-66.68,686.23-148.93,0-77.28-271.18-140.81-618.28-148.22,274.43,14.94,483.45,76.79,482.37,147.5-1.21,78.35-259.78,137.89-577.54,133.03-89.85-1.37-174.8-7.76-250.42-17.97-21.11,6.25-43.37,11.15-66.51,14.54"/></g><g id="Artwork_3-11"><path class="cls-1" d="m.92,359.05c130.92,16.5,283.03,25.96,445.32,25.96,490.4,0,887.96-86.28,887.96-192.71,0-100-350.9-182.21-800.03-191.79,355.1,19.34,625.57,99.37,624.17,190.86-1.56,101.39-336.14,178.43-747.32,172.13-116.26-1.77-226.18-10.04-324.04-23.25-27.32,8.09-56.12,14.43-86.07,18.82"/></g><g id="Artwork_3-12"><path class="cls-1" d="m4.15,453.58c165.44,20.85,357.65,32.8,562.73,32.8,619.7,0,1122.06-109.03,1122.06-243.52,0-126.36-443.41-230.24-1010.95-242.36,448.72,24.43,790.49,125.56,788.73,241.17-1.97,128.12-424.77,225.47-944.34,217.51-146.91-2.24-285.81-12.68-409.47-29.38-34.52,10.22-70.91,18.23-108.76,23.78"/></g></svg>