<svg id="Layer_1_copy" data-name="Layer 1 copy" xmlns="http://www.w3.org/2000/svg" viewBox="0 0 62.78 65"><defs><style>.cls-1{fill:#00468b;}</style></defs><path class="cls-1" d="M64.47,24.75A6.09,6.09,0,0,0,63,24.17l-.36-.11V22.58c0-.75,0-1.51,0-2.26a2.68,2.68,0,0,0-2.77-2.81H59.7c-.65,0-1.3,0-1.94,0a3.12,3.12,0,0,0-1.19.26A2.59,2.59,0,0,0,55,20.27c0,1.05,0,2.1,0,3.14v.67H30.64v-.84c0-1,0-2,0-3a2.71,2.71,0,0,0-2.71-2.74q-.73,0-1.47,0H26a2.72,2.72,0,0,0-3,3v3.64h-.83a3.37,3.37,0,0,0-3.58,3.61V78.89A3.38,3.38,0,0,0,22.2,82.5H62.32A3.39,3.39,0,0,0,66,78.86V27.71A3.22,3.22,0,0,0,64.47,24.75ZM62.74,78.53a3.37,3.37,0,0,1,0,.55c0,.24-.08.23-.2.22h-40a6.55,6.55,0,0,1-.68,0,3.26,3.26,0,0,1-.05-.74V28.2a5.82,5.82,0,0,1,0-.81,3.75,3.75,0,0,1,.82-.05h.42c.45,1.58,1.34,2.2,3.08,2.2h1.38a2.71,2.71,0,0,0,3-2.17h24.5c.53,1.65,1.34,2.17,3.27,2.17h1c1.86,0,2.72-.56,3.21-2.17h.09s0,.08.07.39V78.53ZM58.26,26.29V20.75H59.4v5.54Zm-32,0V20.75h1.14v5.54Z" transform="translate(-18.61 -17.5)"/><path class="cls-1" d="M81.38,34.75A1.84,1.84,0,0,0,81,33.53c-1.31-1.35-2.63-2.68-4-4l-1.63-1.63-1.7,1.71C72.44,30.81,71.23,32,70,33.24a2,2,0,0,0-.65,1.55q0,17.07,0,34.14v6.89h12v-12Q81.39,49.27,81.38,34.75ZM78.15,68.21v4.43H72.62V68.21Zm0-32.82q0,14.74,0,29.53h-5.6V59.38q0-11.85,0-23.7a.93.93,0,0,1,.31-.78c.67-.65,1.33-1.32,2-2l.48-.48.4.4,2.42,2.39A1.23,1.23,0,0,1,78.18,35.39Z" transform="translate(-18.61 -17.5)"/><rect class="cls-1" x="6.67" y="21.02" width="34.01" height="3.13"/><rect class="cls-1" x="6.68" y="27.64" width="34.01" height="3.12"/><rect class="cls-1" x="6.67" y="34.24" width="34.01" height="3.12"/><rect class="cls-1" x="6.67" y="40.88" width="34.01" height="3.13"/></svg>