<svg id="Layer_1" data-name="Layer 1" xmlns="http://www.w3.org/2000/svg" viewBox="0 0 62.78 65"><defs><style>.cls-1{fill:#555a5e;stroke:#555a5e;stroke-miterlimit:10;}</style></defs><path class="cls-1" d="M23.52,24.63V20.49A2.23,2.23,0,0,1,26,18c.64,0,1.29,0,1.93,0a2.19,2.19,0,0,1,2.22,2.24c0,1.42,0,2.85,0,4.33H55.52c0-1.43,0-2.87,0-4.3a2.1,2.1,0,0,1,1.27-2,2.59,2.59,0,0,1,1-.22c.69,0,1.38,0,2.07,0a2.2,2.2,0,0,1,2.28,2.31c0,1.22,0,2.44,0,3.66,0,.2,0,.4,0,.44a11.11,11.11,0,0,1,2,.76,2.75,2.75,0,0,1,1.24,2.53q0,16.34,0,32.68V78.86A2.89,2.89,0,0,1,62.32,82H22.2a2.89,2.89,0,0,1-3.09-3.11V27.74a2.89,2.89,0,0,1,3.08-3.11Zm-.05,2.21h-.81c-1.29,0-1.34.05-1.34,1.36q0,25.17,0,50.33c0,1.18.07,1.26,1.23,1.26H62a3.85,3.85,0,0,1,.48,0c.47,0,.67-.24.74-.64a4.5,4.5,0,0,0,0-.82V28.29c0-.19,0-.37,0-.55,0-.77-.25-.93-1-.85C61.78,28.55,61.13,29,59.37,29h-1c-1.83,0-2.43-.45-2.9-2.17H30.18A2.3,2.3,0,0,1,27.54,29H26.16C24.53,29,23.83,28.48,23.47,26.84Zm4.44-6.59H25.77v6.54h2.14Zm32,0H57.76v6.54H59.9Z" transform="translate(-18.61 -17.5)"/><path class="cls-1" d="M75.38,28.57c1.81,1.81,3.55,3.55,5.26,5.31a1.33,1.33,0,0,1,.24.87q0,16.61,0,33.22v7.35h-11v-.7q0-19.92,0-39.83a1.54,1.54,0,0,1,.5-1.2C72,32,73.67,30.29,75.38,28.57Zm3.26,36.85a1.76,1.76,0,0,0,0-.25V35.39a.72.72,0,0,0-.1-.45c-1.06-1.08-2.13-2.13-3.23-3.23-1,1-1.88,1.92-2.83,2.83a1.41,1.41,0,0,0-.46,1.14q0,14.49,0,29v.78Zm0,2.29H72.12v5.43h6.53Z" transform="translate(-18.61 -17.5)"/><path class="cls-1" d="M58.79,39v2.12h-33V39Z" transform="translate(-18.61 -17.5)"/><path class="cls-1" d="M58.79,45.64v2.12h-33V45.64Z" transform="translate(-18.61 -17.5)"/><path class="cls-1" d="M25.78,52.24h33v2.13h-33Z" transform="translate(-18.61 -17.5)"/><path class="cls-1" d="M58.79,58.88V61h-33V58.88Z" transform="translate(-18.61 -17.5)"/></svg>