<svg id="Layer_1_copy" data-name="Layer 1 copy" xmlns="http://www.w3.org/2000/svg" viewBox="0 0 64.07 64.5"><defs><style>.cls-1{fill:#00468b;}</style></defs><polygon class="cls-1" points="46.99 22.32 51.79 17.51 43.57 9.29 38.44 14.42 38.02 13.99 38.02 7.26 26.06 7.26 26.06 13.67 25.73 13.67 20.93 8.87 13.14 16.66 18.18 21.7 17.87 22.64 10.68 22.64 10.68 34.6 17.94 34.6 17.94 32.04 13.24 32.04 13.24 25.2 19.72 25.2 21.11 21.01 16.76 16.66 20.93 12.49 24.67 16.23 28.62 16.23 28.62 9.82 35.45 9.82 35.45 15.05 38.44 18.04 43.57 12.92 48.16 17.51 44.42 21.25 44.42 25.2 50.83 25.2 50.83 32.04 46.13 32.04 46.13 34.6 53.4 34.6 53.4 22.64 46.99 22.64 46.99 22.32"/><path class="cls-1" d="M50,38.57a7.8,7.8,0,1,0,7.8,7.8A7.81,7.81,0,0,0,50,38.57Zm0,13a5.24,5.24,0,1,1,5.24-5.24A5.25,5.25,0,0,1,50,51.61Z" transform="translate(-17.96 -17.75)"/><path class="cls-1" d="M70.5,17.75h-41A11.55,11.55,0,0,0,18,29.28V54.06A11.55,11.55,0,0,0,29.5,65.59H39.75V72H23.09V82.25H76.91V72H60.25V65.59H70.5A11.55,11.55,0,0,0,82,54.06V29.28A11.55,11.55,0,0,0,70.5,17.75Zm3.85,56.81v5.13H25.65V74.56Zm-32-3.84V67.3H57.69v3.42ZM70.5,63h-41a9,9,0,0,1-8.26-5.47H78.76A9,9,0,0,1,70.5,63Zm9-9a8.85,8.85,0,0,1-.14,1.55H20.67a8.85,8.85,0,0,1-.14-1.55V29.28a9,9,0,0,1,9-9h41a9,9,0,0,1,9,9Z" transform="translate(-17.96 -17.75)"/></svg>