<svg id="Layer_9_copy" data-name="Layer 9 copy" xmlns="http://www.w3.org/2000/svg" viewBox="0 0 62.15 64.34"><defs><style>.cls-1{fill:#00468b;}</style></defs><path class="cls-1" d="M8.93,7.91V72.17H61.14V63.48l-3.2.88v4.48H12.37V11.29H47.51V21.55h5.35c1.34,0,2.69,0,4,0,.79,0,1.08.24,1.06,1.05-.05,1.55,0,3.1,0,4.64,0,.7.21,1,.92,1.14a23.55,23.55,0,0,1,2.38.68c0-2.48,0-4.86,0-7.25,0-.29-.37-.61-.62-.86-4.13-4.16-8.26-8.33-12.42-12.45a2.29,2.29,0,0,0-1.47-.64q-18.39,0-36.79,0C9.62,7.84,9.34,7.88,8.93,7.91Z" transform="translate(-8.93 -7.83)"/><path class="cls-1" d="M71.07,45.42a16.67,16.67,0,1,1-16.69-16.7A16.67,16.67,0,0,1,71.07,45.42Zm-30-.12a13.32,13.32,0,1,0,26.63.09,13.32,13.32,0,0,0-26.63-.09Z" transform="translate(-8.93 -7.83)"/><path class="cls-1" d="M32.36,26.25v2.24H43V26.25Z" transform="translate(-8.93 -7.83)"/><path class="cls-1" d="M32.36,17.83V20.1H43V17.83Z" transform="translate(-8.93 -7.83)"/><path class="cls-1" d="M43,62.29c.12-1.95-.25-2.36-2.09-2.36H17.28v2.36Z" transform="translate(-8.93 -7.83)"/><path class="cls-1" d="M17.24,34.74V37c.39,0,.78,0,1.17,0,6.3,0,12.61,0,18.91,0,1.72,0,1.66-1.53,2.87-2.38Z" transform="translate(-8.93 -7.83)"/><path class="cls-1" d="M17.24,51.7v2.19H37.59a13.62,13.62,0,0,0-.69-1.83,1.1,1.1,0,0,0-.81-.51c-6.19,0-12.37,0-18.56,0C17.46,51.56,17.39,51.62,17.24,51.7Z" transform="translate(-8.93 -7.83)"/><path class="cls-1" d="M36.24,43.1h-19v2.28H35.93Z" transform="translate(-8.93 -7.83)"/><path class="cls-1" d="M61.59,53.89H58.15l-3.82-5.8-3.91,5.8H47.26l5.47-8.11v-.05l-5.47-8.36H50.7l3.77,5.75c0-.07,3.68-5.75,3.68-5.75h3.23l-5.33,8.08Z" transform="translate(-8.93 -7.83)"/><path class="cls-1" d="M29.46,22.82H27.77a.13.13,0,0,0-.14.13v5.78a.13.13,0,0,1-.13.13H24.4a.13.13,0,0,1-.14-.13V25.44a.13.13,0,0,0-.13-.13H22a.13.13,0,0,0-.14.13v3.29a.13.13,0,0,1-.13.14H18.62a.14.14,0,0,1-.14-.14V23a.13.13,0,0,0-.13-.13H16.62a.14.14,0,0,1-.1-.23l6.42-7a.13.13,0,0,1,.2,0l6.42,7A.14.14,0,0,1,29.46,22.82Z" transform="translate(-8.93 -7.83)"/></svg>