<svg id="Layer_1_copy" data-name="Layer 1 copy" xmlns="http://www.w3.org/2000/svg" viewBox="0 0 65.01 64.9"><defs><style>.cls-1{fill:#00468b;}</style></defs><path class="cls-1" d="M81.5,64.19a14.77,14.77,0,0,0-9.59-7.54A13.91,13.91,0,0,0,60.63,59c-2.87,2-4.53,2.12-6.83.41A54.5,54.5,0,0,1,42.66,48.92c-3.86-5.06-3.86-5.16.06-10.26.22-.29.48-.57.75-.87a6.77,6.77,0,0,0,2.29-5.2c-.32-5.24-6.87-13.27-12.08-14.81-4-1.19-11.74,2.52-14.56,6.16A7.51,7.51,0,0,0,18,31.45c4.94,14.92,13,27.34,24,36.93,7.65,6.66,17.08,11.24,28.82,14l.35.09.35-.06c4.24-.68,6.63-4.13,8.06-6.66l.35-.62C81.68,72.14,83.8,68.43,81.5,64.19Zm-48.84-43C36.52,22.35,42,29,42.19,32.81c.05.92-.33,1.43-1.36,2.57-.32.35-.64.7-.95,1.1-4.94,6.43-5,8.21-.07,14.61A57.66,57.66,0,0,0,51.66,62.24c4.54,3.38,8.28,1.59,11-.36a10.39,10.39,0,0,1,8.41-1.74,11.2,11.2,0,0,1,7.25,5.76c1.35,2.49,0,4.79-1.48,7.44l-.36.64c-1.63,2.89-3.23,4.38-5.19,4.82-11-2.63-19.8-6.92-26.92-13.12-10.66-9.29-18.18-20.85-23-35.35A4,4,0,0,1,22,26.14c2-2.57,7.32-5,10-5A3.86,3.86,0,0,1,32.66,21.21Z" transform="translate(-17.5 -17.55)"/></svg>