<svg id="Layer_1" data-name="Layer 1" xmlns="http://www.w3.org/2000/svg" viewBox="0 0 66.17 63"><defs><style>.cls-1,.cls-2{fill:#555a5e;}.cls-1{stroke:#555a5e;stroke-miterlimit:10;}</style></defs><path class="cls-1" d="M28.5,76.68a5,5,0,0,1-5-5V36.2a5,5,0,0,1,5-5H60.07l3.82-3.53H28.5A8.57,8.57,0,0,0,20,36.2V71.66a8.57,8.57,0,0,0,8.55,8.55h37A8.57,8.57,0,0,0,74,71.66V41.9L70.5,45.15V71.66a5,5,0,0,1-5,5Z" transform="translate(-19.45 -17.71)"/><path class="cls-2" d="M84.33,17.72h-.26c-.25,0-.51,0-.81.05l-3.88.38-3,.29L64.92,19.54a1.41,1.41,0,0,0-1.4,1A1.42,1.42,0,0,0,64,22.12l3,3L69.89,28l-.31.39L55.38,42.75,43.61,54.68a1.42,1.42,0,0,0,0,2.16l3.31,3.28a1.44,1.44,0,0,0,2.3,0l.87-.87L61.3,47.89l7.53-7.65,6.91-6.44.54.49.14.13,2.89,2.85,2.12,2.1a3,3,0,0,0,.49.38,1.38,1.38,0,0,0,1.28,0A1.68,1.68,0,0,0,84,38.37q.46-5.71,1-11.43l.57-6.48A10.75,10.75,0,0,0,85.61,19,1.29,1.29,0,0,0,84.33,17.72Z" transform="translate(-19.45 -17.71)"/></svg>